<svg width="120" height="120" viewBox="0 0 120 120" fill="none" xmlns="http://www.w3.org/2000/svg">
<path d="M81.7044 58.3448C82.5391 56.4828 83.3739 54.6207 84.2087 52.7586C87.3391 45.931 90.2609 39.5172 89.2174 30.8276C89.2174 30.6207 89.2174 30.4138 89.0087 30.2069C88.5913 28.9655 76.0696 0 60 0C43.9304 0 31.4087 28.9655 30.9913 30.2069C30.9913 30.4138 30.9913 30.6207 30.7826 30.6207C29.7391 39.3103 32.6609 45.7241 35.7913 52.3448C36.6261 54.2069 37.4609 56.069 38.2957 58.1379C23.4783 60.8276 12 73.4483 12 88.9655V109.655C12 110.897 12.8348 111.724 14.087 111.724H28.6957V113.793C28.6957 117.31 31.4087 120 34.9565 120H85.0435C88.5913 120 91.3043 117.31 91.3043 113.793V111.724H105.913C107.165 111.724 108 110.897 108 109.655V88.9655C108 73.4483 96.5217 60.8276 81.7044 58.3448ZM36.6261 27.7241C41.2174 18.8276 50.6087 4.13793 60 4.13793C69.3913 4.13793 78.7826 18.8276 83.3739 27.7241C75.6522 25.6552 67.9304 24.8276 60 24.8276C52.0696 24.8276 44.3478 25.8621 36.6261 27.7241ZM74.4 30.2069L73.7739 36.4138C73.1478 42.2069 69.3913 46.9655 63.9652 48.8276C61.4609 49.8621 58.5391 49.8621 55.8261 48.8276C50.4 46.7586 46.6435 42 46.0174 36.4138L45.3913 30.2069C55.2 28.5517 64.8 28.5517 74.4 30.2069ZM87.1304 113.793C87.1304 115.034 86.2957 115.862 85.0435 115.862H34.9565C33.7043 115.862 32.8696 115.034 32.8696 113.793V111.724H33.287H86.9217H87.1304V113.793ZM51.6522 91.0345C51.6522 86.4828 55.4087 82.7586 60 82.7586C64.5913 82.7586 68.3478 86.4828 68.3478 91.0345C68.3478 95.5862 64.5913 99.3104 60 99.3104C55.4087 99.3104 51.6522 95.5862 51.6522 91.0345ZM103.826 107.586H91.513L94.8522 77.1724C95.0609 75.5172 94.4348 73.6552 93.3913 72.4138C92.1391 71.1724 90.4696 70.3448 88.8 70.3448H31.2C29.5304 70.3448 27.6522 71.1724 26.6087 72.4138C25.3565 73.6552 24.9391 75.5172 25.1478 77.1724L28.487 107.586H16.1739V88.9655C16.1739 74.069 28.2783 62.069 43.3043 62.069H76.6956C91.7217 62.069 103.826 74.069 103.826 88.9655V107.586Z" fill="#89191B"/>
</svg>
