<svg width="120" height="120" viewBox="0 0 120 120" fill="none" xmlns="http://www.w3.org/2000/svg">
<path d="M79.104 69.3703H73.7204V60.1124C76.5267 55.8806 78.7649 50.7547 80.2613 45.9609C86.1749 39.0099 85.361 20.3748 85.3228 19.7736C86.7069 9.9298 77.7391 6.94149 74.9709 6.28176C73.2647 5.82169 73.2965 3.938 72.8302 2.88331C72.5763 2.06236 72.0774 1.34358 71.4036 0.828151C70.7299 0.312723 69.9152 0.0265919 69.0743 0.0100218C49.602 -0.319842 43.5549 7.60122 43.3853 7.83343C33.6206 18.0071 34.7185 34.1379 40.6723 46.8745C42.2662 51.7465 44.4833 56.5404 47.1751 60.4618V69.3725H41.7914C41.7914 69.3725 17.1431 73.1377 16.1194 84.3205V110.119C16.1177 111.416 16.3656 112.7 16.8487 113.898C17.3319 115.096 18.041 116.185 18.9354 117.103C19.8299 118.021 20.8921 118.749 22.0615 119.246C23.2309 119.743 24.4845 119.999 25.7506 120H95.1448C96.411 119.999 97.6646 119.743 98.834 119.246C100.003 118.749 101.066 118.021 101.96 117.103C102.854 116.185 103.564 115.096 104.047 113.898C104.53 112.7 104.778 111.416 104.776 110.119V84.3205C103.752 73.1377 79.104 69.3725 79.104 69.3725V69.3703ZM42.0373 44.9539C42.5672 41.46 45.3565 36.4122 45.7529 28.0267C45.7741 27.6361 45.791 27.3062 45.8292 27.0154C57.8513 27.2889 61.9653 24.4546 65.5665 21.9698C66.7428 21.1538 67.8429 20.3965 69.0552 19.8517C70.4202 22.2215 75.0091 23.9685 76.887 24.5892C77.3024 28.7429 72.9044 35.772 78.4025 45.5355C75.7106 54.0577 68.998 67.6863 60.3142 67.6863C51.4418 67.6863 44.6719 53.7083 42.0373 44.9539ZM49.0721 63.0074C56.6198 72.1416 64.7462 71.6229 71.8234 62.7557V71.1607L60.4477 73.9537L49.0721 71.1585V63.0074Z" fill="#89191B"/>
</svg>
