<svg width="92" height="92" viewBox="0 0 92 92" fill="none" xmlns="http://www.w3.org/2000/svg">
<g clip-path="url(#clip0_1266_3477)">
<path d="M4.6 75.1333H12.2667V84.3333C12.2717 88.5654 15.7013 91.9949 19.9333 92H72.0667C76.2987 91.9949 79.7283 88.5654 79.7333 84.3333V75.1333H87.4C89.9405 75.1333 92 73.0738 92 70.5333V55.2C92 52.6595 89.9405 50.6 87.4 50.6H79.7333V41.4C79.7283 37.1679 76.2987 33.7384 72.0667 33.7333V26.0667C72.0667 11.6704 60.3962 0 46 0C31.6038 0 19.9333 11.6704 19.9333 26.0667V33.7333C15.7013 33.7384 12.2717 37.1679 12.2667 41.4V50.6H4.6C2.05949 50.6 0 52.6595 0 55.2V70.5333C0 73.0738 2.05949 75.1333 4.6 75.1333ZM76.6667 84.3333C76.6667 86.8738 74.6072 88.9333 72.0667 88.9333H19.9333C17.3928 88.9333 15.3333 86.8738 15.3333 84.3333V75.1333H76.6667V84.3333ZM23 26.0667C23 13.3641 33.2975 3.06667 46 3.06667C58.7025 3.06667 69 13.3641 69 26.0667V33.7333H62.8667V26.0667C62.8667 16.7515 55.3152 9.2 46 9.2C36.6848 9.2 29.1333 16.7515 29.1333 26.0667V33.7333H23V26.0667ZM32.2 33.7333V26.0667C32.2 18.4451 38.3785 12.2667 46 12.2667C53.6215 12.2667 59.8 18.4451 59.8 26.0667V33.7333H32.2ZM15.3333 41.4C15.3333 38.8595 17.3928 36.8 19.9333 36.8H72.0667C74.6072 36.8 76.6667 38.8595 76.6667 41.4V50.6H15.3333V41.4ZM3.06667 55.2C3.06667 54.3532 3.75316 53.6667 4.6 53.6667H87.4C88.2468 53.6667 88.9333 54.3532 88.9333 55.2V70.5333C88.9333 71.3802 88.2468 72.0667 87.4 72.0667H4.6C3.75316 72.0667 3.06667 71.3802 3.06667 70.5333V55.2Z" fill="#89191B"/>
<path d="M6.39089 66.7843C6.61655 67.1227 6.96742 67.3575 7.36627 67.4372C7.76513 67.5168 8.17929 67.4348 8.51762 67.209L10.7333 65.7309V67.4666C10.7333 68.3134 11.4198 68.9999 12.2666 68.9999C13.1135 68.9999 13.8 68.3134 13.8 67.4666V65.7309L16.0156 67.209C16.4714 67.513 17.0548 67.5508 17.5459 67.3081C18.0371 67.0654 18.3615 66.5791 18.3969 66.0324C18.4324 65.4857 18.1734 64.9616 17.7176 64.6575L15.0266 62.8666L17.713 61.0757C18.1688 60.7716 18.4278 60.2476 18.3923 59.7008C18.3569 59.1541 18.0325 58.6678 17.5413 58.4251C17.0501 58.1824 16.4668 58.2202 16.011 58.5242L13.8 60.0023V58.2666C13.8 57.4198 13.1135 56.7333 12.2666 56.7333C11.4198 56.7333 10.7333 57.4198 10.7333 58.2666V60.0023L8.51762 58.5242C7.81305 58.0542 6.86088 58.2444 6.39089 58.9489C5.92089 59.6535 6.11105 60.6057 6.81562 61.0757L9.50662 62.8666L6.81562 64.6575C6.47723 64.8832 6.24237 65.2341 6.16272 65.6329C6.08306 66.0318 6.16514 66.4459 6.39089 66.7843Z" fill="#89191B"/>
<path d="M23.2576 66.7843C23.4833 67.1227 23.8341 67.3575 24.233 67.4372C24.6318 67.5168 25.046 67.4348 25.3843 67.209L27.6 65.7309V67.4666C27.6 68.3134 28.2865 68.9999 29.1333 68.9999C29.9802 68.9999 30.6667 68.3134 30.6667 67.4666V65.7309L32.8823 67.209C33.3381 67.513 33.9214 67.5508 34.4126 67.3081C34.9038 67.0654 35.2282 66.5791 35.2636 66.0324C35.2991 65.4857 35.0401 64.9616 34.5843 64.6575L31.8933 62.8666L34.5797 61.0757C35.0355 60.7716 35.2944 60.2476 35.259 59.7008C35.2236 59.1541 34.8992 58.6678 34.408 58.4251C33.9168 58.1824 33.3335 58.2202 32.8777 58.5242L30.6667 60.0023V58.2666C30.6667 57.4198 29.9802 56.7333 29.1333 56.7333C28.2865 56.7333 27.6 57.4198 27.6 58.2666V60.0023L25.3843 58.5242C24.6798 58.0542 23.7276 58.2444 23.2576 58.9489C22.7876 59.6535 22.9778 60.6057 23.6823 61.0757L26.3733 62.8666L23.6869 64.6575C23.3478 64.8825 23.112 65.233 23.0315 65.6319C22.9509 66.0308 23.0323 66.4454 23.2576 66.7843Z" fill="#89191B"/>
<path d="M56.991 66.7843C57.2167 67.1227 57.5675 67.3575 57.9664 67.4372C58.3652 67.5168 58.7794 67.4348 59.1177 67.209L61.3334 65.7309V67.4666C61.3334 68.3134 62.0199 68.9999 62.8667 68.9999C63.7136 68.9999 64.4001 68.3134 64.4001 67.4666V65.7309L66.6157 67.209C67.0715 67.513 67.6548 67.5508 68.146 67.3081C68.6372 67.0654 68.9616 66.5791 68.997 66.0324C69.0324 65.4857 68.7735 64.9616 68.3177 64.6575L65.6267 62.8666L68.3131 61.0757C68.7689 60.7716 69.0279 60.2476 68.9924 59.7008C68.957 59.1541 68.6326 58.6678 68.1414 58.4251C67.6502 58.1824 67.0669 58.2202 66.6111 58.5242L64.4001 60.0023V58.2666C64.4001 57.4198 63.7136 56.7333 62.8667 56.7333C62.0199 56.7333 61.3334 57.4198 61.3334 58.2666V60.0023L59.1177 58.5242C58.4132 58.0542 57.461 58.2444 56.991 58.9489C56.521 59.6535 56.7112 60.6057 57.4157 61.0757L60.1067 62.8666L57.4203 64.6575C57.0812 64.8825 56.8454 65.233 56.7649 65.6319C56.6843 66.0308 56.7657 66.4454 56.991 66.7843Z" fill="#89191B"/>
<path d="M40.1243 66.7843C40.35 67.1227 40.7008 67.3575 41.0997 67.4372C41.4985 67.5168 41.9127 67.4348 42.251 67.209L44.4667 65.7309V67.4666C44.4667 68.3134 45.1532 68.9999 46 68.9999C46.8469 68.9999 47.5334 68.3134 47.5334 67.4666V65.7309L49.749 67.209C50.2048 67.513 50.7881 67.5508 51.2793 67.3081C51.7705 67.0654 52.0949 66.5791 52.1303 66.0324C52.1657 65.4857 51.9068 64.9616 51.451 64.6575L48.76 62.8666L51.4464 61.0757C51.9022 60.7716 52.1612 60.2476 52.1257 59.7008C52.0903 59.1541 51.7659 58.6678 51.2747 58.4251C50.7835 58.1824 50.2002 58.2202 49.7444 58.5242L47.5334 60.0023V58.2666C47.5334 57.4198 46.8469 56.7333 46 56.7333C45.1532 56.7333 44.4667 57.4198 44.4667 58.2666V60.0023L42.251 58.5242C41.5465 58.0542 40.5943 58.2444 40.1243 58.9489C39.6543 59.6535 39.8445 60.6057 40.549 61.0757L43.24 62.8666L40.5536 64.6575C40.2145 64.8825 39.9787 65.233 39.8982 65.6319C39.8176 66.0308 39.899 66.4454 40.1243 66.7843Z" fill="#89191B"/>
<path d="M24.5334 39.8667H19.9334C19.0865 39.8667 18.4 40.5532 18.4 41.4V46C18.4 46.8469 19.0865 47.5334 19.9334 47.5334C20.7802 47.5334 21.4667 46.8469 21.4667 46V42.9334H24.5334C25.3802 42.9334 26.0667 42.2469 26.0667 41.4C26.0667 40.5532 25.3802 39.8667 24.5334 39.8667Z" fill="#89191B"/>
<path d="M75.1333 69H84.3333C85.1801 69 85.8666 68.3135 85.8666 67.4667C85.8666 66.6198 85.1801 65.9333 84.3333 65.9333H75.1333C74.2865 65.9333 73.6 66.6198 73.6 67.4667C73.6 68.3135 74.2865 69 75.1333 69Z" fill="#89191B"/>
</g>
<defs>
<clipPath id="clip0_1266_3477">
<rect width="92" height="92" fill="white"/>
</clipPath>
</defs>
</svg>
