<svg width="92" height="92" viewBox="0 0 92 92" fill="none" xmlns="http://www.w3.org/2000/svg">
<g clip-path="url(#clip0_1266_3474)">
<path d="M3.07408 87.6875H88.9216C89.3983 87.6922 89.8699 87.5885 90.3007 87.3843C90.7315 87.1801 91.1103 86.8807 91.4084 86.5088C91.662 86.1861 91.8401 85.8107 91.9297 85.4102C92.0192 85.0098 92.0179 84.5943 91.9259 84.1944L86.1185 54.0428C86.1113 54.0141 86.1041 53.9853 86.0969 53.9638C85.9874 53.5243 85.77 53.1192 85.4644 52.785C85.9726 52.0605 86.2461 51.1975 86.2478 50.3125V8.625C86.2469 7.48155 85.7922 6.3852 84.9837 5.57665C84.1751 4.76811 83.0788 4.31345 81.9353 4.3125H10.0603C8.91687 4.31345 7.82052 4.76811 7.01198 5.57665C6.20343 6.3852 5.74878 7.48155 5.74783 8.625V50.3125C5.74959 51.1975 6.02306 52.0605 6.53126 52.785C6.22568 53.1192 6.00829 53.5243 5.89876 53.9638C5.89158 53.9853 5.88439 54.0141 5.8772 54.0428L0.0697009 84.1944C-0.0222903 84.5943 -0.0235576 85.0098 0.065992 85.4102C0.155542 85.8107 0.333635 86.1861 0.587201 86.5088C0.885378 86.8807 1.26417 87.1801 1.69497 87.3843C2.12578 87.5885 2.59735 87.6922 3.07408 87.6875ZM56.4772 81.3841C56.3429 81.5571 56.1707 81.697 55.9738 81.793C55.7769 81.8889 55.5606 81.9384 55.3416 81.9375H36.6541C36.4358 81.9382 36.2202 81.889 36.0238 81.7936C35.8274 81.6983 35.6553 81.5593 35.5208 81.3874C35.3863 81.2154 35.2929 81.015 35.2476 80.8014C35.2024 80.5878 35.2065 80.3667 35.2597 80.155L36.6972 74.405C36.7731 74.0927 36.9519 73.8151 37.2049 73.6169C37.4579 73.4187 37.7702 73.3115 38.0916 73.3125H53.9041C54.2254 73.3115 54.5378 73.4187 54.7907 73.6169C55.0437 73.8151 55.2226 74.0927 55.2985 74.405L56.736 80.155C56.7896 80.366 56.7942 80.5865 56.7493 80.7996C56.7045 81.0126 56.6114 81.2126 56.4772 81.3841ZM81.2166 69.0287L81.195 69.1941C81.1878 69.2372 81.1878 69.2803 81.1806 69.3163C81.1663 69.3666 81.1519 69.4169 81.1375 69.46C81.1251 69.5024 81.1082 69.5434 81.0872 69.5822C81.0685 69.6267 81.0469 69.6699 81.0225 69.7116C81.0012 69.7515 80.9772 69.7899 80.9506 69.8266C80.9241 69.8642 80.8953 69.9002 80.8644 69.9344C80.8356 69.9703 80.8069 69.9991 80.7781 70.035C80.7422 70.0638 80.7063 70.0925 80.6631 70.1212C80.6272 70.15 80.5984 70.1787 80.5625 70.2075C80.5194 70.2291 80.4763 70.2506 80.4403 70.2722L80.311 70.3369C80.2678 70.3512 80.2247 70.3584 80.1888 70.3728C80.1371 70.389 80.0842 70.401 80.0306 70.4088C80.0235 70.4159 80.0091 70.4159 80.0019 70.4231C79.9228 70.4303 79.851 70.4375 79.7791 70.4375H12.9353C12.8163 70.4354 12.698 70.4185 12.5831 70.3872C12.3911 70.4389 12.1906 70.4511 11.9938 70.4231C11.6168 70.3632 11.2788 70.1563 11.0539 69.8479C10.829 69.5395 10.7353 69.1545 10.7935 68.7772L12.2381 59.5197C12.2442 59.4711 12.2538 59.4231 12.2669 59.3759C12.4302 58.8226 12.7716 58.3387 13.2383 57.9995C13.7049 57.6602 14.2705 57.4847 14.8472 57.5H77.1484C77.7252 57.4847 78.2908 57.6602 78.7574 57.9995C79.224 58.3387 79.5655 58.8226 79.7288 59.3759C79.7418 59.4231 79.7514 59.4711 79.7575 59.5197L81.2022 68.7772C81.2094 68.8203 81.2022 68.8562 81.2094 68.8922C81.2094 68.9281 81.2166 68.9641 81.2166 69V69.0287ZM8.62283 8.625C8.62321 8.24387 8.77478 7.87846 9.04428 7.60895C9.31378 7.33945 9.67919 7.18788 10.0603 7.1875H81.9353C82.3165 7.18788 82.6819 7.33945 82.9514 7.60895C83.2209 7.87846 83.3724 8.24387 83.3728 8.625V50.3125C83.3724 50.6936 83.2209 51.059 82.9514 51.3285C82.6819 51.598 82.3165 51.7496 81.9353 51.75H10.0603C9.67919 51.7496 9.31378 51.598 9.04428 51.3285C8.77478 51.059 8.62321 50.6936 8.62283 50.3125V8.625Z" fill="#89191B"/>
<path d="M46 17C47.6569 17 49 15.6569 49 14C49 12.3431 47.6569 11 46 11C44.3431 11 43 12.3431 43 14C43 15.6569 44.3431 17 46 17Z" fill="#89191B"/>
</g>
<defs>
<clipPath id="clip0_1266_3474">
<rect width="92" height="92" fill="white"/>
</clipPath>
</defs>
</svg>
