<svg width="115" height="100" viewBox="0 0 115 100" fill="none" xmlns="http://www.w3.org/2000/svg">
<g id="Group 48095525">
<path id="Line 43" d="M58.7845 2.77463C59.1853 2.04959 58.935 1.11501 58.2256 0.687197C57.5162 0.259381 56.6163 0.50033 56.2155 1.22537L58.7845 2.77463ZM4.57861 95.5529C4.79687 96.3681 5.61017 96.8586 6.39518 96.6484L19.1876 93.2235C19.9726 93.0133 20.4321 92.1821 20.2138 91.3669C19.9956 90.5517 19.1823 90.0613 18.3973 90.2714L7.02621 93.3158L3.86478 81.5075C3.64653 80.6923 2.83323 80.2018 2.04822 80.412C1.26321 80.6222 0.80376 81.4534 1.02201 82.2686L4.57861 95.5529ZM56.2155 1.22537L4.7155 94.3977L7.2845 95.947L58.7845 2.77463L56.2155 1.22537Z" fill="#89191B"/>
<path id="Line 46" d="M56.2155 2.77463C55.8147 2.04959 56.065 1.11501 56.7744 0.687197C57.4838 0.259381 58.3837 0.50033 58.7845 1.22537L56.2155 2.77463ZM110.421 95.5529C110.203 96.3681 109.39 96.8586 108.605 96.6484L95.8124 93.2235C95.0274 93.0133 94.5679 92.1821 94.7862 91.3669C95.0044 90.5517 95.8177 90.0613 96.6027 90.2714L107.974 93.3158L111.135 81.5075C111.353 80.6923 112.167 80.2018 112.952 80.412C113.737 80.6222 114.196 81.4534 113.978 82.2686L110.421 95.5529ZM58.7845 1.22537L110.285 94.3977L107.715 95.947L56.2155 2.77463L58.7845 1.22537Z" fill="#89191B"/>
<path id="Line 45" d="M59 5.31055C59 4.48212 58.3284 3.81055 57.5 3.81055C56.6716 3.81055 56 4.48212 56 5.31055L59 5.31055ZM56.4393 99.0609C57.0251 99.6466 57.9749 99.6466 58.5607 99.0609L68.1066 89.5149C68.6924 88.9291 68.6924 87.9794 68.1066 87.3936C67.5208 86.8078 66.5711 86.8078 65.9853 87.3936L57.5 95.8789L49.0147 87.3936C48.4289 86.8078 47.4792 86.8078 46.8934 87.3936C46.3076 87.9794 46.3076 88.9291 46.8934 89.5149L56.4393 99.0609ZM56 5.31055L56 98.0002L59 98.0002L59 5.31055L56 5.31055Z" fill="#89191B"/>
</g>
</svg>
