<svg width="92" height="92" viewBox="0 0 92 92" fill="none" xmlns="http://www.w3.org/2000/svg">
<g id="fi_3661193" clip-path="url(#clip0_1266_3568)">
<g id="Group">
<path id="Vector" d="M86.8894 23.5283L87.0053 23.5951H87.1391H89.3047C90.5171 23.5951 91.5 24.5781 91.5 25.7905V37.3384C91.5 38.5508 90.5171 39.5337 89.3047 39.5337H80.452H79.952V40.0337V75.0613V75.5613H80.452H83.5308C87.9245 75.5613 91.5 79.1368 91.5 83.5305C91.5 87.9243 87.9245 91.4999 83.5308 91.4999H8.46921C4.07547 91.4999 0.5 87.9243 0.5 83.5305C0.5 79.1368 4.07545 75.5613 8.46919 75.5615H11.548H12.048V75.0615V40.0337V39.5337H11.548H2.69531C1.48292 39.5337 0.5 38.5508 0.5 37.3384V25.7905C0.5 24.5781 1.48292 23.5951 2.69531 23.5951H4.87205H5.0038L5.11845 23.5302L45.2789 0.785036C45.9554 0.402017 46.7839 0.405233 47.4573 0.793342C47.4573 0.793352 47.4573 0.793362 47.4573 0.793372L86.8894 23.5283ZM46.5985 5.36634L46.351 5.22363L46.1024 5.36443L15.5641 22.6601L13.9131 23.5951H15.8105H76.3467H78.2149L76.5964 22.662L46.5985 5.36634ZM5.39062 27.9858H4.89062V28.4858V34.6431V35.1431H5.39062H86.6094H87.1094V34.6431V28.4858V27.9858H86.6094H5.6014C5.5951 27.9858 5.5895 27.9859 5.58491 27.986C5.58031 27.9859 5.57475 27.9858 5.56852 27.9858H5.39062ZM54.4692 39.5337H53.9692V40.0337V75.0613V75.0615V75.5615H54.4692H63.5136H64.0136V75.0615V40.0337V39.5337H63.5136H54.4692ZM42.9214 39.5337H42.4214V40.0337V75.0613V75.0615V75.5615H42.9214H49.0786H49.5786V75.0615V40.0337V39.5337H49.0786H42.9214ZM28.4864 39.5337H27.9864V40.0337V75.0613V75.0615V75.5615H28.4864H37.5308H38.0308V75.0615V40.0337V39.5337H37.5308H28.4864ZM16.9386 39.5337H16.4386V40.0337V75.0615V75.5615H16.9386H23.096H23.596V75.0615V40.0337V39.5337H23.096H16.9386ZM75.0614 75.5613H75.5614V75.0613V40.0337V39.5337H75.0614H68.904H68.404V40.0337V75.0613V75.5613H68.904H75.0614ZM83.5308 87.1093C85.5045 87.1093 87.1094 85.5041 87.1094 83.5305C87.1094 81.5569 85.5044 79.9519 83.5308 79.9519H8.46921C6.49556 79.9519 4.89062 81.5569 4.89062 83.5305C4.89062 85.5041 6.49552 87.1093 8.46921 87.1093H83.5308Z" fill="#89191B" stroke="white"/>
<path id="Vector_2" d="M47.9065 13.2033C47.4034 12.7002 46.7098 12.4128 46 12.4128C45.2902 12.4128 44.5966 12.7003 44.0935 13.2033C43.5922 13.7048 43.3047 14.3984 43.3047 15.1082C43.3047 15.8179 43.5922 16.5131 44.0935 17.0145C44.5966 17.5158 45.2902 17.8035 46 17.8035C46.7098 17.8035 47.4034 17.5158 47.9065 17.0145C48.4078 16.5131 48.6953 15.8179 48.6953 15.1082C48.6953 14.4002 48.4078 13.7048 47.9065 13.2033Z" fill="#89191B"/>
</g>
</g>
<defs>
<clipPath id="clip0_1266_3568">
<rect width="92" height="92" fill="white"/>
</clipPath>
</defs>
</svg>
