<svg xmlns="http://www.w3.org/2000/svg" width="66" height="66" viewBox="0 0 66 66" fill="none">
<path d="M38.5902 17.7883C39.5851 18.8186 44.4621 23.9288 49.0823 29.7501C51.3941 32.6628 53.6197 35.7263 55.2612 38.5286C56.9383 41.3917 57.8751 43.7695 57.8751 45.375C57.8751 55.7994 47.0058 64.75 33 64.75C18.9943 64.75 8.125 55.7994 8.125 45.375C8.125 43.7695 9.06175 41.3917 10.7389 38.5286C12.3804 35.7263 14.606 32.6628 16.9178 29.7501C21.5381 23.9288 26.4144 18.8193 27.4093 17.7891L27.41 17.7883C27.4337 17.7638 27.4662 17.75 27.5001 17.75H38.5001C38.534 17.75 38.5665 17.7638 38.5902 17.7883Z" stroke="#89191B" stroke-width="2.5"/>
<path d="M16.4062 2.66674L16.4095 2.66297M16.4095 2.66297L16.4132 2.65874M16.4095 2.66297C16.0068 3.12978 15.8169 3.74348 15.886 4.35626L15.8878 4.3721L15.8892 4.38798C15.9707 5.32591 16.5445 6.58405 17.5658 8.05895C18.5628 9.4986 19.884 11.0015 21.2563 12.4052C23.9984 15.2101 26.8393 17.5127 27.413 17.9701L27.4163 17.9727C27.4384 17.9904 27.4661 18.0002 27.495 18.0001H27.5001H38.5H38.5011C38.5291 18.0001 38.5565 17.9906 38.5787 17.9731M16.4095 2.66297C16.6805 2.35818 17.0975 2.16501 17.7912 2.15758C18.5107 2.14988 19.4155 2.34932 20.4499 2.73097C22.5118 3.49179 24.7582 4.85004 26.4404 5.98595L27.4565 6.67209L28.1622 5.66937C28.9248 4.58564 29.8405 3.42648 30.7735 2.55146C31.7664 1.6203 32.5291 1.25 33.0001 1.25C33.4711 1.25 34.2338 1.6203 35.2267 2.55146C36.1598 3.42648 37.0754 4.58564 37.8381 5.66937L38.5425 6.67042L39.5581 5.98711C41.2459 4.85152 43.4917 3.49383 45.5526 2.73291C46.5864 2.35124 47.4905 2.15167 48.2095 2.15911C48.9015 2.16627 49.3187 2.3585 49.5904 2.66263M38.5787 17.9731L38.5775 17.9741M38.5787 17.9731C39.1573 17.5104 41.9966 15.2112 44.7369 12.4099C46.1093 11.0069 47.4304 9.50468 48.4271 8.06506C49.4481 6.59034 50.0216 5.3315 50.1026 4.39168L50.1043 4.37264L50.1065 4.35365C50.1781 3.74255 49.9908 3.12943 49.5904 2.66263M49.5904 2.66263C49.5919 2.66435 49.5935 2.66608 49.595 2.6678M49.5904 2.66263C49.5887 2.66071 49.5871 2.65879 49.5854 2.65688" stroke="#89191B" stroke-width="2.5"/>
<path d="M44 19.25H22C21.2407 19.25 20.625 18.6343 20.625 17.8749C20.625 17.1155 21.2407 16.5 22 16.5H44.0001C44.7595 16.5 45.3751 17.1157 45.3751 17.875C45.3751 18.6344 44.7593 19.25 44 19.25Z" fill="#89191B"/>
<path d="M33 55C29.7303 55.3229 26.752 53.1047 26.125 49.8795C26.0612 49.1201 26.6252 48.4527 27.3846 48.3889C28.144 48.3251 28.8113 48.8891 28.8751 49.6485C28.9962 51.084 30.8469 52.2499 33.0001 52.2499C35.2386 52.2499 37.1251 50.9904 37.1251 49.5C37.1251 48.1579 35.8216 47.2999 33.0249 46.7775L32.7252 46.7224C28.2619 45.8974 26.1252 44.0742 26.1252 41.25C26.5553 37.8608 29.5992 35.4257 33.0001 35.7499C36.2698 35.427 39.2481 37.6452 39.8751 40.8705C39.9389 41.6299 39.3749 42.2972 38.6155 42.361C37.8562 42.4248 37.1888 41.8609 37.125 41.1015C37.0095 39.666 35.1588 38.5 33 38.5C30.7615 38.5 28.875 39.7596 28.875 41.25C28.875 42.592 30.1812 43.45 32.9808 43.9725L33.2833 44.0302C37.7383 44.8552 39.8833 46.6758 39.8833 49.5027C39.4516 52.8943 36.4031 55.3291 33 55Z" fill="#89191B"/>
<path d="M33 57.75C32.2407 57.75 31.625 57.1343 31.625 56.375V34.375C31.625 33.6157 32.2407 33 33 33C33.7594 33 34.3751 33.6157 34.3751 34.375V56.3751C34.3751 57.1343 33.7594 57.75 33 57.75Z" fill="#89191B"/>
</svg>