<svg width="222" height="86" viewBox="0 0 222 86" fill="none" xmlns="http://www.w3.org/2000/svg">
<g id="Layer 2">
<g id="Layer 1">
<path id="Vector" d="M125.599 41.95H132.209C133.076 42 133.944 41.8733 134.761 41.5777C135.577 41.282 136.325 40.8235 136.959 40.23C137.491 39.6605 137.904 38.99 138.172 38.2582C138.439 37.5265 138.558 36.7483 138.519 35.97V27.74H135.819V35.97C135.861 36.5115 135.794 37.0559 135.623 37.5711C135.451 38.0863 135.178 38.562 134.819 38.97C134.475 39.2886 134.07 39.5344 133.628 39.6925C133.187 39.8506 132.718 39.9178 132.249 39.89H125.249C124.781 39.9178 124.312 39.8506 123.87 39.6925C123.429 39.5344 123.024 39.2886 122.679 38.97C122.321 38.562 122.048 38.0863 121.876 37.5711C121.704 37.0559 121.637 36.5115 121.679 35.97C121.675 35.6344 121.705 35.2993 121.769 34.97C121.852 34.5973 121.976 34.2351 122.139 33.89L119.899 33.32C119.7 33.7589 119.549 34.2183 119.449 34.69C119.369 35.112 119.329 35.5405 119.329 35.97C119.291 36.7483 119.409 37.5265 119.677 38.2582C119.945 38.99 120.357 39.6605 120.889 40.23C121.52 40.8166 122.261 41.271 123.07 41.5664C123.879 41.8618 124.739 41.9922 125.599 41.95Z" fill="#244A54"/>
<path id="Vector_2" d="M132.4 34.18H130.4C129.952 34.1958 129.51 34.085 129.122 33.8603C128.735 33.6357 128.419 33.3063 128.21 32.91C128.061 32.6642 127.972 32.3867 127.95 32.1C127.95 31.73 128.18 31.47 128.65 31.34C128.79 31.3018 128.935 31.2816 129.08 31.28C129.61 31.28 130 31.61 130.25 32.28L132.32 31.85C132.065 31.2202 131.632 30.678 131.075 30.2892C130.517 29.9005 129.859 29.6819 129.18 29.66C128.697 29.6258 128.211 29.6907 127.754 29.8506C127.297 30.0105 126.877 30.2621 126.52 30.59C126.16 30.9419 125.945 31.4169 125.92 31.92C125.915 31.9832 125.915 32.0467 125.92 32.11C125.922 32.534 126.032 32.9505 126.24 33.32C126.384 33.6256 126.562 33.9141 126.77 34.18H125.5V35.98H132.38L132.4 34.18Z" fill="#244A54"/>
<path id="Vector_3" d="M172.151 30.43C172.278 30.5427 172.423 30.6339 172.581 30.7C172.749 30.7686 172.929 30.8026 173.111 30.8C173.289 30.8027 173.466 30.7686 173.631 30.7C173.794 30.6341 173.946 30.543 174.081 30.43C174.202 30.3129 174.301 30.1738 174.371 30.02C174.443 29.8634 174.481 29.6927 174.481 29.52C174.48 29.3441 174.442 29.1704 174.371 29.01C174.301 28.853 174.203 28.7106 174.081 28.59C173.949 28.4703 173.796 28.3755 173.631 28.31C173.464 28.2461 173.288 28.2122 173.111 28.21C172.929 28.2123 172.75 28.2461 172.581 28.31C172.421 28.3758 172.275 28.4708 172.151 28.59C172.022 28.7076 171.92 28.8506 171.851 29.01C171.771 29.1682 171.73 29.3429 171.731 29.52C171.729 29.6939 171.77 29.8657 171.851 30.02C171.92 30.1763 172.023 30.3161 172.151 30.43Z" fill="#244A54"/>
<path id="Vector_4" d="M190.991 46.2602C191.16 46.324 191.34 46.3579 191.521 46.3602C191.702 46.3569 191.881 46.3231 192.051 46.2602C192.212 46.192 192.361 46.0974 192.491 45.9802C192.612 45.8669 192.711 45.7311 192.781 45.5802C192.86 45.4259 192.898 45.2536 192.891 45.0802C192.896 44.9006 192.858 44.7223 192.781 44.5602C192.708 44.4078 192.61 44.2691 192.491 44.1502C192.361 44.033 192.212 43.9383 192.051 43.8702C191.882 43.8025 191.702 43.7686 191.521 43.7702C191.339 43.7675 191.159 43.8015 190.991 43.8702C190.833 43.9385 190.687 44.0331 190.561 44.1502C190.435 44.2659 190.333 44.4052 190.261 44.5602C190.18 44.7216 190.139 44.8998 190.141 45.0802C190.139 45.2542 190.18 45.4259 190.261 45.5802C190.331 45.7336 190.433 45.87 190.561 45.9802C190.687 46.0972 190.833 46.1919 190.991 46.2602Z" fill="#244A54"/>
<path id="Vector_5" d="M214.04 37.99C214.047 38.2605 213.995 38.5292 213.888 38.7777C213.781 39.0262 213.621 39.2487 213.42 39.43C213.272 39.5791 213.096 39.6974 212.902 39.7781C212.708 39.8587 212.5 39.9002 212.29 39.9H195.16C194.866 39.9088 194.574 39.8594 194.299 39.7547C194.025 39.65 193.774 39.4921 193.56 39.29C193.119 38.8299 192.872 38.2175 192.87 37.58V32.25H190.14V37.34C190.169 37.7037 190.121 38.0693 190.001 38.4136C189.88 38.7579 189.689 39.0734 189.44 39.34C189.221 39.5442 188.962 39.7026 188.681 39.8056C188.399 39.9086 188.1 39.9543 187.8 39.94H176.9C176.607 39.9487 176.314 39.8994 176.039 39.7947C175.765 39.69 175.514 39.5321 175.3 39.33C174.859 38.8699 174.612 38.2575 174.61 37.62V32.25H171.9V37.34C171.927 37.7043 171.877 38.0702 171.755 38.4145C171.633 38.7587 171.441 39.0739 171.19 39.34C170.971 39.5442 170.712 39.7026 170.431 39.8056C170.149 39.9086 169.85 39.9543 169.55 39.94H152.2V33.04C152.2 32.0067 151.534 31.2267 150.2 30.7C149.227 30.2992 148.182 30.1018 147.13 30.12C146.263 30.0765 145.396 30.2072 144.58 30.5043C143.764 30.8014 143.016 31.259 142.38 31.85C141.844 32.4151 141.429 33.0833 141.159 33.8138C140.889 34.5444 140.77 35.3222 140.81 36.1C140.784 36.8575 140.915 37.6122 141.196 38.3162C141.476 39.0203 141.9 39.6584 142.44 40.19C143.061 40.7843 143.796 41.2467 144.6 41.5492C145.404 41.8517 146.262 41.988 147.12 41.95H149.32C149.246 42.4167 149.083 42.8648 148.84 43.27C148.599 43.6769 148.317 44.0587 148 44.41C147.514 44.9279 147 45.4186 146.46 45.88L148.35 47.14C148.926 46.6372 149.467 46.096 149.97 45.52C150.388 45.0676 150.75 44.5674 151.05 44.03C151.48 43.3883 151.789 42.6731 151.96 41.92H169.64C170.3 41.9517 170.96 41.8522 171.581 41.6274C172.203 41.4025 172.773 41.0567 173.26 40.61C174.176 41.4517 175.376 41.9161 176.62 41.91H187.9C188.559 41.9403 189.216 41.8402 189.836 41.6154C190.456 41.3906 191.025 41.0455 191.51 40.6C192.429 41.4441 193.633 41.9086 194.88 41.9H212.3C213.506 41.9264 214.673 41.4774 215.55 40.65C215.932 40.3094 216.237 39.8918 216.446 39.4247C216.654 38.9576 216.761 38.4516 216.76 37.94V27.74H214.05L214.04 37.99ZM149.49 39.92H147.35C146.842 39.9459 146.334 39.8709 145.855 39.6992C145.376 39.5276 144.936 39.2627 144.56 38.92C144.198 38.545 143.916 38.0993 143.734 37.6106C143.552 37.1219 143.472 36.6008 143.5 36.08C143.459 35.5386 143.526 34.9943 143.698 34.4792C143.869 33.964 144.142 33.4883 144.5 33.08C144.844 32.7613 145.25 32.5156 145.691 32.3575C146.133 32.1994 146.602 32.1322 147.07 32.16C147.699 32.1521 148.322 32.2746 148.9 32.52C149.29 32.67 149.48 32.86 149.48 33.09L149.49 39.92Z" fill="#244A54"/>
<path id="Vector_6" d="M221.73 27.74H219.02V41.17H221.73V27.74Z" fill="#244A54"/>
<path id="Vector_7" d="M124.11 46.4301C123.94 46.3672 123.761 46.3334 123.58 46.3301C123.402 46.3314 123.226 46.3653 123.06 46.4301C122.897 46.4959 122.748 46.5907 122.62 46.7101C122.495 46.8303 122.393 46.9727 122.32 47.1301C122.244 47.289 122.206 47.4638 122.21 47.6401C122.203 47.8135 122.24 47.9858 122.32 48.1401C122.393 48.2944 122.495 48.4335 122.62 48.5501C122.751 48.663 122.9 48.7542 123.06 48.8201C123.224 48.8896 123.401 48.9237 123.58 48.9201C123.761 48.9217 123.941 48.8877 124.11 48.8201C124.27 48.7542 124.419 48.663 124.55 48.5501C124.675 48.4335 124.777 48.2944 124.85 48.1401C124.919 47.9827 124.953 47.812 124.95 47.6401C124.953 47.4649 124.919 47.2912 124.85 47.1301C124.777 46.9727 124.675 46.8303 124.55 46.7101C124.421 46.5907 124.272 46.4959 124.11 46.4301Z" fill="#244A54"/>
<path id="Vector_8" d="M127.42 46.4301C127.251 46.3662 127.071 46.3324 126.89 46.3301C126.706 46.3324 126.523 46.3663 126.35 46.4301C126.188 46.4959 126.039 46.5907 125.91 46.7101C125.782 46.8277 125.68 46.9707 125.61 47.1301C125.531 47.2883 125.49 47.463 125.49 47.6401C125.489 47.8141 125.53 47.9858 125.61 48.1401C125.68 48.2964 125.782 48.4362 125.91 48.5501C126.042 48.663 126.19 48.7542 126.35 48.8201C126.522 48.8887 126.705 48.9227 126.89 48.9201C127.072 48.9227 127.252 48.8887 127.42 48.8201C127.574 48.754 127.716 48.6628 127.84 48.5501C127.965 48.4358 128.064 48.296 128.13 48.1401C128.21 47.9858 128.248 47.8135 128.24 47.6401C128.244 47.4638 128.207 47.289 128.13 47.1301C128.064 46.9712 127.965 46.8281 127.84 46.7101C127.719 46.591 127.577 46.496 127.42 46.4301Z" fill="#244A54"/>
<path id="Vector_9" d="M137.9 58.41C137.905 58.6788 137.852 58.9456 137.745 59.1923C137.638 59.439 137.48 59.6599 137.28 59.84C137.133 59.9905 136.957 60.1103 136.763 60.1927C136.569 60.2751 136.361 60.3183 136.15 60.32H133.29C132.614 60.3711 131.945 60.1517 131.43 59.71C131.18 59.4441 130.989 59.1287 130.868 58.7842C130.748 58.4398 130.701 58.0738 130.73 57.71V53.41C130.73 52.39 130.064 51.61 128.73 51.07C127.752 50.6763 126.705 50.4825 125.65 50.5C124.782 50.4555 123.914 50.5847 123.097 50.8801C122.279 51.1754 121.529 51.631 120.89 52.22C120.343 52.7894 119.918 53.4645 119.642 54.2039C119.365 54.9433 119.242 55.7314 119.28 56.52C119.209 57.5511 119.44 58.5807 119.944 59.4828C120.448 60.385 121.205 61.1207 122.12 61.6C122.91 62.0388 123.788 62.2919 124.69 62.34H125.1C125.854 62.344 126.603 62.2119 127.31 61.95C127.998 61.7297 128.627 61.3571 129.15 60.86L129.26 60.95C129.989 61.6358 130.91 62.0824 131.9 62.23V62.36H136.14C137.345 62.3924 138.513 61.9465 139.39 61.12C139.771 60.779 140.076 60.3614 140.285 59.8943C140.493 59.4273 140.601 58.9215 140.6 58.41V52.67H137.9V58.41ZM128.02 57.74C127.976 58.2759 127.776 58.7873 127.446 59.2117C127.115 59.6361 126.669 59.9552 126.16 60.13C125.842 60.2574 125.503 60.3219 125.16 60.32H124.9C124.484 60.2906 124.079 60.1748 123.71 59.98C123.123 59.6282 122.648 59.1153 122.343 58.502C122.038 57.8887 121.916 57.2009 121.99 56.52C121.95 55.9787 122.018 55.4347 122.189 54.9197C122.361 54.4047 122.633 53.929 122.99 53.52C123.335 53.1978 123.741 52.9492 124.184 52.7893C124.628 52.6294 125.1 52.5616 125.57 52.59C126.175 52.5757 126.776 52.6811 127.34 52.9C127.72 53.06 127.92 53.25 127.92 53.47L128.02 57.74Z" fill="#244A54"/>
<path id="Vector_10" d="M135.67 64.5199C135.538 64.4002 135.386 64.3054 135.22 64.2399C135.052 64.1704 134.872 64.1364 134.69 64.1399C134.512 64.1383 134.335 64.1723 134.17 64.2399C134.011 64.3057 133.865 64.4007 133.74 64.5199C133.612 64.6397 133.507 64.7821 133.43 64.9399C133.358 65.1004 133.321 65.2741 133.32 65.4499C133.32 65.6226 133.358 65.7933 133.43 65.9499C133.507 66.1046 133.612 66.2437 133.74 66.3599C133.868 66.4726 134.013 66.5638 134.17 66.6299C134.335 66.6975 134.512 66.7315 134.69 66.7299C134.872 66.7334 135.052 66.6994 135.22 66.6299C135.384 66.564 135.535 66.4729 135.67 66.3599C135.792 66.2429 135.891 66.1037 135.96 65.9499C136.033 65.7933 136.071 65.6226 136.07 65.4499C136.07 65.2741 136.032 65.1004 135.96 64.9399C135.891 64.783 135.792 64.6405 135.67 64.5199Z" fill="#244A54"/>
<path id="Vector_11" d="M138.959 64.52C138.836 64.3986 138.69 64.3034 138.529 64.24C138.365 64.1714 138.188 64.1373 138.009 64.14C137.825 64.1374 137.641 64.1714 137.469 64.24C137.306 64.3034 137.156 64.3986 137.029 64.52C136.901 64.6398 136.796 64.7822 136.719 64.94C136.648 65.1005 136.61 65.2742 136.609 65.45C136.609 65.6228 136.647 65.7934 136.719 65.95C136.796 66.1048 136.901 66.2438 137.029 66.36C137.159 66.4751 137.308 66.5665 137.469 66.63C137.641 66.6987 137.825 66.7327 138.009 66.73C138.188 66.7327 138.365 66.6987 138.529 66.63C138.688 66.5664 138.833 66.475 138.959 66.36C139.081 66.243 139.18 66.1039 139.249 65.95C139.322 65.7934 139.36 65.6228 139.359 65.45C139.359 65.2742 139.321 65.1005 139.249 64.94C139.18 64.7831 139.081 64.6406 138.959 64.52Z" fill="#244A54"/>
<path id="Vector_12" d="M151.661 59.13C151.539 57.1413 151.072 55.1889 150.281 53.36C149.221 51.47 147.281 50.53 144.551 50.53V52.53C145.27 52.4752 145.987 52.6474 146.603 53.0224C147.218 53.3974 147.7 53.9563 147.981 54.62C148.521 56.1182 148.857 57.6822 148.981 59.27C149.051 59.84 149.091 60.18 149.111 60.27H145.111C144.771 60.2816 144.432 60.2307 144.111 60.12C143.69 59.9119 143.302 59.6423 142.961 59.32L141.961 61.54L142.841 61.9C143.563 62.1842 144.335 62.3235 145.111 62.31H150.791C151.117 62.2979 151.43 62.1784 151.681 61.97C151.78 61.8884 151.86 61.7862 151.915 61.6704C151.97 61.5547 152 61.4283 152.001 61.3C152.006 61.2535 152.006 61.2066 152.001 61.16C151.901 60.78 151.781 60.09 151.661 59.13Z" fill="#244A54"/>
<path id="Vector_13" d="M213.46 58.4099C213.467 58.6781 213.416 58.9446 213.311 59.1913C213.205 59.438 213.048 59.6592 212.85 59.8399C212.548 60.1444 212.138 60.317 211.71 60.3199H209.53C209.236 60.3303 208.943 60.2817 208.668 60.177C208.393 60.0722 208.142 59.9134 207.93 59.7099C207.489 59.2498 207.242 58.6374 207.24 57.9999V52.6699H204.52V57.7499C204.546 58.1142 204.496 58.4799 204.374 58.8241C204.252 59.1683 204.06 59.4835 203.81 59.7499C203.362 60.155 202.773 60.3671 202.17 60.3399C201.876 60.3503 201.583 60.3017 201.308 60.197C201.033 60.0922 200.782 59.9334 200.57 59.7299C200.32 59.464 200.128 59.1486 200.008 58.8041C199.887 58.4596 199.84 58.0937 199.87 57.7299V52.6699H197.16V57.7499C197.187 58.1151 197.137 58.4819 197.013 58.8265C196.889 59.1711 196.693 59.4857 196.44 59.7499C195.992 60.155 195.403 60.3671 194.8 60.3399C194.506 60.3509 194.213 60.3026 193.938 60.1978C193.663 60.093 193.412 59.9338 193.2 59.7299C192.95 59.464 192.758 59.1486 192.638 58.8041C192.517 58.4596 192.47 58.0937 192.5 57.7299V52.6699H189.79V57.7499C189.816 58.1142 189.766 58.4799 189.644 58.8241C189.522 59.1683 189.33 59.4835 189.08 59.7499C188.628 60.1538 188.036 60.3654 187.43 60.3399H183.9C184.894 59.4337 185.591 58.2487 185.9 56.9399C186.104 56.2921 186.215 55.6188 186.23 54.9399C186.258 53.9944 185.949 53.0697 185.36 52.3299C184.708 51.5635 183.823 51.0329 182.84 50.8199C182.167 50.6453 181.475 50.5612 180.78 50.5699H178.97C178.295 50.5652 177.623 50.6493 176.97 50.8199C175.98 51.0288 175.086 51.5598 174.43 52.3299C173.84 53.0697 173.532 53.9944 173.56 54.9399C173.575 55.6188 173.686 56.2921 173.89 56.9399C174.195 58.2311 174.869 59.4056 175.83 60.3199H166.08V53.4499C166.08 52.4299 165.413 51.6499 164.08 51.1099C163.102 50.7162 162.054 50.5224 161 50.5399C160.133 50.4945 159.267 50.6233 158.451 50.9188C157.635 51.2142 156.886 51.6702 156.25 52.2599C155.701 52.8211 155.273 53.4883 154.991 54.2208C154.709 54.9533 154.579 55.7356 154.61 56.5199C154.581 57.2762 154.711 58.03 154.992 58.7328C155.273 59.4356 155.698 60.0717 156.24 60.5999C156.857 61.1941 157.588 61.6566 158.389 61.9592C159.19 62.2618 160.044 62.3981 160.9 62.3599H163.11C163.039 62.8274 162.876 63.2761 162.63 63.6799C162.388 64.0868 162.107 64.4686 161.79 64.8199C161.304 65.3415 160.79 65.8356 160.25 66.2999L162.15 67.5199C162.73 67.0216 163.277 66.4872 163.79 65.9199C164.21 65.4956 164.583 65.0261 164.9 64.5199C165.33 63.8746 165.638 63.1561 165.81 62.3999H187.5C188.853 62.464 190.176 61.9894 191.18 61.0799C191.67 61.5321 192.245 61.8818 192.872 62.1085C193.498 62.3352 194.164 62.4343 194.83 62.3999C196.196 62.4703 197.534 61.9955 198.55 61.0799C199.04 61.5321 199.615 61.8818 200.242 62.1085C200.868 62.3352 201.534 62.4343 202.2 62.3999C202.876 62.4301 203.551 62.3253 204.187 62.0918C204.822 61.8583 205.404 61.5008 205.9 61.0399C206.386 61.4884 206.956 61.836 207.578 62.0626C208.199 62.2892 208.859 62.3902 209.52 62.3599H211.73C212.935 62.3933 214.104 61.9474 214.98 61.1199C215.363 60.7801 215.669 60.3627 215.877 59.8954C216.086 59.4281 216.192 58.9217 216.19 58.4099V48.1499H213.48L213.46 58.4099ZM163.31 60.3299H161.17C160.662 60.3569 160.153 60.2824 159.674 60.1107C159.195 59.939 158.755 59.6736 158.38 59.3299C158.021 58.9585 157.742 58.5176 157.56 58.0344C157.377 57.5512 157.296 57.0358 157.32 56.5199C157.278 55.9784 157.345 55.434 157.517 54.9188C157.688 54.4036 157.961 53.9279 158.32 53.5199C158.662 53.198 159.067 52.9495 159.509 52.7896C159.951 52.6296 160.421 52.5617 160.89 52.5899C161.495 52.5756 162.096 52.681 162.66 52.8999C163.05 53.0599 163.24 53.2499 163.24 53.4699L163.31 60.3299ZM183.25 56.5199C182.9 57.7596 182.156 58.8515 181.13 59.6299C180.743 59.9264 180.315 60.1655 179.86 60.3399C179.408 60.1655 178.983 59.9264 178.6 59.6299C177.568 58.8572 176.822 57.7631 176.48 56.5199C176.323 55.9939 176.239 55.4488 176.23 54.8999C176.199 54.3456 176.362 53.7978 176.69 53.3499C176.981 53.0248 177.365 52.7977 177.79 52.6999C178.169 52.6061 178.559 52.5623 178.95 52.5699H180.76C181.154 52.5629 181.547 52.6066 181.93 52.6999C182.355 52.7977 182.739 53.0248 183.03 53.3499C183.361 53.7969 183.527 54.3445 183.5 54.8999C183.486 55.4484 183.402 55.9928 183.25 56.5199Z" fill="#244A54"/>
<path id="Vector_14" d="M221.501 48.1499H218.791V61.5799H221.501V48.1499Z" fill="#244A54"/>
<path id="Vector_15" d="M119.58 82.8799L120.68 82.2599C121.46 83.6099 122.36 84.2599 123.38 84.2599C123.806 84.2646 124.228 84.1687 124.61 83.9799C124.97 83.8059 125.274 83.536 125.49 83.1999C125.682 82.9014 125.786 82.5548 125.79 82.1999C125.781 81.7591 125.626 81.3337 125.35 80.9899C124.708 80.2187 123.956 79.545 123.12 78.9899C122.391 78.5086 121.72 77.9449 121.12 77.3099C120.682 76.7808 120.438 76.1171 120.43 75.4299C120.422 74.9138 120.565 74.4065 120.84 73.9699C121.124 73.5404 121.517 73.195 121.98 72.9699C122.479 72.7164 123.031 72.5861 123.59 72.5899C124.19 72.5897 124.781 72.7374 125.31 73.0199C125.972 73.4295 126.547 73.9665 127 74.5999L125.94 75.3599C125.597 74.8866 125.174 74.4771 124.69 74.1499C124.344 73.9586 123.955 73.8588 123.56 73.8599C123.089 73.8428 122.628 74.0035 122.27 74.3099C122.111 74.4476 121.984 74.6182 121.898 74.8099C121.812 75.0016 121.768 75.2097 121.77 75.4199C121.77 75.6902 121.832 75.957 121.95 76.1999C122.115 76.5105 122.335 76.7884 122.6 77.0199C122.77 77.1699 123.33 77.5799 124.28 78.2399C125.166 78.8046 125.95 79.5146 126.6 80.3399C126.995 80.8737 127.215 81.5163 127.23 82.1799C127.232 82.6281 127.133 83.0709 126.941 83.4759C126.749 83.8808 126.468 84.2376 126.12 84.5199C125.41 85.1814 124.47 85.5401 123.5 85.5199C122.741 85.528 121.995 85.3199 121.35 84.9199C120.606 84.4079 119.998 83.7212 119.58 82.9199" fill="#4FE0A3"/>
<path id="Vector_16" d="M134.391 76.98C133.723 76.9739 133.066 77.1392 132.481 77.46C131.9 77.7742 131.416 78.241 131.081 78.81C130.747 79.3621 130.571 79.9949 130.571 80.64C130.571 81.2864 130.751 81.9201 131.091 82.47C131.425 83.0447 131.909 83.5182 132.491 83.84C133.069 84.1605 133.719 84.3291 134.381 84.33C135.054 84.3277 135.717 84.1594 136.311 83.84C136.889 83.5404 137.373 83.0871 137.711 82.53C138.038 81.9651 138.207 81.3227 138.201 80.67C138.211 80.1791 138.118 79.6916 137.929 79.2386C137.739 78.7857 137.457 78.3774 137.101 78.04C136.742 77.6921 136.318 77.4192 135.852 77.2372C135.387 77.0552 134.89 76.9677 134.391 76.98ZM139.341 76.09V85.17H138.121V83.61C137.638 84.1745 137.041 84.6311 136.371 84.95C135.705 85.2531 134.982 85.4068 134.251 85.4C133.605 85.4129 132.963 85.2957 132.363 85.0551C131.763 84.8146 131.218 84.4557 130.761 84C130.301 83.5662 129.935 83.0431 129.684 82.4628C129.434 81.8824 129.305 81.257 129.305 80.625C129.305 79.9929 129.434 79.3675 129.684 78.7872C129.935 78.2068 130.301 77.6837 130.761 77.25C131.224 76.7963 131.773 76.4391 132.375 76.1988C132.978 75.9585 133.622 75.8399 134.271 75.85C135.015 75.8381 135.752 76.0026 136.421 76.33C137.087 76.67 137.665 77.1594 138.111 77.76V76.09H139.341Z" fill="#4FE0A3"/>
<path id="Vector_17" d="M141.97 76.0901H143.21V80.3301C143.177 81.0444 143.234 81.76 143.38 82.4601C143.545 83.0052 143.9 83.4733 144.38 83.7801C144.917 84.0948 145.528 84.2606 146.15 84.2606C146.772 84.2606 147.383 84.0948 147.92 83.7801C148.378 83.4807 148.723 83.0373 148.9 82.5201C149.062 81.7885 149.126 81.0386 149.09 80.2901V76.0901H150.35V80.5201C150.404 81.4856 150.247 82.4513 149.89 83.3501C149.587 83.9783 149.098 84.4983 148.49 84.8401C147.772 85.2241 146.964 85.4105 146.15 85.3801C145.333 85.4089 144.523 85.2227 143.8 84.8401C143.186 84.4978 142.694 83.9738 142.39 83.3401C142.033 82.4168 141.877 81.4284 141.93 80.4401L141.97 76.0901Z" fill="#4FE0A3"/>
<path id="Vector_18" d="M157.8 76.9801C157.136 76.9753 156.482 77.1406 155.9 77.4601C155.319 77.7744 154.835 78.2411 154.5 78.8101C154.163 79.363 153.985 79.9978 153.985 80.6451C153.985 81.2923 154.163 81.9271 154.5 82.4801C154.837 83.0496 155.321 83.519 155.9 83.8401C156.477 84.1627 157.128 84.3314 157.79 84.3301C158.461 84.3304 159.121 84.1619 159.71 83.8401C160.292 83.5463 160.778 83.0917 161.11 82.5301C161.445 81.968 161.618 81.3243 161.61 80.6701C161.621 80.1782 161.527 79.6897 161.336 79.2364C161.145 78.7831 160.86 78.3755 160.5 78.0401C160.142 77.6908 159.718 77.417 159.252 77.2349C158.787 77.0528 158.289 76.9662 157.79 76.9801M162.79 72.5801V85.1701H161.57V83.6101C161.085 84.1725 160.489 84.6287 159.82 84.9501C159.154 85.2533 158.431 85.4069 157.7 85.4001C157.054 85.4142 156.411 85.2975 155.812 85.0569C155.212 84.8163 154.667 84.4568 154.21 84.0001C153.75 83.5663 153.384 83.0432 153.133 82.4629C152.883 81.8825 152.754 81.2571 152.754 80.6251C152.754 79.993 152.883 79.3676 153.133 78.7873C153.384 78.2069 153.75 77.6838 154.21 77.2501C154.673 76.7956 155.221 76.4377 155.824 76.1973C156.427 75.957 157.071 75.8389 157.72 75.8501C158.464 75.8394 159.201 76.0038 159.87 76.3301C160.536 76.6701 161.114 77.1595 161.56 77.7601V72.5801H162.79Z" fill="#4FE0A3"/>
<path id="Vector_19" d="M165.381 76.0899H166.621V85.1699H165.381V76.0899ZM165.991 72.3499C166.123 72.3465 166.255 72.3695 166.379 72.4176C166.502 72.4657 166.615 72.5379 166.711 72.6299C166.806 72.7173 166.883 72.824 166.934 72.9429C166.986 73.0618 167.012 73.1903 167.011 73.3199C167.011 73.4465 166.985 73.5718 166.933 73.6873C166.881 73.8028 166.805 73.906 166.711 73.9899C166.617 74.0852 166.506 74.1609 166.383 74.2125C166.261 74.2642 166.129 74.2908 165.996 74.2908C165.862 74.2908 165.73 74.2642 165.608 74.2125C165.485 74.1609 165.374 74.0852 165.281 73.9899C165.186 73.906 165.11 73.8028 165.058 73.6873C165.006 73.5718 164.98 73.4465 164.981 73.3199C164.979 73.1903 165.005 73.0618 165.057 72.9429C165.108 72.824 165.185 72.7173 165.281 72.6299C165.471 72.4464 165.726 72.3457 165.991 72.3499Z" fill="#4FE0A3"/>
<path id="Vector_20" d="M175.719 79.26V83.97H177.339C178.046 84.0053 178.754 83.9139 179.429 83.7C179.858 83.5365 180.23 83.2516 180.499 82.88C180.761 82.5311 180.901 82.1062 180.899 81.67C180.903 81.4058 180.855 81.1434 180.757 80.898C180.659 80.6525 180.514 80.4289 180.329 80.24C179.907 79.8099 179.362 79.5202 178.769 79.41C178.006 79.2857 177.232 79.2355 176.459 79.26H175.719ZM175.719 74.09V78.02H176.469C177.144 78.0545 177.82 77.9767 178.469 77.79C178.871 77.6479 179.22 77.3862 179.469 77.04C179.714 76.7101 179.847 76.3108 179.849 75.9C179.861 75.6437 179.81 75.3885 179.7 75.1566C179.59 74.9248 179.425 74.7234 179.219 74.57C178.622 74.1991 177.92 74.0307 177.219 74.09H175.719ZM174.449 72.89H177.019C177.827 72.8566 178.635 72.9754 179.399 73.24C179.932 73.4538 180.389 73.8231 180.709 74.3C181.028 74.7724 181.195 75.3304 181.189 75.9C181.194 76.4265 181.048 76.9434 180.769 77.39C180.469 77.8745 180.039 78.2658 179.529 78.52C180.09 78.6836 180.618 78.9442 181.089 79.29C181.452 79.5782 181.745 79.9447 181.945 80.3621C182.146 80.7794 182.25 81.2368 182.249 81.7C182.251 82.1754 182.15 82.6455 181.951 83.0773C181.752 83.5092 181.462 83.8924 181.099 84.2C180.235 84.9083 179.135 85.2653 178.019 85.2H174.449V72.89Z" fill="#4FE0A3"/>
<path id="Vector_21" d="M189.26 76.98C188.593 76.9739 187.935 77.1392 187.35 77.46C186.772 77.7745 186.291 78.2414 185.96 78.81C185.62 79.3598 185.44 79.9935 185.44 80.64C185.44 81.2864 185.62 81.9201 185.96 82.47C186.297 83.0426 186.78 83.5154 187.36 83.84C187.939 84.1605 188.589 84.3291 189.25 84.33C189.924 84.3277 190.587 84.1594 191.18 83.84C191.76 83.543 192.245 83.0891 192.58 82.53C192.985 81.8184 193.145 80.9932 193.035 80.1817C192.925 79.3703 192.551 78.6176 191.97 78.04C191.612 77.6912 191.188 77.4177 190.722 77.2356C190.257 77.0535 189.76 76.9666 189.26 76.98ZM194.21 76.09V85.17H192.99V83.61C192.507 84.1746 191.911 84.6311 191.24 84.95C190.575 85.2551 189.851 85.4087 189.12 85.4C188.474 85.4124 187.833 85.2949 187.233 85.0544C186.633 84.8139 186.088 84.4553 185.63 84C185.165 83.5659 184.795 83.0391 184.545 82.4535C184.295 81.8679 184.171 81.2365 184.18 80.6C184.175 79.9704 184.302 79.3469 184.554 78.7697C184.805 78.1926 185.176 77.6748 185.64 77.25C186.106 76.7961 186.656 76.4387 187.26 76.1984C187.864 75.9581 188.51 75.8397 189.16 75.85C189.901 75.8394 190.635 76.0038 191.3 76.33C191.968 76.6672 192.547 77.1571 192.99 77.76V76.09H194.21Z" fill="#4FE0A3"/>
<path id="Vector_22" d="M197 76.0899H198.24V77.7199C198.684 77.1373 199.251 76.6593 199.9 76.3199C200.518 76.0028 201.205 75.8415 201.9 75.8499C202.576 75.8411 203.241 76.0212 203.82 76.3699C204.359 76.7047 204.787 77.1919 205.05 77.7699C205.366 78.6402 205.502 79.5655 205.45 80.4899V85.1699H204.21V80.8399C204.236 80.137 204.189 79.4332 204.07 78.7399C203.968 78.2059 203.677 77.7267 203.25 77.3899C202.782 77.0633 202.22 76.9015 201.65 76.9299C200.922 76.9236 200.215 77.1712 199.65 77.6299C199.078 78.0647 198.667 78.6766 198.48 79.3699C198.329 80.184 198.268 81.0125 198.3 81.8399V85.1699H197V76.0899Z" fill="#4FE0A3"/>
<path id="Vector_23" d="M208.051 72.5801H209.281V79.7501L213.751 76.0901H215.571L210.281 80.4201L215.881 85.1701H214.131L209.281 81.0801V85.1701H208.051V72.5801Z" fill="#4FE0A3"/>
<path id="Vector_24" d="M221.991 77.08L221.201 77.86C220.677 77.3087 219.96 76.9824 219.201 76.95C218.834 76.9485 218.478 77.0799 218.201 77.32C218.068 77.4255 217.961 77.5592 217.886 77.7114C217.812 77.8637 217.772 78.0306 217.771 78.2C217.78 78.5136 217.904 78.8128 218.121 79.04C218.551 79.4631 219.056 79.8022 219.611 80.04C220.321 80.3382 220.961 80.7809 221.491 81.34C221.813 81.7467 221.986 82.2513 221.981 82.77C221.985 83.1274 221.913 83.4817 221.77 83.8093C221.627 84.1369 221.416 84.4303 221.151 84.67C220.581 85.1829 219.837 85.4584 219.071 85.44C218.522 85.444 217.98 85.3279 217.481 85.1C216.993 84.8887 216.562 84.5669 216.221 84.16L217.001 83.32C217.245 83.6184 217.549 83.8618 217.894 84.0341C218.238 84.2065 218.616 84.3039 219.001 84.32C219.465 84.332 219.917 84.1717 220.271 83.87C220.433 83.7447 220.565 83.5843 220.657 83.4007C220.749 83.2172 220.798 83.0152 220.801 82.81C220.799 82.48 220.675 82.1625 220.451 81.92C219.991 81.5005 219.464 81.1623 218.891 80.92C218.214 80.6373 217.606 80.2107 217.111 79.67C216.801 79.2657 216.635 78.7693 216.641 78.26C216.634 77.9361 216.697 77.6146 216.827 77.3177C216.956 77.0207 217.149 76.7554 217.391 76.54C217.91 76.0717 218.592 75.8242 219.291 75.85C220.305 75.9062 221.259 76.3459 221.961 77.08" fill="#4FE0A3"/>
<path id="Vector_25" d="M8.64091 22.9199L3.79091 17.9899C3.29894 17.49 3.02571 16.8151 3.03134 16.1137C3.03696 15.4123 3.32098 14.7419 3.82091 14.2499C4.32085 13.7579 4.99574 13.4847 5.69713 13.4903C6.39851 13.4959 7.06894 13.78 7.56091 14.2799L12.4109 19.2099C12.9029 19.7098 13.1761 20.3847 13.1705 21.0861C13.1649 21.7875 12.8808 22.4579 12.3809 22.9499C11.881 23.4419 11.2061 23.7151 10.5047 23.7095C9.80332 23.7039 9.13289 23.4198 8.64091 22.9199Z" fill="#4FE0A3"/>
<path id="Vector_26" d="M44.6402 10.28L39.1202 5.07001C38.87 4.82969 38.6696 4.54245 38.5305 4.22469C38.3913 3.90693 38.3161 3.56487 38.3091 3.21805C38.3022 2.87122 38.3636 2.52642 38.4899 2.20333C38.6162 1.88023 38.8049 1.58518 39.0452 1.33501C39.2855 1.08485 39.5727 0.884461 39.8905 0.745302C40.2083 0.606143 40.5503 0.530934 40.8971 0.52397C41.244 0.517006 41.5888 0.578422 41.9119 0.704713C42.235 0.831003 42.53 1.01969 42.7802 1.26001L48.3002 6.52001C48.8054 7.00536 49.0972 7.67153 49.1112 8.37198C49.1253 9.07243 48.8605 9.74978 48.3752 10.255C47.8898 10.7603 47.2237 11.052 46.5232 11.0661C45.8228 11.0801 45.1454 10.8154 44.6402 10.33" fill="#244A54"/>
<path id="Vector_27" d="M37.6595 76.76L43.6595 52.03C43.708 51.81 43.7314 51.5852 43.7295 51.36C43.7447 50.97 43.6788 50.5811 43.5359 50.2179C43.3931 49.8547 43.1764 49.5251 42.8995 49.25L20.3095 26.73C19.7613 26.3024 19.0756 26.0901 18.3817 26.1328C17.6878 26.1756 17.0334 26.4706 16.5418 26.9622C16.0502 27.4538 15.7552 28.1082 15.7124 28.8021C15.6697 29.496 15.882 30.1817 16.3095 30.73L37.8095 52.13L32.1095 75.41C31.9977 75.782 31.9628 76.1728 32.007 76.5588C32.0512 76.9447 32.1735 77.3176 32.3666 77.6547C32.5596 77.9918 32.8193 78.286 33.1298 78.5194C33.4402 78.7529 33.795 78.9206 34.1725 79.0124C34.5499 79.1042 34.9421 79.1182 35.3251 79.0534C35.7081 78.9887 36.0739 78.8466 36.4002 78.6358C36.7265 78.4251 37.0065 78.15 37.223 77.8275C37.4395 77.505 37.588 77.1418 37.6595 76.76Z" fill="#244A54"/>
<path id="Vector_28" d="M46.6892 82.13C46.3519 82.0448 46.0347 81.8938 45.7559 81.6857C45.4771 81.4775 45.2422 81.2163 45.0647 80.9171C44.8872 80.6179 44.7706 80.2865 44.7216 79.942C44.6726 79.5976 44.6922 79.2468 44.7792 78.91L52.4792 48.82C52.6102 48.3334 52.8696 47.8911 53.2303 47.5392C53.591 47.1873 54.0396 46.9389 54.5292 46.82L100.359 35.62C101.039 35.4542 101.758 35.5655 102.356 35.9293C102.954 36.2931 103.383 36.8797 103.549 37.56C103.715 38.2403 103.604 38.9585 103.24 39.5568C102.876 40.155 102.289 40.5842 101.609 40.75L57.2292 51.57L49.8992 80.22C49.814 80.5562 49.6634 80.8724 49.4559 81.1504C49.2484 81.4284 48.9882 81.6628 48.6901 81.8402C48.3919 82.0176 48.0618 82.1345 47.7185 82.1842C47.3752 82.2339 47.0254 82.2155 46.6892 82.13Z" fill="#4FE0A3"/>
<path id="Vector_29" d="M45.4693 43.9901L26.9593 25.5801C26.462 25.0855 26.1816 24.4136 26.1797 23.7122C26.1788 23.3649 26.2463 23.0208 26.3783 22.6996C26.5103 22.3784 26.7044 22.0864 26.9493 21.8401C27.1942 21.5939 27.4852 21.3983 27.8057 21.2646C28.1262 21.1308 28.4699 21.0615 28.8172 21.0606C29.5186 21.0587 30.192 21.3355 30.6893 21.8301L49.1993 40.2401C49.6966 40.7348 49.977 41.4067 49.9789 42.1081C49.9807 42.8095 49.7039 43.4829 49.2093 43.9801C48.7146 44.4774 48.0427 44.7578 47.3413 44.7597C46.64 44.7616 45.9666 44.4848 45.4693 43.9901Z" fill="#4FE0A3"/>
<path id="Vector_30" d="M19.0296 17.6901L8.12958 6.84015C7.63363 6.34022 7.35658 5.66374 7.3594 4.95954C7.36221 4.25534 7.64465 3.5811 8.14458 3.08515C8.64452 2.58919 9.32099 2.31215 10.0252 2.31496C10.7294 2.31778 11.4036 2.60022 11.8996 3.10015L22.7996 13.9401C23.2969 14.4335 23.5778 15.1041 23.5806 15.8045C23.5834 16.505 23.3079 17.1779 22.8146 17.6751C22.3213 18.1724 21.6506 18.4534 20.9502 18.4562C20.2497 18.459 19.5769 18.1835 19.0796 17.6901" fill="#244A54"/>
<path id="Vector_31" d="M11.6002 40.8699L1.63017 30.52C1.14615 30.0134 0.883182 29.3353 0.899122 28.6348C0.915063 27.9344 1.2086 27.269 1.71517 26.785C2.22173 26.3009 2.89982 26.038 3.60027 26.0539C4.30072 26.0698 4.96615 26.3634 5.45017 26.87L15.4502 37.2C15.7155 37.4454 15.9278 37.7425 16.0741 38.0731C16.2203 38.4036 16.2974 38.7606 16.3005 39.122C16.3037 39.4835 16.2329 39.8417 16.0925 40.1748C15.952 40.5079 15.745 40.8087 15.484 41.0587C15.223 41.3088 14.9136 41.5028 14.5748 41.6289C14.2361 41.7549 13.8751 41.8104 13.5141 41.7917C13.1532 41.7731 12.7998 41.6808 12.4758 41.5206C12.1518 41.3604 11.864 41.1355 11.6302 40.86" fill="#244A54"/>
<path id="Vector_32" d="M73.1696 67.3801C73.044 67.5662 72.9432 67.7679 72.8696 67.9801L71.2896 73.7501C71.0734 74.4556 71.1382 75.2175 71.4706 75.8764C71.803 76.5353 72.3772 77.0401 73.0732 77.2855C73.7692 77.5308 74.5332 77.4976 75.2053 77.1928C75.8774 76.8881 76.4056 76.3353 76.6796 75.65L77.7396 71.33L84.2696 69.9501C84.636 69.8726 84.9836 69.7237 85.2924 69.5119C85.6012 69.3001 85.8654 69.0295 86.0696 68.7157C86.2739 68.4018 86.4144 68.0508 86.483 67.6826C86.5517 67.3145 86.5471 66.9364 86.4696 66.5701C86.3921 66.2037 86.2433 65.8561 86.0315 65.5473C85.8197 65.2384 85.5491 64.9743 85.2353 64.77C84.9214 64.5657 84.5704 64.4253 84.2022 64.3566C83.8341 64.288 83.456 64.2926 83.0896 64.37L75.0196 66.0601C74.6379 66.1431 74.277 66.3029 73.9589 66.5299C73.6409 66.7568 73.3723 67.046 73.1696 67.3801Z" fill="#4FE0A3"/>
<path id="Vector_33" d="M59.9 25.2901C60.1259 25.2926 60.3511 25.2657 60.57 25.2101L70.39 22.9001C70.7538 22.8115 71.0965 22.6521 71.3987 22.431C71.7008 22.2099 71.9565 21.9314 72.151 21.6115C72.3455 21.2916 72.4752 20.9365 72.5325 20.5665C72.5898 20.1965 72.5737 19.8189 72.485 19.4551C72.3964 19.0914 72.237 18.7486 72.0159 18.4465C71.7948 18.1443 71.5163 17.8887 71.1964 17.6941C70.8765 17.4996 70.5214 17.37 70.1514 17.3127C69.7814 17.2554 69.4038 17.2715 69.04 17.3601L60.7 19.3001L55.99 14.5901C55.4392 14.1828 54.7604 13.9868 54.0772 14.0377C53.394 14.0886 52.7518 14.383 52.2674 14.8675C51.7829 15.3519 51.4885 15.9941 51.4376 16.6773C51.3867 17.3605 51.5827 18.0393 51.99 18.5901L57.82 24.4201C58.0981 24.6958 58.4296 24.9116 58.7942 25.0543C59.1588 25.1971 59.5487 25.2637 59.94 25.2501" fill="#4FE0A3"/>
<path id="Vector_34" d="M30.8011 52.6699C30.6853 52.475 30.5477 52.2938 30.3911 52.1299L23.2711 44.9799C23.0058 44.7111 22.6898 44.4977 22.3413 44.3522C21.9929 44.2066 21.619 44.1317 21.2414 44.1318C20.8637 44.132 20.4899 44.2072 20.1416 44.3531C19.7933 44.499 19.4774 44.7126 19.2124 44.9816C18.9473 45.2506 18.7384 45.5696 18.5977 45.9201C18.457 46.2705 18.3874 46.6455 18.3929 47.0231C18.3983 47.4006 18.4788 47.7734 18.6295 48.1196C18.7803 48.4659 18.9984 48.7787 19.2711 49.0399L25.2711 55.1199L23.7311 61.5999C23.6444 61.9656 23.6306 62.3449 23.6905 62.7159C23.7504 63.087 23.8828 63.4426 24.0801 63.7625C24.2774 64.0824 24.5358 64.3603 24.8405 64.5803C25.1453 64.8004 25.4903 64.9582 25.8561 65.0449C26.2218 65.1316 26.601 65.1454 26.9721 65.0855C27.3431 65.0256 27.6988 64.8932 28.0187 64.6959C28.3386 64.4986 28.6165 64.2402 28.8365 63.9354C29.0565 63.6307 29.2144 63.2856 29.3011 62.9199L31.2111 54.9199C31.3026 54.5402 31.3134 54.1455 31.2428 53.7614C31.1722 53.3772 31.0217 53.0122 30.8011 52.6899" fill="#4FE0A3"/>
<path id="Vector_35" d="M56.1794 37.9999C56.4046 38.0014 56.6293 37.9779 56.8494 37.9299L81.5794 31.9299C81.9612 31.8584 82.3244 31.7099 82.647 31.4934C82.9695 31.2769 83.2445 30.9969 83.4553 30.6706C83.666 30.3443 83.8081 29.9785 83.8729 29.5955C83.9376 29.2125 83.9237 28.8203 83.8318 28.4428C83.74 28.0654 83.5723 27.7106 83.3389 27.4001C83.1054 27.0896 82.8112 26.83 82.4741 26.6369C82.137 26.4439 81.7641 26.3216 81.3782 26.2774C80.9923 26.2332 80.6014 26.2681 80.2294 26.3799L56.9894 32.0199L29.8994 4.94993C29.3511 4.52241 28.6655 4.31004 27.9715 4.35281C27.2776 4.39559 26.6232 4.69054 26.1316 5.18216C25.64 5.67378 25.345 6.32815 25.3023 7.02208C25.2595 7.71602 25.4719 8.40166 25.8994 8.94993L54.0694 37.1699C54.3445 37.4468 54.6741 37.6635 55.0373 37.8063C55.4005 37.9492 55.7894 38.0151 56.1794 37.9999Z" fill="#244A54"/>
<path id="Vector_36" d="M87.4804 51.6799L65.0204 57.1599C64.572 57.2665 64.1587 57.487 63.8204 57.7999C63.7626 57.8412 63.709 57.8881 63.6604 57.9399L63.5204 58.0899C63.2164 58.4355 63.0033 58.8514 62.9004 59.2999L57.4004 81.7599C57.2886 82.1319 57.2537 82.5228 57.2979 82.9087C57.342 83.2947 57.4644 83.6676 57.6574 84.0046C57.8505 84.3417 58.1101 84.636 58.4206 84.8694C58.7311 85.1028 59.0859 85.2706 59.4633 85.3624C59.8408 85.4542 60.233 85.4682 60.616 85.4034C60.999 85.3387 61.3648 85.1966 61.6911 84.9858C62.0174 84.775 62.2973 84.5 62.5138 84.1775C62.7304 83.855 62.8789 83.4917 62.9504 83.1099L68.0304 62.2999L88.8304 57.2199C89.1942 57.1313 89.5369 56.9719 89.8391 56.7508C90.1412 56.5297 90.3969 56.2512 90.5914 55.9313C90.7859 55.6114 90.9156 55.2563 90.9729 54.8863C91.0302 54.5164 91.0141 54.1387 90.9254 53.7749C90.8368 53.4112 90.6773 53.0684 90.4562 52.7663C90.2351 52.4641 89.9567 52.2085 89.6368 52.014C89.3169 51.8194 88.9618 51.6898 88.5918 51.6325C88.2218 51.5752 87.8442 51.5913 87.4804 51.6799Z" fill="#244A54"/>
</g>
</g>
</svg>
