<svg width="222" height="85" viewBox="0 0 222 85" fill="none" xmlns="http://www.w3.org/2000/svg">
<g clip-path="url(#clip0_862_1524)">
<path d="M125.599 41.43H132.209C133.076 41.48 133.944 41.3533 134.761 41.0576C135.577 40.762 136.325 40.3035 136.959 39.71C137.491 39.1405 137.903 38.47 138.171 37.7382C138.439 37.0065 138.558 36.2283 138.519 35.45V27.22H135.819V35.45C135.861 35.9914 135.794 36.5358 135.623 37.0511C135.451 37.5663 135.178 38.0419 134.819 38.45C134.475 38.7686 134.07 39.0144 133.628 39.1725C133.187 39.3306 132.717 39.3978 132.249 39.37H125.249C124.781 39.3978 124.312 39.3306 123.87 39.1725C123.429 39.0144 123.023 38.7686 122.679 38.45C122.321 38.0419 122.048 37.5663 121.876 37.0511C121.704 36.5358 121.637 35.9914 121.679 35.45C121.675 35.1144 121.705 34.7793 121.769 34.45C121.852 34.0773 121.976 33.7151 122.139 33.37L119.899 32.8C119.7 33.2388 119.549 33.6982 119.449 34.17C119.369 34.5919 119.329 35.0205 119.329 35.45C119.291 36.2283 119.409 37.0065 119.677 37.7382C119.945 38.47 120.357 39.1405 120.889 39.71C121.52 40.2966 122.261 40.751 123.07 41.0464C123.879 41.3418 124.739 41.4722 125.599 41.43Z" fill="white"/>
<path d="M132.4 33.66H130.4C129.953 33.6758 129.51 33.565 129.122 33.3403C128.735 33.1156 128.419 32.7862 128.21 32.39C128.061 32.1441 127.972 31.8666 127.95 31.58C127.95 31.21 128.18 30.95 128.65 30.82C128.79 30.7818 128.935 30.7616 129.08 30.76C129.61 30.76 130 31.09 130.25 31.76L132.32 31.33C132.065 30.7001 131.632 30.1579 131.075 29.7692C130.518 29.3804 129.859 29.1619 129.18 29.14C128.697 29.1058 128.212 29.1707 127.754 29.3306C127.297 29.4905 126.877 29.7421 126.52 30.07C126.16 30.4219 125.945 30.8969 125.92 31.4C125.915 31.4632 125.915 31.5267 125.92 31.59C125.922 32.014 126.032 32.4305 126.24 32.8C126.384 33.1056 126.562 33.3941 126.77 33.66H125.5V35.46H132.38L132.4 33.66Z" fill="white"/>
<path d="M172.15 29.9099C172.278 30.0227 172.423 30.1139 172.58 30.1799C172.749 30.2486 172.929 30.2826 173.11 30.2799C173.289 30.2826 173.466 30.2486 173.63 30.1799C173.794 30.1141 173.945 30.023 174.08 29.9099C174.202 29.7929 174.301 29.6538 174.37 29.4999C174.443 29.3433 174.481 29.1726 174.48 28.9999C174.48 28.8241 174.442 28.6504 174.37 28.4899C174.301 28.333 174.203 28.1905 174.08 28.0699C173.948 27.9503 173.796 27.8554 173.63 27.7899C173.464 27.726 173.288 27.6922 173.11 27.6899C172.929 27.6923 172.75 27.7261 172.58 27.7899C172.421 27.8558 172.275 27.9507 172.15 28.0699C172.022 28.1875 171.92 28.3306 171.85 28.4899C171.771 28.6482 171.73 28.8229 171.73 28.9999C171.729 29.1739 171.77 29.3456 171.85 29.4999C171.92 29.6563 172.023 29.796 172.15 29.9099Z" fill="white"/>
<path d="M190.991 45.7401C191.16 45.804 191.339 45.8378 191.521 45.8401C191.702 45.8369 191.881 45.803 192.051 45.7401C192.212 45.672 192.361 45.5774 192.491 45.4601C192.612 45.3469 192.711 45.211 192.781 45.0601C192.86 44.9058 192.898 44.7335 192.891 44.5601C192.896 44.3805 192.858 44.2023 192.781 44.0401C192.708 43.8878 192.61 43.749 192.491 43.6301C192.361 43.5129 192.212 43.4183 192.051 43.3501C191.882 43.2825 191.702 43.2486 191.521 43.2501C191.339 43.2475 191.159 43.2815 190.991 43.3501C190.832 43.4184 190.687 43.5131 190.561 43.6301C190.435 43.7459 190.333 43.8852 190.261 44.0401C190.18 44.2015 190.139 44.3798 190.141 44.5601C190.139 44.7341 190.18 44.9059 190.261 45.0601C190.331 45.2135 190.433 45.35 190.561 45.4601C190.687 45.5772 190.832 45.6719 190.991 45.7401Z" fill="white"/>
<path d="M214.04 37.47C214.046 37.7405 213.994 38.0092 213.887 38.2577C213.78 38.5062 213.621 38.7287 213.42 38.91C213.272 39.0591 213.096 39.1774 212.902 39.258C212.708 39.3387 212.5 39.3802 212.29 39.38H195.16C194.866 39.3887 194.574 39.3393 194.299 39.2347C194.025 39.13 193.773 38.9721 193.56 38.77C193.119 38.3098 192.872 37.6975 192.87 37.06V31.73H190.14V36.82C190.168 37.1837 190.121 37.5493 190 37.8936C189.88 38.2379 189.689 38.5534 189.44 38.82C189.22 39.0242 188.962 39.1825 188.681 39.2856C188.399 39.3886 188.1 39.4343 187.8 39.42H176.9C176.606 39.4287 176.314 39.3793 176.039 39.2747C175.765 39.17 175.513 39.0121 175.3 38.81C174.859 38.3498 174.612 37.7375 174.61 37.1V31.73H171.9V36.82C171.927 37.1843 171.877 37.5502 171.755 37.8945C171.633 38.2387 171.44 38.5539 171.19 38.82C170.97 39.0242 170.712 39.1825 170.431 39.2856C170.149 39.3886 169.85 39.4343 169.55 39.42H152.2V32.52C152.2 31.4866 151.533 30.7066 150.2 30.18C149.227 29.7792 148.182 29.5818 147.13 29.6C146.263 29.5565 145.396 29.6871 144.58 29.9843C143.764 30.2814 143.016 30.739 142.38 31.33C141.844 31.8951 141.429 32.5633 141.159 33.2938C140.889 34.0244 140.77 34.8022 140.81 35.58C140.784 36.3374 140.915 37.0921 141.195 37.7962C141.476 38.5003 141.9 39.1384 142.44 39.67C143.061 40.2643 143.795 40.7267 144.6 41.0292C145.404 41.3317 146.262 41.468 147.12 41.43H149.32C149.246 41.8966 149.083 42.3448 148.84 42.75C148.598 43.1568 148.317 43.5387 148 43.89C147.514 44.4078 147 44.8986 146.46 45.36L148.35 46.62C148.926 46.1172 149.467 45.576 149.97 45C150.387 44.5475 150.75 44.0474 151.05 43.51C151.48 42.8683 151.788 42.1531 151.96 41.4H169.64C170.3 41.4317 170.96 41.3322 171.581 41.1073C172.203 40.8825 172.773 40.5367 173.26 40.09C174.176 40.9317 175.376 41.396 176.62 41.39H187.9C188.558 41.4203 189.216 41.3202 189.836 41.0954C190.455 40.8706 191.024 40.5255 191.51 40.08C192.428 40.924 193.633 41.3886 194.88 41.38H212.3C213.506 41.4064 214.673 40.9573 215.55 40.13C215.932 39.7894 216.237 39.3718 216.446 38.9047C216.654 38.4376 216.761 37.9315 216.76 37.42V27.22H214.05L214.04 37.47ZM149.49 39.4H147.35C146.842 39.4259 146.334 39.3508 145.855 39.1792C145.376 39.0076 144.936 38.7427 144.56 38.4C144.197 38.025 143.916 37.5792 143.734 37.0906C143.551 36.6019 143.472 36.0808 143.5 35.56C143.459 35.0185 143.526 34.4743 143.698 33.9592C143.869 33.444 144.142 32.9683 144.5 32.56C144.844 32.2413 145.249 31.9956 145.691 31.8375C146.133 31.6794 146.602 31.6122 147.07 31.64C147.698 31.632 148.322 31.7546 148.9 32C149.29 32.15 149.48 32.34 149.48 32.57L149.49 39.4Z" fill="white"/>
<path d="M221.729 27.22H219.019V40.65H221.729V27.22Z" fill="white"/>
<path d="M124.11 45.9101C123.94 45.8472 123.761 45.8134 123.58 45.8101C123.402 45.8114 123.226 45.8453 123.06 45.9101C122.897 45.9758 122.748 46.0707 122.62 46.1901C122.495 46.3103 122.393 46.4527 122.32 46.6101C122.243 46.769 122.206 46.9438 122.21 47.1201C122.202 47.2934 122.24 47.4658 122.32 47.6201C122.393 47.7744 122.495 47.9134 122.62 48.0301C122.751 48.143 122.9 48.2342 123.06 48.3001C123.224 48.3696 123.401 48.4036 123.58 48.4001C123.761 48.4016 123.941 48.3677 124.11 48.3001C124.27 48.2342 124.418 48.143 124.55 48.0301C124.675 47.9134 124.776 47.7744 124.85 47.6201C124.919 47.4627 124.953 47.292 124.95 47.1201C124.953 46.9449 124.918 46.7712 124.85 46.6101C124.777 46.4527 124.675 46.3103 124.55 46.1901C124.421 46.0707 124.272 45.9758 124.11 45.9101Z" fill="white"/>
<path d="M127.42 45.9101C127.251 45.8462 127.071 45.8124 126.89 45.8101C126.706 45.8124 126.523 45.8462 126.35 45.9101C126.188 45.9758 126.038 46.0707 125.91 46.1901C125.782 46.3077 125.68 46.4507 125.61 46.6101C125.531 46.7683 125.49 46.943 125.49 47.1201C125.488 47.294 125.53 47.4658 125.61 47.6201C125.68 47.7764 125.782 47.9162 125.91 48.0301C126.041 48.143 126.19 48.2342 126.35 48.3001C126.522 48.3687 126.705 48.4027 126.89 48.4001C127.072 48.4027 127.252 48.3687 127.42 48.3001C127.574 48.234 127.716 48.1427 127.84 48.0301C127.965 47.9158 128.064 47.7759 128.13 47.6201C128.209 47.4658 128.247 47.2934 128.24 47.1201C128.244 46.9438 128.206 46.769 128.13 46.6101C128.064 46.4512 127.965 46.308 127.84 46.1901C127.719 46.071 127.577 45.9759 127.42 45.9101Z" fill="white"/>
<path d="M137.9 57.89C137.905 58.1588 137.852 58.4256 137.745 58.6723C137.638 58.919 137.48 59.1398 137.28 59.32C137.133 59.4705 136.957 59.5903 136.763 59.6727C136.569 59.7551 136.361 59.7983 136.15 59.8H133.29C132.614 59.8511 131.945 59.6317 131.43 59.19C131.18 58.9241 130.989 58.6087 130.868 58.2642C130.747 57.9197 130.7 57.5538 130.73 57.19V52.89C130.73 51.87 130.063 51.09 128.73 50.55C127.752 50.1563 126.704 49.9625 125.65 49.98C124.782 49.9355 123.914 50.0647 123.097 50.3601C122.279 50.6554 121.529 51.111 120.89 51.7C120.343 52.2694 119.918 52.9445 119.641 53.6839C119.365 54.4233 119.242 55.2114 119.28 56C119.209 57.0311 119.439 58.0606 119.944 58.9628C120.448 59.8649 121.204 60.6006 122.12 61.08C122.909 61.5188 123.788 61.7719 124.69 61.82H125.1C125.854 61.824 126.603 61.6918 127.31 61.43C127.998 61.2097 128.627 60.8371 129.15 60.34L129.26 60.43C129.989 61.1158 130.91 61.5624 131.9 61.71V61.84H136.14C137.345 61.8723 138.513 61.4265 139.39 60.6C139.771 60.259 140.076 59.8413 140.285 59.3743C140.493 58.9073 140.601 58.4015 140.6 57.89V52.15H137.9V57.89ZM128.02 57.22C127.975 57.7559 127.776 58.2673 127.446 58.6917C127.115 59.1161 126.669 59.4352 126.16 59.61C125.842 59.7374 125.503 59.8019 125.16 59.8H124.9C124.484 59.7706 124.079 59.6548 123.71 59.46C123.122 59.1082 122.648 58.5952 122.343 57.982C122.038 57.3687 121.916 56.6808 121.99 56C121.95 55.4586 122.018 54.9147 122.189 54.3997C122.361 53.8847 122.633 53.4089 122.99 53C123.334 52.6778 123.741 52.4292 124.184 52.2693C124.628 52.1094 125.099 52.0416 125.57 52.07C126.175 52.0557 126.776 52.1611 127.34 52.38C127.72 52.54 127.92 52.73 127.92 52.95L128.02 57.22Z" fill="white"/>
<path d="M135.67 63.9999C135.538 63.8802 135.386 63.7854 135.22 63.7199C135.052 63.6504 134.872 63.6164 134.69 63.6199C134.512 63.6183 134.335 63.6523 134.17 63.7199C134.011 63.7857 133.865 63.8807 133.74 63.9999C133.612 64.1197 133.507 64.262 133.43 64.4199C133.358 64.5803 133.321 64.7541 133.32 64.9299C133.32 65.1026 133.357 65.2733 133.43 65.4299C133.507 65.5846 133.612 65.7237 133.74 65.8399C133.868 65.9526 134.013 66.0438 134.17 66.1099C134.335 66.1775 134.512 66.2115 134.69 66.2099C134.872 66.2134 135.052 66.1793 135.22 66.1099C135.383 66.044 135.535 65.9529 135.67 65.8399C135.792 65.7229 135.89 65.5837 135.96 65.4299C136.033 65.2733 136.07 65.1026 136.07 64.9299C136.069 64.7541 136.032 64.5803 135.96 64.4199C135.891 64.2629 135.792 64.1205 135.67 63.9999Z" fill="white"/>
<path d="M138.959 64C138.836 63.8786 138.69 63.7834 138.529 63.72C138.365 63.6514 138.188 63.6173 138.009 63.62C137.824 63.6174 137.641 63.6514 137.469 63.72C137.306 63.7834 137.156 63.8786 137.029 64C136.901 64.1198 136.796 64.2622 136.719 64.42C136.647 64.5805 136.61 64.7542 136.609 64.93C136.609 65.1027 136.646 65.2734 136.719 65.43C136.796 65.5848 136.901 65.7238 137.029 65.84C137.159 65.9551 137.308 66.0465 137.469 66.11C137.641 66.1787 137.824 66.2127 138.009 66.21C138.188 66.2127 138.365 66.1787 138.529 66.11C138.688 66.0464 138.833 65.9549 138.959 65.84C139.081 65.723 139.18 65.5839 139.249 65.43C139.322 65.2734 139.36 65.1027 139.359 64.93C139.359 64.7542 139.321 64.5805 139.249 64.42C139.18 64.2631 139.081 64.1206 138.959 64Z" fill="white"/>
<path d="M151.661 58.61C151.538 56.6213 151.072 54.6689 150.281 52.84C149.221 50.95 147.281 50.01 144.551 50.01V52.01C145.269 51.9552 145.987 52.1274 146.603 52.5024C147.218 52.8774 147.7 53.4363 147.981 54.1C148.521 55.5982 148.857 57.1622 148.981 58.75C149.051 59.32 149.091 59.66 149.111 59.75H145.111C144.771 59.7616 144.432 59.7107 144.111 59.6C143.69 59.3919 143.302 59.1223 142.961 58.8L141.961 61.02L142.841 61.38C143.563 61.6642 144.335 61.8035 145.111 61.79H150.791C151.117 61.7779 151.43 61.6583 151.681 61.45C151.78 61.3684 151.86 61.2661 151.915 61.1504C151.97 61.0347 152 60.9083 152.001 60.78C152.006 60.7335 152.006 60.6865 152.001 60.64C151.901 60.26 151.781 59.57 151.661 58.61Z" fill="white"/>
<path d="M213.46 57.8899C213.467 58.158 213.416 58.4245 213.31 58.6713C213.205 58.918 213.048 59.1392 212.85 59.3199C212.548 59.6244 212.138 59.797 211.71 59.7999H209.53C209.236 59.8103 208.943 59.7617 208.668 59.6569C208.393 59.5522 208.142 59.3933 207.93 59.1899C207.489 58.7298 207.241 58.1174 207.24 57.4799V52.1499H204.52V57.2299C204.546 57.5942 204.496 57.9599 204.374 58.3041C204.252 58.6482 204.06 58.9634 203.81 59.2299C203.362 59.635 202.773 59.8471 202.17 59.8199C201.876 59.8303 201.583 59.7817 201.308 59.6769C201.033 59.5722 200.782 59.4133 200.57 59.2099C200.32 58.944 200.128 58.6286 200.008 58.2841C199.887 57.9396 199.84 57.5737 199.87 57.2099V52.1499H197.16V57.2299C197.187 57.5951 197.137 57.9619 197.013 58.3065C196.889 58.6511 196.693 58.9657 196.44 59.2299C195.992 59.635 195.403 59.8471 194.8 59.8199C194.506 59.8309 194.213 59.7825 193.938 59.6777C193.663 59.5729 193.412 59.4138 193.2 59.2099C192.95 58.944 192.758 58.6286 192.638 58.2841C192.517 57.9396 192.47 57.5737 192.5 57.2099V52.1499H189.79V57.2299C189.816 57.5942 189.766 57.9599 189.644 58.3041C189.522 58.6482 189.33 58.9634 189.08 59.2299C188.627 59.6338 188.036 59.8454 187.43 59.8199H183.9C184.893 58.9137 185.591 57.7287 185.9 56.4199C186.104 55.7721 186.215 55.0988 186.23 54.4199C186.257 53.4744 185.949 52.5496 185.36 51.8099C184.708 51.0435 183.823 50.5128 182.84 50.2999C182.167 50.1253 181.475 50.0412 180.78 50.0499H178.97C178.295 50.0452 177.623 50.1293 176.97 50.2999C175.98 50.5088 175.086 51.0397 174.43 51.8099C173.84 52.5496 173.532 53.4744 173.56 54.4199C173.575 55.0988 173.686 55.7721 173.89 56.4199C174.194 57.711 174.869 58.8855 175.83 59.7999H166.08V52.9299C166.08 51.9099 165.413 51.1299 164.08 50.5899C163.101 50.1962 162.054 50.0024 161 50.0199C160.133 49.9745 159.266 50.1033 158.451 50.3987C157.635 50.6942 156.886 51.1502 156.25 51.7399C155.701 52.3011 155.273 52.9683 154.991 53.7008C154.709 54.4333 154.579 55.2156 154.61 55.9999C154.581 56.7561 154.711 57.51 154.992 58.2128C155.273 58.9156 155.698 59.5517 156.24 60.0799C156.856 60.6741 157.588 61.1366 158.389 61.4392C159.19 61.7418 160.044 61.8781 160.9 61.8399H163.11C163.039 62.3074 162.876 62.7561 162.63 63.1599C162.388 63.5667 162.107 63.9486 161.79 64.2999C161.304 64.8215 160.79 65.3156 160.25 65.7799L162.15 66.9999C162.73 66.5016 163.277 65.9672 163.79 65.3999C164.21 64.9756 164.583 64.5061 164.9 63.9999C165.33 63.3546 165.638 62.6361 165.81 61.8799H187.5C188.853 61.944 190.176 61.4693 191.18 60.5599C191.669 61.0121 192.245 61.3618 192.871 61.5885C193.498 61.8152 194.164 61.9143 194.83 61.8799C196.196 61.9503 197.534 61.4755 198.55 60.5599C199.039 61.0121 199.615 61.3618 200.241 61.5885C200.868 61.8152 201.534 61.9143 202.2 61.8799C202.876 61.91 203.551 61.8053 204.186 61.5718C204.822 61.3383 205.404 60.9807 205.9 60.5199C206.386 60.9684 206.956 61.316 207.578 61.5426C208.199 61.7692 208.859 61.8702 209.52 61.8399H211.73C212.935 61.8733 214.103 61.4274 214.98 60.5999C215.362 60.2601 215.668 59.8427 215.877 59.3754C216.086 58.9081 216.192 58.4016 216.19 57.8899V47.6299H213.48L213.46 57.8899ZM163.31 59.8099H161.17C160.662 59.8369 160.153 59.7624 159.674 59.5907C159.195 59.419 158.755 59.1536 158.38 58.8099C158.021 58.4384 157.742 57.9976 157.56 57.5144C157.377 57.0311 157.296 56.5158 157.32 55.9999C157.278 55.4584 157.345 54.914 157.517 54.3988C157.688 53.8836 157.961 53.4079 158.32 52.9999C158.662 52.678 159.067 52.4295 159.509 52.2695C159.951 52.1096 160.421 52.0417 160.89 52.0699C161.494 52.0556 162.096 52.1609 162.66 52.3799C163.05 52.5399 163.24 52.7299 163.24 52.9499L163.31 59.8099ZM183.25 55.9999C182.9 57.2396 182.156 58.3314 181.13 59.1099C180.743 59.4064 180.315 59.6455 179.86 59.8199C179.408 59.6455 178.983 59.4064 178.6 59.1099C177.568 58.3372 176.822 57.2431 176.48 55.9999C176.323 55.4739 176.239 54.9288 176.23 54.3799C176.199 53.8256 176.362 53.2778 176.69 52.8299C176.98 52.5047 177.365 52.2777 177.79 52.1799C178.169 52.086 178.559 52.0423 178.95 52.0499H180.76C181.154 52.0429 181.547 52.0866 181.93 52.1799C182.355 52.2777 182.739 52.5047 183.03 52.8299C183.361 53.2769 183.527 53.8245 183.5 54.3799C183.486 54.9284 183.402 55.4728 183.25 55.9999Z" fill="white"/>
<path d="M221.501 47.6299H218.791V61.0599H221.501V47.6299Z" fill="white"/>
<path d="M119.58 82.3599L120.68 81.7399C121.46 83.0899 122.36 83.7399 123.38 83.7399C123.806 83.7446 124.228 83.6487 124.61 83.4599C124.97 83.2859 125.274 83.0159 125.49 82.6799C125.682 82.3814 125.786 82.0348 125.79 81.6799C125.781 81.2391 125.626 80.8137 125.35 80.4699C124.708 79.6987 123.956 79.025 123.12 78.4699C122.391 77.9886 121.72 77.4249 121.12 76.7899C120.682 76.2608 120.438 75.5971 120.43 74.9099C120.422 74.3938 120.565 73.8865 120.84 73.4499C121.124 73.0204 121.517 72.675 121.98 72.4499C122.479 72.1964 123.031 72.0661 123.59 72.0699C124.19 72.0697 124.781 72.2174 125.31 72.4999C125.972 72.9095 126.547 73.4465 127 74.0799L125.94 74.8399C125.597 74.3666 125.174 73.9571 124.69 73.6299C124.344 73.4386 123.955 73.3387 123.56 73.3399C123.089 73.3228 122.628 73.4834 122.27 73.7899C122.111 73.9276 121.984 74.0982 121.898 74.2899C121.812 74.4816 121.768 74.6897 121.77 74.8999C121.77 75.1702 121.832 75.4369 121.95 75.6799C122.115 75.9905 122.335 76.2684 122.6 76.4999C122.77 76.6499 123.33 77.0599 124.28 77.7199C125.166 78.2846 125.95 78.9945 126.6 79.8199C126.995 80.3536 127.215 80.9963 127.23 81.6599C127.232 82.1081 127.133 82.5509 126.941 82.9559C126.749 83.3608 126.468 83.7176 126.12 83.9999C125.41 84.6614 124.47 85.0201 123.5 84.9999C122.741 85.008 121.995 84.7999 121.35 84.3999C120.606 83.8879 119.998 83.2012 119.58 82.3999" fill="white"/>
<path d="M134.39 76.4599C133.723 76.4539 133.066 76.6192 132.48 76.9399C131.9 77.2542 131.416 77.721 131.08 78.2899C130.747 78.8421 130.57 79.4749 130.57 80.1199C130.57 80.7664 130.75 81.4001 131.09 81.9499C131.425 82.5247 131.909 82.9981 132.49 83.3199C133.069 83.6405 133.719 83.8091 134.38 83.8099C135.054 83.8077 135.717 83.6394 136.31 83.3199C136.889 83.0204 137.373 82.5671 137.71 82.0099C138.038 81.4451 138.207 80.8027 138.2 80.1499C138.211 79.6591 138.118 79.1715 137.929 78.7186C137.739 78.2657 137.457 77.8574 137.1 77.5199C136.742 77.1721 136.317 76.8991 135.852 76.7171C135.387 76.5351 134.89 76.4477 134.39 76.4599ZM139.34 75.5699V84.6499H138.12V83.0899C137.638 83.6545 137.041 84.1111 136.37 84.4299C135.705 84.7331 134.981 84.8867 134.25 84.8799C133.604 84.8929 132.963 84.7757 132.363 84.5351C131.763 84.2946 131.218 83.9357 130.76 83.4799C130.301 83.0462 129.934 82.5231 129.684 81.9427C129.434 81.3624 129.305 80.737 129.305 80.1049C129.305 79.4729 129.434 78.8475 129.684 78.2671C129.934 77.6868 130.301 77.1637 130.76 76.7299C131.224 76.2763 131.773 75.919 132.375 75.6787C132.978 75.4384 133.622 75.3199 134.27 75.3299C135.015 75.3181 135.752 75.4826 136.42 75.8099C137.086 76.1499 137.665 76.6394 138.11 77.2399V75.5699H139.34Z" fill="white"/>
<path d="M141.97 75.5701H143.21V79.8101C143.177 80.5244 143.234 81.24 143.38 81.9401C143.545 82.4852 143.9 82.9533 144.38 83.2601C144.917 83.5747 145.528 83.7406 146.15 83.7406C146.772 83.7406 147.383 83.5747 147.92 83.2601C148.378 82.9607 148.723 82.5173 148.9 82.0001C149.062 81.2685 149.126 80.5185 149.09 79.7701V75.5701H150.35V80.0001C150.404 80.9656 150.247 81.9313 149.89 82.8301C149.587 83.4582 149.098 83.9783 148.49 84.3201C147.772 84.7041 146.964 84.8904 146.15 84.8601C145.333 84.8889 144.523 84.7027 143.8 84.3201C143.186 83.9778 142.694 83.4538 142.39 82.8201C142.033 81.8968 141.877 80.9084 141.93 79.9201L141.97 75.5701Z" fill="white"/>
<path d="M157.8 76.4601C157.136 76.4553 156.482 76.6205 155.9 76.9401C155.319 77.2543 154.835 77.7211 154.5 78.2901C154.163 78.843 153.985 79.4778 153.985 80.1251C153.985 80.7723 154.163 81.4071 154.5 81.9601C154.837 82.5296 155.321 82.999 155.9 83.3201C156.477 83.6427 157.128 83.8114 157.79 83.8101C158.461 83.8103 159.121 83.6418 159.71 83.3201C160.292 83.0263 160.778 82.5716 161.11 82.0101C161.445 81.448 161.618 80.8043 161.61 80.1501C161.62 79.6582 161.527 79.1696 161.336 78.7164C161.145 78.2631 160.86 77.8554 160.5 77.5201C160.142 77.1708 159.718 76.897 159.252 76.7149C158.787 76.5328 158.289 76.4461 157.79 76.4601M162.79 72.0601V84.6501H161.57V83.0901C161.085 83.6525 160.489 84.1087 159.82 84.4301C159.154 84.7333 158.431 84.8869 157.7 84.8801C157.054 84.8942 156.411 84.7774 155.811 84.5368C155.212 84.2963 154.667 83.9368 154.21 83.4801C153.75 83.0463 153.384 82.5232 153.133 81.9429C152.883 81.3625 152.754 80.7371 152.754 80.1051C152.754 79.473 152.883 78.8476 153.133 78.2673C153.384 77.6869 153.75 77.1638 154.21 76.7301C154.673 76.2755 155.221 75.9177 155.824 75.6773C156.427 75.437 157.071 75.3189 157.72 75.3301C158.464 75.3194 159.2 75.4838 159.87 75.8101C160.536 76.1501 161.114 76.6395 161.56 77.2401V72.0601H162.79Z" fill="white"/>
<path d="M165.38 75.5699H166.62V84.6499H165.38V75.5699ZM165.99 71.8299C166.123 71.8265 166.255 71.8495 166.379 71.8976C166.502 71.9457 166.615 72.0178 166.71 72.1099C166.806 72.1973 166.882 72.3039 166.934 72.4228C166.986 72.5418 167.012 72.6703 167.01 72.7999C167.011 72.9265 166.984 73.0518 166.933 73.1673C166.881 73.2828 166.805 73.386 166.71 73.4699C166.617 73.5652 166.506 73.6408 166.383 73.6925C166.26 73.7442 166.129 73.7708 165.995 73.7708C165.862 73.7708 165.73 73.7442 165.608 73.6925C165.485 73.6408 165.374 73.5652 165.28 73.4699C165.186 73.386 165.11 73.2828 165.058 73.1673C165.006 73.0518 164.98 72.9265 164.98 72.7999C164.979 72.6703 165.005 72.5418 165.057 72.4228C165.108 72.3039 165.185 72.1973 165.28 72.1099C165.471 71.9264 165.726 71.8257 165.99 71.8299Z" fill="white"/>
<path d="M175.719 78.74V83.45H177.339C178.046 83.4853 178.754 83.3939 179.429 83.18C179.858 83.0165 180.23 82.7316 180.499 82.36C180.761 82.0111 180.901 81.5862 180.899 81.15C180.903 80.8858 180.855 80.6234 180.757 80.378C180.659 80.1325 180.514 79.9089 180.329 79.72C179.907 79.2899 179.362 79.0002 178.769 78.89C178.006 78.7657 177.232 78.7154 176.459 78.74H175.719ZM175.719 73.57V77.5H176.469C177.144 77.5344 177.82 77.4567 178.469 77.27C178.871 77.1279 179.22 76.8662 179.469 76.52C179.714 76.1901 179.847 75.7908 179.849 75.38C179.861 75.1237 179.809 74.8685 179.7 74.6366C179.59 74.4048 179.425 74.2033 179.219 74.05C178.621 73.679 177.92 73.5107 177.219 73.57H175.719ZM174.449 72.37H177.019C177.827 72.3366 178.635 72.4553 179.399 72.72C179.932 72.9338 180.389 73.3031 180.709 73.78C181.028 74.2523 181.195 74.8103 181.189 75.38C181.194 75.9065 181.048 76.4233 180.769 76.87C180.469 77.3545 180.039 77.7458 179.529 78C180.09 78.1635 180.618 78.4241 181.089 78.77C181.452 79.0582 181.744 79.4247 181.945 79.842C182.146 80.2594 182.25 80.7168 182.249 81.18C182.251 81.6554 182.149 82.1254 181.951 82.5573C181.752 82.9891 181.461 83.3723 181.099 83.68C180.234 84.3883 179.135 84.7453 178.019 84.68H174.449V72.37Z" fill="white"/>
<path d="M189.26 76.46C188.593 76.4539 187.935 76.6192 187.35 76.94C186.772 77.2545 186.291 77.7214 185.96 78.29C185.62 78.8398 185.44 79.4735 185.44 80.12C185.44 80.7664 185.62 81.4001 185.96 81.95C186.297 82.5226 186.78 82.9954 187.36 83.32C187.938 83.6405 188.589 83.8091 189.25 83.81C189.924 83.8077 190.587 83.6394 191.18 83.32C191.76 83.023 192.245 82.5691 192.58 82.01C192.985 81.2984 193.145 80.4732 193.035 79.6617C192.925 78.8503 192.55 78.0976 191.97 77.52C191.612 77.1712 191.188 76.8977 190.722 76.7156C190.257 76.5335 189.76 76.4466 189.26 76.46ZM194.21 75.57V84.65H192.99V83.09C192.507 83.6545 191.911 84.1111 191.24 84.43C190.575 84.735 189.851 84.8887 189.12 84.88C188.474 84.8924 187.832 84.7748 187.233 84.5343C186.633 84.2938 186.088 83.9353 185.63 83.48C185.164 83.0458 184.795 82.519 184.545 81.9335C184.295 81.3479 184.171 80.7165 184.18 80.08C184.175 79.4504 184.302 78.8268 184.554 78.2497C184.805 77.6726 185.175 77.1548 185.64 76.73C186.105 76.276 186.656 75.9186 187.26 75.6784C187.864 75.4381 188.51 75.3197 189.16 75.33C189.901 75.3193 190.634 75.4838 191.3 75.81C191.968 76.1472 192.547 76.6371 192.99 77.24V75.57H194.21Z" fill="white"/>
<path d="M197 75.5699H198.24V77.1999C198.684 76.6173 199.251 76.1393 199.9 75.7999C200.519 75.4828 201.205 75.3215 201.9 75.3299C202.576 75.3211 203.241 75.5012 203.82 75.8499C204.359 76.1847 204.788 76.6719 205.05 77.2499C205.366 78.1202 205.502 79.0455 205.45 79.9699V84.6499H204.21V80.3199C204.236 79.6169 204.189 78.9132 204.07 78.2199C203.968 77.6859 203.677 77.2066 203.25 76.8699C202.783 76.5433 202.22 76.3815 201.65 76.4099C200.922 76.4036 200.215 76.6511 199.65 77.1099C199.079 77.5447 198.667 78.1566 198.48 78.8499C198.329 79.664 198.268 80.4924 198.3 81.3199V84.6499H197V75.5699Z" fill="white"/>
<path d="M208.051 72.0601H209.281V79.2301L213.751 75.5701H215.571L210.281 79.9001L215.881 84.6501H214.131L209.281 80.5601V84.6501H208.051V72.0601Z" fill="white"/>
<path d="M221.991 76.5599L221.201 77.3399C220.677 76.7887 219.96 76.4624 219.201 76.4299C218.834 76.4285 218.478 76.5599 218.201 76.8C218.068 76.9055 217.961 77.0392 217.886 77.1914C217.812 77.3436 217.772 77.5105 217.771 77.6799C217.779 77.9936 217.904 78.2928 218.121 78.5199C218.551 78.9431 219.056 79.2822 219.611 79.5199C220.321 79.8181 220.961 80.2609 221.491 80.8199C221.812 81.2266 221.985 81.7313 221.981 82.2499C221.985 82.6074 221.913 82.9617 221.77 83.2893C221.627 83.6168 221.416 83.9102 221.151 84.15C220.581 84.6629 219.837 84.9384 219.071 84.9199C218.522 84.9239 217.979 84.8079 217.481 84.58C216.993 84.3687 216.562 84.0469 216.221 83.6399L217.001 82.8C217.244 83.0984 217.549 83.3418 217.893 83.5141C218.238 83.6865 218.616 83.7839 219.001 83.8C219.465 83.812 219.917 83.6517 220.271 83.3499C220.433 83.2247 220.565 83.0643 220.657 82.8807C220.749 82.6971 220.798 82.4952 220.801 82.29C220.799 81.96 220.674 81.6424 220.451 81.4C219.991 80.9805 219.464 80.6423 218.891 80.4C218.214 80.1172 217.606 79.6907 217.111 79.15C216.801 78.7456 216.635 78.2493 216.641 77.7399C216.634 77.4161 216.697 77.0946 216.827 76.7976C216.956 76.5007 217.149 76.2354 217.391 76.0199C217.91 75.5517 218.592 75.3042 219.291 75.33C220.304 75.3862 221.259 75.8259 221.961 76.5599" fill="white"/>
<path d="M8.64079 22.3999L3.79079 17.4699C3.29882 16.9699 3.02559 16.2951 3.03121 15.5937C3.03684 14.8923 3.32086 14.2219 3.82079 13.7299C4.32073 13.2379 4.99562 12.9647 5.69701 12.9703C6.39839 12.9759 7.06882 13.2599 7.56079 13.7599L12.4108 18.6899C12.9028 19.1898 13.176 19.8647 13.1704 20.5661C13.1647 21.2675 12.8807 21.9379 12.3808 22.4299C11.8809 22.9219 11.206 23.1951 10.5046 23.1895C9.80319 23.1838 9.13277 22.8998 8.64079 22.3999Z" fill="white"/>
<path d="M44.6401 9.75999L39.1201 4.54999C38.8699 4.30968 38.6695 4.02244 38.5303 3.70467C38.3912 3.38691 38.316 3.04485 38.309 2.69803C38.302 2.3512 38.3635 2.0064 38.4897 1.68331C38.616 1.36022 38.8047 1.06516 39.045 0.814994C39.2854 0.564826 39.5726 0.364442 39.8904 0.225283C40.2081 0.0861236 40.5502 0.0109148 40.897 0.00395041C41.2438 -0.00301398 41.5886 0.0584024 41.9117 0.184693C42.2348 0.310984 42.5299 0.499675 42.7801 0.739994L48.3001 5.99999C48.8053 6.48534 49.097 7.15151 49.1111 7.85196C49.1252 8.55241 48.8604 9.22976 48.375 9.73499C47.8897 10.2402 47.2235 10.532 46.5231 10.546C45.8226 10.5601 45.1453 10.2953 44.6401 9.80999" fill="white"/>
<path d="M37.6594 76.2399L43.6594 51.5099C43.7078 51.2899 43.7313 51.0652 43.7294 50.8399C43.7446 50.4499 43.6787 50.061 43.5358 49.6978C43.393 49.3346 43.1763 49.0051 42.8994 48.7299L20.3094 26.2099C19.7612 25.7824 19.0755 25.5701 18.3816 25.6128C17.6876 25.6556 17.0333 25.9506 16.5417 26.4422C16.05 26.9338 15.7551 27.5882 15.7123 28.2821C15.6695 28.976 15.8819 29.6617 16.3094 30.2099L37.8094 51.6099L32.1094 74.8899C31.9976 75.2619 31.9627 75.6528 32.0069 76.0387C32.0511 76.4247 32.1734 76.7976 32.3664 77.1346C32.5595 77.4717 32.8191 77.766 33.1296 77.9994C33.4401 78.2328 33.7949 78.4006 34.1723 78.4924C34.5498 78.5842 34.942 78.5982 35.325 78.5334C35.708 78.4687 36.0738 78.3266 36.4001 78.1158C36.7264 77.905 37.0064 77.63 37.2229 77.3075C37.4394 76.985 37.5879 76.6217 37.6594 76.2399Z" fill="white"/>
<path d="M46.6891 81.61C46.3518 81.5248 46.0346 81.3738 45.7558 81.1657C45.477 80.9575 45.2421 80.6963 45.0646 80.3971C44.8871 80.0978 44.7705 79.7665 44.7215 79.422C44.6725 79.0776 44.6921 78.7268 44.7791 78.39L52.4791 48.3C52.6101 47.8134 52.8695 47.3711 53.2302 47.0192C53.5908 46.6673 54.0395 46.4189 54.5291 46.3L100.359 35.1C101.039 34.9342 101.758 35.0455 102.356 35.4093C102.954 35.7731 103.383 36.3597 103.549 37.04C103.715 37.7202 103.604 38.4385 103.24 39.0367C102.876 39.635 102.289 40.0642 101.609 40.23L57.2291 51.05L49.8991 79.7C49.8139 80.0362 49.6632 80.3524 49.4558 80.6304C49.2483 80.9084 48.988 81.1428 48.6899 81.3202C48.3918 81.4976 48.0617 81.6145 47.7183 81.6642C47.375 81.7139 47.0253 81.6955 46.6891 81.61Z" fill="white"/>
<path d="M45.4692 43.4701L26.9592 25.0601C26.4619 24.5655 26.1815 23.8936 26.1796 23.1922C26.1786 22.8449 26.2461 22.5008 26.3782 22.1796C26.5102 21.8584 26.7042 21.5663 26.9492 21.3201C27.1941 21.0739 27.4851 20.8783 27.8056 20.7445C28.1261 20.6108 28.4698 20.5415 28.8171 20.5405C29.5185 20.5387 30.1919 20.8155 30.6892 21.3101L49.1992 39.7201C49.6964 40.2147 49.9769 40.8867 49.9787 41.588C49.9806 42.2894 49.7038 42.9628 49.2092 43.4601C48.7145 43.9574 48.0426 44.2378 47.3412 44.2397C46.6398 44.2416 45.9664 43.9647 45.4692 43.4701Z" fill="white"/>
<path d="M19.0295 17.1701L8.12946 6.32013C7.63351 5.8202 7.35646 5.14372 7.35927 4.43952C7.36209 3.73532 7.64453 3.06108 8.14446 2.56513C8.64439 2.06917 9.32087 1.79213 10.0251 1.79494C10.7293 1.79776 11.4035 2.0802 11.8995 2.58013L22.7995 13.4201C23.2967 13.9134 23.5777 14.5841 23.5805 15.2845C23.5833 15.985 23.3078 16.6578 22.8145 17.1551C22.3212 17.6524 21.6505 17.9334 20.9501 17.9362C20.2496 17.939 19.5767 17.6634 19.0795 17.1701" fill="white"/>
<path d="M11.6 40.3499L1.63004 29.9999C1.14602 29.4934 0.883059 28.8153 0.899 28.1148C0.914941 27.4144 1.20848 26.749 1.71504 26.2649C2.22161 25.7809 2.8997 25.5179 3.60015 25.5339C4.3006 25.5498 4.96602 25.8434 5.45004 26.3499L15.45 36.6799C15.7154 36.9254 15.9277 37.2225 16.0739 37.5531C16.2202 37.8836 16.2973 38.2406 16.3004 38.602C16.3036 38.9635 16.2328 39.3217 16.0923 39.6548C15.9519 39.9878 15.7448 40.2887 15.4839 40.5387C15.2229 40.7888 14.9135 40.9828 14.5747 41.1089C14.236 41.2349 13.875 41.2903 13.514 41.2717C13.153 41.2531 12.7997 41.1608 12.4757 41.0006C12.1517 40.8403 11.8639 40.6155 11.63 40.3399" fill="white"/>
<path d="M73.1695 66.86C73.0439 67.0462 72.9431 67.2479 72.8695 67.46L71.2895 73.23C71.0732 73.9356 71.1381 74.6975 71.4705 75.3564C71.8029 76.0152 72.3771 76.5201 73.0731 76.7655C73.7691 77.0108 74.533 76.9776 75.2051 76.6728C75.8772 76.368 76.4055 75.8153 76.6795 75.13L77.7395 70.81L84.2695 69.43C84.6359 69.3526 84.9834 69.2037 85.2923 68.9919C85.6011 68.7801 85.8652 68.5095 86.0695 68.1957C86.2738 67.8818 86.4143 67.5308 86.4829 67.1626C86.5515 66.7945 86.547 66.4164 86.4695 66.05C86.392 65.6836 86.2431 65.3361 86.0313 65.0273C85.8196 64.7184 85.549 64.4543 85.2351 64.25C84.9213 64.0457 84.5702 63.9053 84.2021 63.8366C83.834 63.768 83.4559 63.7726 83.0895 63.85L75.0195 65.54C74.6377 65.6231 74.2768 65.7829 73.9588 66.0098C73.6407 66.2368 73.3722 66.526 73.1695 66.86Z" fill="white"/>
<path d="M59.9 24.7701C60.1259 24.7725 60.3511 24.7456 60.57 24.6901L70.39 22.3801C70.7538 22.2915 71.0965 22.132 71.3987 21.9109C71.7008 21.6898 71.9565 21.4114 72.151 21.0915C72.3455 20.7716 72.4752 20.4165 72.5325 20.0465C72.5898 19.6765 72.5737 19.2989 72.485 18.9351C72.3964 18.5713 72.237 18.2286 72.0159 17.9265C71.7948 17.6243 71.5163 17.3687 71.1964 17.1741C70.8765 16.9796 70.5214 16.85 70.1514 16.7926C69.7814 16.7353 69.4038 16.7515 69.04 16.8401L60.7 18.7801L55.99 14.0701C55.4392 13.6628 54.7604 13.4668 54.0772 13.5177C53.394 13.5686 52.7518 13.863 52.2674 14.3474C51.7829 14.8319 51.4885 15.4741 51.4376 16.1573C51.3867 16.8405 51.5827 17.5192 51.99 18.0701L57.82 23.9001C58.0981 24.1757 58.4296 24.3916 58.7942 24.5343C59.1588 24.677 59.5487 24.7437 59.94 24.7301" fill="white"/>
<path d="M30.801 52.1499C30.6851 51.955 30.5476 51.7738 30.391 51.6099L23.271 44.4599C23.0057 44.1911 22.6897 43.9777 22.3412 43.8321C21.9928 43.6865 21.6189 43.6117 21.2412 43.6118C20.8636 43.612 20.4898 43.6872 20.1415 43.8331C19.7931 43.979 19.4773 44.1926 19.2123 44.4616C18.9472 44.7306 18.7383 45.0496 18.5976 45.4001C18.4569 45.7505 18.3873 46.1254 18.3928 46.503C18.3982 46.8806 18.4787 47.2534 18.6294 47.5996C18.7802 47.9458 18.9983 48.2587 19.271 48.5199L25.271 54.5999L23.7309 61.0799C23.6443 61.4456 23.6305 61.8248 23.6904 62.1959C23.7503 62.567 23.8826 62.9226 24.08 63.2425C24.2773 63.5624 24.5357 63.8403 24.8404 64.0603C25.1451 64.2804 25.4902 64.4382 25.8559 64.5249C26.2217 64.6116 26.6009 64.6253 26.972 64.5655C27.343 64.5056 27.6987 64.3732 28.0186 64.1759C28.3384 63.9785 28.6164 63.7201 28.8364 63.4154C29.0564 63.1107 29.2143 62.7656 29.301 62.3999L31.2109 54.3999C31.3025 54.0202 31.3133 53.6255 31.2427 53.2414C31.1721 52.8572 31.0216 52.4922 30.801 52.1699" fill="white"/>
<path d="M56.1793 37.4799C56.4045 37.4814 56.6292 37.4579 56.8493 37.4099L81.5793 31.4099C81.9611 31.3384 82.3243 31.1899 82.6468 30.9733C82.9693 30.7568 83.2444 30.4769 83.4551 30.1506C83.6659 29.8243 83.808 29.4585 83.8727 29.0755C83.9375 28.6925 83.9235 28.3003 83.8317 27.9228C83.7399 27.5454 83.5722 27.1906 83.3387 26.8801C83.1053 26.5696 82.8111 26.3099 82.474 26.1169C82.1369 25.9239 81.764 25.8015 81.3781 25.7574C80.9921 25.7132 80.6013 25.7481 80.2293 25.8599L56.9893 31.4999L29.8993 4.42991C29.351 4.00239 28.6654 3.79002 27.9714 3.83279C27.2775 3.87557 26.6231 4.17052 26.1315 4.66214C25.6399 5.15376 25.3449 5.80813 25.3022 6.50206C25.2594 7.196 25.4717 7.88164 25.8993 8.42991L54.0693 36.6499C54.3444 36.9267 54.674 37.1434 55.0372 37.2863C55.4004 37.4292 55.7893 37.4951 56.1793 37.4799Z" fill="white"/>
<path d="M87.4803 51.1599L65.0203 56.6399C64.5719 56.7465 64.1586 56.9669 63.8203 57.2799C63.7624 57.3212 63.7088 57.3681 63.6603 57.4199L63.5203 57.5699C63.2163 57.9155 63.0032 58.3313 62.9003 58.7799L57.4003 81.2399C57.2884 81.6119 57.2536 82.0028 57.2977 82.3887C57.3419 82.7747 57.4643 83.1475 57.6573 83.4846C57.8503 83.8217 58.11 84.1159 58.4205 84.3494C58.731 84.5828 59.0858 84.7505 59.4632 84.8424C59.8407 84.9342 60.2328 84.9481 60.6159 84.8834C60.9989 84.8186 61.3647 84.6766 61.691 84.4658C62.0173 84.255 62.2972 83.98 62.5137 83.6575C62.7302 83.335 62.8788 82.9717 62.9503 82.5899L68.0303 61.7799L88.8303 56.6999C89.1941 56.6113 89.5368 56.4519 89.8389 56.2308C90.1411 56.0096 90.3967 55.7312 90.5913 55.4113C90.7858 55.0914 90.9154 54.7363 90.9727 54.3663C91.0301 53.9963 91.0139 53.6187 90.9253 53.2549C90.8367 52.8912 90.6772 52.5484 90.4561 52.2463C90.235 51.9441 89.9566 51.6885 89.6367 51.4939C89.3168 51.2994 88.9617 51.1698 88.5917 51.1125C88.2217 51.0551 87.8441 51.0713 87.4803 51.1599Z" fill="white"/>
</g>
<defs>
<clipPath id="clip0_862_1524">
<rect width="221.1" height="84.96" fill="white" transform="translate(0.900024)"/>
</clipPath>
</defs>
</svg>
