<svg width="48" height="48" viewBox="0 0 48 48" fill="none" xmlns="http://www.w3.org/2000/svg">
<path d="M41.1583 28.4379L38.0239 27.486V19.1304C38.0239 18.8094 37.8772 18.5058 37.6252 18.3069C37.3735 18.1077 37.0444 18.0345 36.7318 18.1086L34.9918 18.5208C35.0827 17.6925 35.1319 16.8534 35.1319 16.0122C35.1319 15.3321 35.1004 14.6787 35.0413 14.0496H35.2192C35.2198 14.0496 35.2204 14.0497 35.221 14.0497C35.2216 14.0498 35.2222 14.0499 35.2228 14.0499L35.2264 14.0496H39.7594C40.3393 14.0496 40.8094 13.5795 40.8094 12.9996C40.8094 12.4197 40.3393 11.9496 39.7594 11.9496H35.9782L33.3604 4.1361C32.7226 2.232 30.6997 1.1253 28.7509 1.6185L24.0181 2.8155L19.2853 1.6185C17.3374 1.1256 15.3133 2.232 14.6755 4.1361L12.0577 11.9496H8.24048C7.66058 11.9496 7.19048 12.4197 7.19048 12.9996C7.19048 13.5795 7.66058 14.0496 8.24048 14.0496H12.9589C12.8998 14.6787 12.8683 15.3321 12.8683 16.0122C12.8683 16.8534 12.9178 17.6925 13.0084 18.5208L11.2681 18.1086C10.9555 18.0342 10.6267 18.1077 10.3747 18.3069C10.123 18.5061 9.97598 18.8094 9.97598 19.1304V27.486L6.84158 28.4379C4.07438 29.2782 2.21558 31.7856 2.21558 34.6776V45.45C2.21558 46.0299 2.68568 46.5 3.26558 46.5H44.7346C45.3145 46.5 45.7846 46.0299 45.7846 45.45V34.6776C45.7846 31.7859 43.9255 29.2785 41.1583 28.4379ZM43.6846 44.4H4.31558V34.6776C4.31558 32.7171 5.57588 31.017 7.45208 30.447L11.3314 29.2689C11.7739 29.1348 12.0763 28.7265 12.0763 28.2642V20.4582L16.2202 21.4395C16.7845 21.5739 17.3503 21.2241 17.4838 20.6598C17.6173 20.0955 17.2684 19.5297 16.7041 19.3962L15.1891 19.0374C15.0454 18.048 14.9683 17.0328 14.9683 16.0125C14.9683 15.3255 15.0034 14.6724 15.0694 14.0499H32.9308C32.9968 14.6724 33.0319 15.3255 33.0319 16.0125C33.0319 17.0331 32.9551 18.048 32.8111 19.0374L31.2961 19.3962C30.7318 19.5297 30.3826 20.0958 30.5161 20.6598C30.6499 21.2241 31.2151 21.5739 31.78 21.4395L35.9239 20.4582V28.2645C35.9239 28.7268 36.2263 29.1348 36.6688 29.2692L40.5481 30.4473C42.4243 31.017 43.6846 32.7171 43.6846 34.6779V44.4ZM18.7708 3.65429C18.7708 3.65429 23.6677 4.9818 23.8867 4.9818H24.1501C24.3688 4.9818 29.2663 3.65429 29.2663 3.65429C30.1546 3.43019 31.0783 3.93389 31.3699 4.80329L33.7642 11.9496H14.2726L16.6669 4.80329C16.9582 3.93449 17.8822 3.43019 18.7708 3.65429Z" fill="white"/>
<path d="M41.1583 28.4379L38.0239 27.486V19.1304C38.0239 18.8094 37.8772 18.5058 37.6252 18.3069C37.3735 18.1077 37.0444 18.0345 36.7318 18.1086L34.9918 18.5208C35.0827 17.6925 35.1319 16.8534 35.1319 16.0122C35.1319 15.3321 35.1004 14.6787 35.0413 14.0496H35.2192C35.2198 14.0496 35.2204 14.0497 35.221 14.0497C35.2216 14.0498 35.2222 14.0499 35.2228 14.0499L35.2264 14.0496H39.7594C40.3393 14.0496 40.8094 13.5795 40.8094 12.9996C40.8094 12.4197 40.3393 11.9496 39.7594 11.9496H35.9782L33.3604 4.1361C32.7226 2.232 30.6997 1.1253 28.7509 1.6185L24.0181 2.8155L19.2853 1.6185C17.3374 1.1256 15.3133 2.232 14.6755 4.1361L12.0577 11.9496H8.24048C7.66058 11.9496 7.19048 12.4197 7.19048 12.9996C7.19048 13.5795 7.66058 14.0496 8.24048 14.0496H12.9589C12.8998 14.6787 12.8683 15.3321 12.8683 16.0122C12.8683 16.8534 12.9178 17.6925 13.0084 18.5208L11.2681 18.1086C10.9555 18.0342 10.6267 18.1077 10.3747 18.3069C10.123 18.5061 9.97598 18.8094 9.97598 19.1304V27.486L6.84158 28.4379C4.07438 29.2782 2.21558 31.7856 2.21558 34.6776V45.45C2.21558 46.0299 2.68568 46.5 3.26558 46.5H44.7346C45.3145 46.5 45.7846 46.0299 45.7846 45.45V34.6776C45.7846 31.7859 43.9255 29.2785 41.1583 28.4379ZM43.6846 44.4H4.31558V34.6776C4.31558 32.7171 5.57588 31.017 7.45208 30.447L11.3314 29.2689C11.7739 29.1348 12.0763 28.7265 12.0763 28.2642V20.4582L16.2202 21.4395C16.7845 21.5739 17.3503 21.2241 17.4838 20.6598C17.6173 20.0955 17.2684 19.5297 16.7041 19.3962L15.1891 19.0374C15.0454 18.048 14.9683 17.0328 14.9683 16.0125C14.9683 15.3255 15.0034 14.6724 15.0694 14.0499H32.9308C32.9968 14.6724 33.0319 15.3255 33.0319 16.0125C33.0319 17.0331 32.9551 18.048 32.8111 19.0374L31.2961 19.3962C30.7318 19.5297 30.3826 20.0958 30.5161 20.6598C30.6499 21.2241 31.2151 21.5739 31.78 21.4395L35.9239 20.4582V28.2645C35.9239 28.7268 36.2263 29.1348 36.6688 29.2692L40.5481 30.4473C42.4243 31.017 43.6846 32.7171 43.6846 34.6779V44.4ZM18.7708 3.65429C18.7708 3.65429 23.6677 4.9818 23.8867 4.9818H24.1501C24.3688 4.9818 29.2663 3.65429 29.2663 3.65429C30.1546 3.43019 31.0783 3.93389 31.3699 4.80329L33.7642 11.9496H14.2726L16.6669 4.80329C16.9582 3.93449 17.8822 3.43019 18.7708 3.65429Z" stroke="white"/>
<path d="M31.7208 31.4997C31.3038 31.2555 31.0686 30.7869 31.1217 30.3066L31.2792 28.8771C31.5081 26.802 30.8403 24.72 29.4474 23.1648C28.0545 21.6096 26.0583 20.718 23.9706 20.718C20.6268 20.718 17.7009 22.9776 16.8558 26.2131L16.5807 27.2664C16.476 27.6672 16.7163 28.077 17.1171 28.1817C17.5176 28.287 17.9277 28.0464 18.0321 27.6456L18.3072 26.5923C18.9798 24.0168 21.3087 22.218 23.9706 22.218C25.6326 22.218 27.2214 22.9281 28.3305 24.1659C29.439 25.4037 29.9706 27.0609 29.7882 28.7127L29.6307 30.1425C29.5134 31.2105 30.0363 32.2509 30.9627 32.7942C31.0815 32.8638 31.2123 32.8971 31.3413 32.8971C31.5987 32.8971 31.8492 32.7645 31.989 32.5263C32.1984 32.1687 32.0784 31.7091 31.7208 31.4997Z" fill="white"/>
<path d="M31.3408 33.5973L30.3973 33.1788C29.4247 32.748 28.8277 31.7832 28.8757 30.7206L28.9864 28.2831C29.0503 26.8827 28.552 25.5531 27.5833 24.5397C26.6146 23.526 25.3093 22.968 23.9074 22.968C21.7381 22.968 19.8061 24.3465 19.0999 26.3979L18.6016 27.846C18.3967 28.4412 17.8357 28.8414 17.206 28.8414H16.6582C16.2439 28.8414 15.9082 29.1771 15.9082 29.5914C15.9082 30.0057 16.2439 30.3414 16.6582 30.3414H17.206C18.4759 30.3414 19.6066 29.5347 20.0197 28.3341L20.518 26.886C21.0157 25.44 22.3777 24.468 23.9071 24.468C24.8953 24.468 25.8157 24.8616 26.4985 25.5759C27.1813 26.2905 27.5326 27.2277 27.4879 28.215L27.3772 30.6525C27.3007 32.3373 28.2475 33.8673 29.7895 34.5501L30.733 34.9683C30.8317 35.0121 30.9349 35.0331 31.0366 35.0331C31.324 35.0331 31.5985 34.8666 31.7224 34.5867C31.8904 34.2081 31.7194 33.765 31.3408 33.5973Z" fill="white"/>
<path d="M17.5132 37.0635L21.3793 35.9562C24.0796 35.1828 26.1256 32.8929 26.5918 30.1233L26.86 28.5297C27.0004 27.6945 26.767 26.8446 26.2201 26.1981C25.6732 25.5516 24.8737 25.1805 24.0265 25.1805C22.7551 25.1805 21.6511 25.9977 21.2791 27.2133L21.0673 27.906C20.4706 29.8572 18.6988 31.1682 16.6582 31.1682C16.2439 31.1682 15.9082 31.5039 15.9082 31.9182C15.9082 32.3325 16.2439 32.6682 16.6582 32.6682C19.3627 32.6682 21.7111 30.9306 22.5016 28.3446L22.7134 27.6519C22.891 27.0708 23.4187 26.6805 24.0265 26.6805C24.4312 26.6805 24.8131 26.8578 25.0747 27.1668C25.336 27.4758 25.4473 27.882 25.3804 28.281L25.1122 29.8743C24.7417 32.0778 23.1142 33.8991 20.9662 34.5144L17.1001 35.6214C16.702 35.7354 16.4716 36.1509 16.5856 36.549C16.6798 36.8784 16.9801 37.0929 17.3062 37.0929C17.3746 37.0929 17.4442 37.083 17.5132 37.0635Z" fill="white"/>
<path d="M16.8562 35.0064L20.2405 34.0809C22.5766 33.4425 24.2962 31.3932 24.52 28.9821C24.5584 28.5696 24.2551 28.2042 23.8426 28.1658C23.4286 28.1235 23.0647 28.431 23.0266 28.8432C22.8601 30.636 21.5818 32.1594 19.8451 32.6343L16.4608 33.5598C16.0612 33.669 15.826 34.0812 15.9352 34.4808C16.0264 34.8141 16.3285 35.0334 16.6582 35.0334C16.7233 35.0331 16.7899 35.0244 16.8562 35.0064ZM30.5389 37.8684L26.8012 36.2178C25.8187 35.7843 24.7108 35.712 23.6818 36.0162L17.5141 37.8351C17.1166 37.9524 16.8895 38.3691 17.0068 38.7663C17.1031 39.093 17.4019 39.3045 17.7259 39.3045C17.7961 39.3045 17.8675 39.2946 17.9383 39.2733L24.106 37.4544C24.7957 37.2504 25.5376 37.2987 26.1952 37.5894L29.9329 39.24C30.3109 39.4068 30.7543 39.2358 30.922 38.8569C31.0894 38.4786 30.9181 38.0355 30.5389 37.8684ZM31.1536 35.8413L28.8943 35.0181C28.3546 34.8216 27.8788 34.4814 27.5182 34.035L27.133 33.5577C26.8729 33.2358 26.4016 33.1848 26.0782 33.4452C25.756 33.7053 25.7056 34.1775 25.9657 34.5L26.3509 34.9773C26.8831 35.6364 27.5851 36.1377 28.381 36.4275L30.6403 37.2507C30.7249 37.2819 30.8116 37.2963 30.8968 37.2963C31.2031 37.2963 31.4905 37.1073 31.6015 36.8025C31.7434 36.4134 31.543 35.9829 31.1536 35.8413Z" fill="white"/>
<path d="M29.0313 39.8031L26.7492 38.7738C25.8117 38.3514 24.7467 38.2596 23.7507 38.5161L18.9126 39.7605C18.5115 39.8637 18.2697 40.2723 18.3729 40.6737C18.4761 41.0748 18.8859 41.3163 19.2861 41.2131L24.1245 39.9687C24.792 39.7965 25.5045 39.8586 26.1327 40.1415L28.4148 41.1708C28.5147 41.2158 28.6197 41.2374 28.7226 41.2374C29.0082 41.2374 29.2812 41.073 29.4066 40.7952C29.577 40.4178 29.4087 39.9735 29.0313 39.8031Z" fill="white"/>
<path d="M27.3564 41.3394L26.1474 40.8663C25.2606 40.5201 24.3054 40.4595 23.3838 40.6914L20.925 41.3103C20.5233 41.4117 20.2797 41.8191 20.3808 42.2208C20.4819 42.6225 20.8899 42.8646 21.2913 42.765L23.7501 42.1461C24.3678 41.9901 25.0074 42.0309 25.6011 42.2631L26.8098 42.7362C26.8995 42.7713 26.9919 42.7881 27.0828 42.7881C27.3825 42.7881 27.6657 42.6069 27.7815 42.3111C27.9321 41.9256 27.7422 41.4903 27.3564 41.3394Z" fill="white"/>
</svg>
