<svg xmlns="http://www.w3.org/2000/svg" width="48" height="48" viewBox="0 0 48 48" fill="none">
  <path fill-rule="evenodd" clip-rule="evenodd" d="M27.5093 22.384C23.4967 25.2316 22.5203 30.8439 25.33 34.9102C28.139 38.976 33.678 39.9658 37.6903 37.1185C41.7029 34.2716 42.6793 28.659 39.8699 24.5931C37.0602 20.5269 31.5219 19.5371 27.5093 22.384Z" fill="white"/>
  <path fill-rule="evenodd" clip-rule="evenodd" d="M36.6231 37.1933L37.5638 38.5552C37.7062 38.7501 37.9181 38.881 38.1544 38.92C38.3906 38.959 38.6326 38.9029 38.8287 38.7638C39.0247 38.6247 39.1595 38.4135 39.2041 38.1752C39.2488 37.9369 39.1999 37.6903 39.0678 37.488L38.1267 36.1261C37.9837 35.9327 37.7721 35.8033 37.5366 35.7651C37.3011 35.727 37.0602 35.7832 36.8649 35.9218C36.6696 36.0605 36.5351 36.2707 36.49 36.508C36.4449 36.7453 36.4926 36.991 36.6231 37.1933Z" fill="white"/>
  <path fill-rule="evenodd" clip-rule="evenodd" d="M41.6936 38.5302C41.3326 38.0077 40.8251 37.6072 40.2367 37.3805C39.6484 37.1538 39.0065 37.1114 38.3941 37.2588C38.0572 37.3398 37.7635 37.5481 37.573 37.8411C37.2269 38.3739 37.0467 38.9997 37.0557 39.6375C37.0648 40.2753 37.2626 40.8956 37.6237 41.418L39.6315 44.3241C40.0109 44.8673 40.5871 45.2362 41.2341 45.3502C41.8811 45.4641 42.5463 45.3138 43.0843 44.9321C43.6223 44.5504 43.9893 43.9684 44.105 43.3133C44.2207 42.6582 44.0757 41.9834 43.7018 41.4363L41.6936 38.5302ZM40.1896 39.5974C40.0587 39.4078 39.8809 39.2564 39.6742 39.1582C39.4674 39.06 39.2389 39.0185 39.0113 39.0378C38.9157 39.2479 38.876 39.4797 38.8964 39.7102C38.9168 39.9407 38.9964 40.1617 39.1273 40.3512L41.1359 43.2573C41.2345 43.3997 41.3848 43.4967 41.5539 43.5269C41.723 43.5571 41.897 43.5181 42.0377 43.4184L42.0388 43.4177C42.1085 43.3683 42.1679 43.3054 42.2137 43.2327C42.2594 43.16 42.2905 43.0789 42.3053 42.9939C42.3201 42.909 42.3182 42.822 42.2997 42.7378C42.2813 42.6537 42.2466 42.574 42.1978 42.5034L40.1896 39.5974ZM18.8289 8.55962V5.54753C18.829 5.36434 18.9008 5.18868 19.0287 5.05918C19.1566 4.92967 19.3299 4.85693 19.5107 4.85693H25.1963C25.377 4.85693 25.5503 4.92969 25.6781 5.0592C25.806 5.18871 25.8778 5.36437 25.8778 5.54753V8.55962C25.8845 8.80178 25.9842 9.03172 26.1556 9.20058C26.327 9.36945 26.5567 9.46391 26.7957 9.46391C27.0348 9.46391 27.2644 9.36945 27.4358 9.20058C27.6073 9.03172 27.7069 8.80178 27.7137 8.55962V5.54753C27.7137 5.2125 27.6487 4.88075 27.5222 4.57122C27.3957 4.26169 27.2102 3.98044 26.9765 3.74354C26.7427 3.50664 26.4651 3.31873 26.1597 3.19055C25.8542 3.06236 25.5269 2.99641 25.1963 2.99646H19.5107C19.1801 2.99636 18.8527 3.06228 18.5472 3.19044C18.2417 3.31861 17.9641 3.50651 17.7303 3.74341C17.4965 3.98031 17.311 4.26158 17.1845 4.57113C17.058 4.88069 16.9929 5.21247 16.9929 5.54753V8.55962C16.9997 8.80178 17.0994 9.03172 17.2708 9.20058C17.4422 9.36945 17.6718 9.46391 17.9109 9.46391C18.15 9.46391 18.3796 9.36945 18.551 9.20058C18.7224 9.03172 18.8221 8.80178 18.8289 8.55962Z" fill="white"/>
  <path fill-rule="evenodd" clip-rule="evenodd" d="M41.469 21.2279V11.3674C41.469 9.3027 39.8174 7.62903 37.7799 7.62903H6.924C4.88647 7.62866 3.23486 9.30233 3.23486 11.3674V32.4748C3.23486 34.5399 4.88647 36.2132 6.924 36.2132H22.5941C22.8312 36.2036 23.0554 36.1014 23.2198 35.928C23.3842 35.7546 23.4761 35.5234 23.4761 35.283C23.4761 35.0425 23.3842 34.8114 23.2198 34.638C23.0554 34.4646 22.8312 34.3624 22.5941 34.3527H6.924C6.68063 34.3528 6.43965 34.3043 6.21481 34.2099C5.98997 34.1155 5.78568 33.9772 5.61361 33.8028C5.44155 33.6284 5.30508 33.4214 5.212 33.1935C5.11893 32.9656 5.07107 32.7214 5.07117 32.4748V11.3674C5.07112 11.1209 5.11901 10.8767 5.21211 10.6489C5.3052 10.421 5.44168 10.214 5.61374 10.0397C5.7858 9.86533 5.99008 9.72703 6.21489 9.63269C6.43971 9.53835 6.68067 9.48982 6.924 9.48987H37.7799C38.0232 9.48982 38.2641 9.53835 38.489 9.63269C38.7138 9.72703 38.9181 9.86533 39.0901 10.0397C39.2622 10.214 39.3987 10.421 39.4918 10.6489C39.5848 10.8767 39.6327 11.1209 39.6327 11.3674V21.2279C39.6327 21.7414 40.0443 22.1581 40.5507 22.1581C41.0574 22.1581 41.469 21.7414 41.469 21.2279Z" fill="white"/>
  <path fill-rule="evenodd" clip-rule="evenodd" d="M16.5456 15.9531C16.5456 15.7064 16.4489 15.4698 16.2768 15.2953C16.1046 15.1209 15.8711 15.0229 15.6277 15.0229H12.2852C12.0417 15.0229 11.8082 15.1209 11.6361 15.2953C11.4639 15.4698 11.3672 15.7064 11.3672 15.9531V20.5861C11.3672 20.8328 11.4639 21.0694 11.6361 21.2438C11.8082 21.4183 12.0417 21.5163 12.2852 21.5163H15.6277C15.8711 21.5163 16.1046 21.4183 16.2768 21.2438C16.4489 21.0694 16.5456 20.8328 16.5456 20.5861V15.9531ZM13.2031 16.8834V19.6558H14.7097V16.8837L13.2031 16.8834Z" fill="white"/>
  <path fill-rule="evenodd" clip-rule="evenodd" d="M28.155 17.2826V15.9531C28.155 15.7064 28.2517 15.4698 28.4239 15.2953C28.596 15.1209 28.8295 15.0229 29.073 15.0229H32.4155C32.659 15.0229 32.8925 15.1209 33.0646 15.2953C33.2368 15.4698 33.3335 15.7064 33.3335 15.9531V17.2826H40.5498C40.7933 17.2826 41.0268 17.3806 41.1989 17.5551C41.3711 17.7295 41.4678 17.9661 41.4678 18.2128C41.4678 18.4596 41.3711 18.6962 41.1989 18.8706C41.0268 19.0451 40.7933 19.1431 40.5498 19.1431H32.4155C32.172 19.1431 31.9385 19.0451 31.7664 18.8706C31.5942 18.6962 31.4975 18.4596 31.4975 18.2128V16.8834H29.991V18.2128C29.991 18.4596 29.8942 18.6962 29.7221 18.8706C29.5499 19.0451 29.3165 19.1431 29.073 19.1431H15.6303C15.3913 19.1362 15.1644 19.0352 14.9977 18.8615C14.8311 18.6878 14.7379 18.4551 14.7379 18.2128C14.7379 17.9706 14.8311 17.7379 14.9977 17.5642C15.1644 17.3905 15.3913 17.2895 15.6303 17.2826H28.155ZM4.15234 19.2007H11.5695C12.0762 19.2007 12.4875 18.784 12.4875 18.2705C12.4875 17.757 12.0762 17.3403 11.5695 17.3403H4.15234C3.64562 17.3403 3.23438 17.757 3.23438 18.2705C3.23438 18.784 3.64562 19.2007 4.15234 19.2007Z" fill="white"/>
</svg>