<svg xmlns="http://www.w3.org/2000/svg" width="48" height="48" viewBox="0 0 48 48" fill="none">
  <path d="M24 46.5897C14.5581 46.5897 6.87598 38.9076 6.87598 29.4657C6.87598 24.1313 9.29715 19.1958 13.5183 15.924C13.5916 15.8672 13.6753 15.8254 13.7646 15.801C13.854 15.7766 13.9473 15.77 14.0393 15.7816C14.1312 15.7933 14.2199 15.8229 14.3004 15.8688C14.3809 15.9148 14.4516 15.9761 14.5083 16.0493C14.5651 16.1225 14.6069 16.2062 14.6313 16.2956C14.6558 16.385 14.6624 16.4783 14.6507 16.5703C14.6391 16.6622 14.6095 16.7509 14.5635 16.8314C14.5176 16.9119 14.4563 16.9825 14.383 17.0393C10.5099 20.0421 8.28774 24.5711 8.28774 29.4657C8.28774 38.129 15.3367 45.1779 24 45.1779C32.6633 45.1779 39.7122 38.129 39.7122 29.4657C39.7122 24.456 37.2875 19.7019 33.2259 16.7485C33.0745 16.6384 32.9731 16.4727 32.9439 16.2878C32.9147 16.103 32.9601 15.9141 33.0702 15.7627C33.1803 15.6114 33.346 15.5099 33.5309 15.4807C33.7157 15.4516 33.9046 15.497 34.056 15.6071C38.4819 18.8259 41.1247 24.0071 41.1247 29.4657C41.1247 38.9076 33.4419 46.5897 24 46.5897Z" fill="white"/>
  <path d="M24.0028 41.3845C23.1254 41.3845 22.2691 41.2913 21.456 41.1092C16.9164 40.1237 13.3397 36.547 12.3508 31.9997C12.1666 31.1684 12.0745 30.3193 12.0762 29.4677C12.0762 28.6002 12.1687 27.744 12.3515 26.9223C13.0101 23.9082 14.7931 21.2922 17.3731 19.5586C17.5286 19.458 17.7173 19.4225 17.8986 19.4597C18.0799 19.497 18.2394 19.6039 18.3426 19.7576C18.4458 19.9113 18.4845 20.0993 18.4504 20.2813C18.4163 20.4632 18.3121 20.6245 18.1602 20.7303C15.8844 22.26 14.3103 24.5668 13.7301 27.2259C13.568 27.9621 13.4869 28.7139 13.488 29.4677C13.488 30.2343 13.5698 30.9833 13.7294 31.6941C14.1589 33.6616 15.144 35.4645 16.5676 36.8889C17.9912 38.3133 19.7936 39.2993 21.7609 39.7299C23.1882 40.051 24.8033 40.0517 26.2298 39.7313C28.1976 39.3023 30.0008 38.3174 31.4253 36.8937C32.8498 35.47 33.8356 33.6673 34.2656 31.6997C34.4287 30.967 34.5102 30.2184 34.5084 29.4677C34.5067 27.7954 34.1066 26.1475 33.3413 24.6606C32.5759 23.1737 31.4673 21.8905 30.1073 20.9174C30.0295 20.8644 29.9632 20.7963 29.9122 20.7173C29.8611 20.6383 29.8264 20.5499 29.81 20.4572C29.7937 20.3646 29.796 20.2696 29.8168 20.1779C29.8377 20.0861 29.8766 19.9995 29.9314 19.923C29.9863 19.8466 30.0558 19.7819 30.136 19.7327C30.2162 19.6835 30.3054 19.6508 30.3984 19.6366C30.4914 19.6223 30.5863 19.6268 30.6775 19.6498C30.7687 19.6728 30.8544 19.7138 30.9296 19.7703C32.4723 20.8737 33.7298 22.329 34.5977 24.0155C35.4656 25.702 35.919 27.571 35.9202 29.4677C35.9202 30.3381 35.827 31.1915 35.6449 32.0047C34.6588 36.5463 31.0821 40.1223 26.5348 41.1106C25.7034 41.2946 24.8543 41.3865 24.0028 41.3845Z" fill="white"/>
  <path d="M24.0028 41.3845C23.1254 41.3845 22.2692 41.2913 21.456 41.1092C21.2996 41.0739 21.1599 40.9865 21.0599 40.8613C20.9598 40.736 20.9053 40.5805 20.9054 40.4202V37.4259C20.9054 34.7407 18.7207 32.5553 16.0348 32.5553H13.0412C12.8809 32.5554 12.7253 32.5009 12.6001 32.4008C12.4749 32.3007 12.3875 32.161 12.3522 32.0047C12.1673 31.1718 12.075 30.321 12.0769 29.4677C12.0769 28.6002 12.1687 27.744 12.3515 26.9223C12.3864 26.7655 12.4737 26.6252 12.5991 26.5247C12.7245 26.4242 12.8805 26.3695 13.0412 26.3696H21.0282C21.1412 26.3697 21.2526 26.3968 21.3529 26.4488C21.4533 26.5008 21.5397 26.5762 21.6048 26.6685C21.67 26.7609 21.712 26.8675 21.7274 26.9795C21.7428 27.0915 21.731 27.2055 21.6932 27.312C21.6198 27.5188 21.5809 27.7652 21.5809 28.0228C21.5802 28.6638 21.8338 29.279 22.2862 29.7332C22.7385 30.1874 23.3526 30.4435 23.9936 30.4454C25.3292 30.4454 26.4148 29.3583 26.4148 28.0228C26.4148 27.7652 26.3767 27.5188 26.3033 27.312C26.2658 27.2055 26.2543 27.0916 26.2698 26.9797C26.2853 26.8679 26.3274 26.7614 26.3925 26.6691C26.4576 26.5769 26.5438 26.5016 26.644 26.4494C26.7441 26.3973 26.8553 26.37 26.9682 26.3696H34.956C35.1166 26.3697 35.2723 26.4244 35.3976 26.5249C35.5228 26.6254 35.6101 26.7656 35.6449 26.9223C35.8278 27.744 35.9202 28.6002 35.9202 29.4677C35.9202 30.3381 35.8271 31.1915 35.6449 32.0047C35.6097 32.161 35.5222 32.3007 35.397 32.4008C35.2718 32.5009 35.1163 32.5554 34.956 32.5553H31.9616C30.6703 32.5568 29.4324 33.0704 28.5193 33.9835C27.6062 34.8966 27.0925 36.1346 27.0911 37.4259V40.4202C27.091 40.5804 27.0364 40.7358 26.9364 40.8608C26.8363 40.9859 26.6967 41.0732 26.5405 41.1085C25.7273 41.2913 24.8746 41.3845 24.0028 41.3845ZM22.3172 39.8386C23.4014 40.0172 24.5887 40.0186 25.6793 39.8386V37.4259C25.6793 33.9621 28.4979 31.1435 31.9616 31.1435H34.3736C34.4633 30.6 34.5078 30.0388 34.5078 29.4677C34.5078 28.8967 34.4626 28.3313 34.3736 27.7814H27.8202C27.8526 28.304 27.7777 28.8277 27.6001 29.3202C27.4225 29.8128 27.146 30.2638 26.7877 30.6455C26.4293 31.0272 25.9966 31.3315 25.5162 31.5398C25.0358 31.7481 24.5179 31.8558 23.9943 31.8565C21.8852 31.8565 20.1692 30.1369 20.1692 28.0228C20.1692 27.9416 20.172 27.8605 20.1762 27.7814H13.6235C13.5339 28.332 13.488 28.8967 13.488 29.4677C13.488 30.0388 13.5332 30.6 13.6221 31.1435H16.0348C19.4986 31.1435 22.3172 33.9621 22.3172 37.4259V39.8386Z" fill="white"/>
  <path d="M24.5612 21.492C23.5476 21.4939 22.5346 21.4414 21.5266 21.3346C20.841 21.2559 20.1586 21.1512 19.481 21.0205C18.2672 20.7946 17.0723 20.4772 15.9064 20.071C15.4268 19.9063 14.9902 19.6361 14.6287 19.2805C14.4232 19.0736 14.2446 18.8417 14.0972 18.5901C13.8119 18.1069 13.6511 17.5604 13.6292 16.9998C13.6227 16.9338 13.6196 16.8676 13.62 16.8014V16.7188L13.8283 10.4626C13.8321 10.3447 13.8654 10.2297 13.9252 10.128C13.9849 10.0264 14.0692 9.9413 14.1703 9.88058C14.2714 9.81986 14.3861 9.78543 14.5039 9.78044C14.6217 9.77544 14.7389 9.80004 14.8447 9.85199L24.0156 14.3612C24.0233 14.3576 24.0861 14.359 24.0932 14.3555L33.54 10.4823C33.649 10.437 33.7677 10.4199 33.885 10.4324C34.0024 10.445 34.1147 10.4869 34.2117 10.5542C34.3086 10.6216 34.3871 10.7122 34.4398 10.8178C34.4925 10.9234 34.5179 11.0406 34.5134 11.1586L34.3066 17.3767C34.2802 18.0194 34.0757 18.6421 33.7158 19.1753C33.6609 19.264 33.5957 19.346 33.5217 19.4195C33.0732 19.9965 32.4441 20.4064 31.7351 20.5835C29.9042 21.0627 28.029 21.3525 26.1389 21.4482L25.985 21.4553C25.524 21.4793 25.0476 21.492 24.5612 21.492ZM15.2033 11.6012L15.0304 16.7718L15.0325 16.8515C15.0346 16.8678 15.0389 16.915 15.0396 16.932C15.0466 17.2574 15.1384 17.5729 15.3106 17.8708C15.4116 18.0374 15.5118 18.168 15.6198 18.2746C15.8287 18.4807 16.0864 18.6402 16.368 18.7369C17.4692 19.1207 18.5978 19.4204 19.7443 19.6334C20.3676 19.7548 20.9993 19.8522 21.6805 19.9313C22.1443 19.9786 22.6144 20.0188 23.0979 20.0421C24.0763 20.0929 25.0221 20.0936 25.913 20.0442L26.064 20.0379C27.8593 19.9472 29.6404 19.6721 31.3793 19.2169C31.7996 19.1138 32.1712 18.8684 32.4311 18.5223C32.4633 18.4788 32.5005 18.4393 32.5419 18.4045C32.7586 18.067 32.8807 17.7 32.8963 17.3245L33.0657 12.2026L24.629 15.6621C24.4335 15.747 24.2217 15.788 24.0086 15.7821C23.7955 15.7763 23.5864 15.7237 23.3958 15.6282L15.2033 11.6012ZM37.7061 14.1303H37.7047C37.612 14.1302 37.5203 14.1117 37.4347 14.0761C37.3491 14.0404 37.2714 13.9883 37.206 13.9226C37.1406 13.8569 37.0888 13.779 37.0535 13.6933C37.0182 13.6076 37.0001 13.5157 37.0003 13.423L37.0073 8.97528C37.0077 8.78832 37.0822 8.60914 37.2146 8.47706C37.3469 8.34499 37.5262 8.27081 37.7132 8.27081H37.7153C37.808 8.271 37.8998 8.28944 37.9853 8.32508C38.0709 8.36073 38.1486 8.41288 38.214 8.47856C38.2795 8.54424 38.3313 8.62216 38.3666 8.70787C38.4019 8.79358 38.42 8.88541 38.4198 8.97811L38.412 13.4259C38.4117 13.6128 38.3371 13.792 38.2048 13.9241C38.0724 14.0562 37.8931 14.1303 37.7061 14.1303Z" fill="white"/>
  <path d="M23.9936 31.8565C21.8851 31.8565 20.1691 30.137 20.1691 28.0228C20.1691 27.5993 20.2348 27.2019 20.3633 26.8391C20.8503 25.2706 22.3122 24.1984 23.9936 24.1984C25.68 24.1984 27.1468 25.2706 27.643 26.8666C27.7688 27.2389 27.8308 27.6298 27.8266 28.0228C27.8256 29.0392 27.4215 30.0138 26.703 30.7326C25.9844 31.4514 25.01 31.8552 23.9936 31.8565ZM24.0571 15.7835C23.8341 15.7835 23.6061 15.732 23.3957 15.6282L10.9595 9.52448C10.6979 9.39622 10.4793 9.19469 10.3301 8.94443C10.181 8.69416 10.1078 8.40593 10.1195 8.11483C10.1287 7.82736 10.2209 7.54868 10.385 7.31245C10.5491 7.07622 10.778 6.89253 11.0442 6.78354L23.8666 1.52895C24.2237 1.36448 24.6755 1.37013 25.0793 1.55224L37.5282 7.67083C37.908 7.85083 38.1974 8.19177 38.3131 8.6033C38.371 8.80506 38.3856 9.01676 38.3559 9.22454C38.3262 9.43231 38.2529 9.63147 38.1409 9.80895C37.9715 10.0906 37.7244 10.3002 37.4251 10.4174L34.0779 11.7875L24.6289 15.6628C24.449 15.7429 24.2541 15.7845 24.0571 15.7835ZM24.4411 2.82354C24.4347 2.82375 24.4284 2.82446 24.4221 2.82566L11.5835 8.08801C11.5694 8.09436 11.532 8.10989 11.5298 8.16707C11.5286 8.18687 11.5336 8.20656 11.5441 8.22339C11.5546 8.24021 11.5701 8.25335 11.5884 8.26095L24.0148 14.3612C24.0226 14.3577 24.0854 14.3591 24.0924 14.3555L36.9042 9.10448C36.9091 9.0953 36.9423 9.06142 36.9487 9.05225C36.9591 9.03196 36.9611 9.00837 36.9543 8.9866L24.4786 2.8306C24.4666 2.82594 24.4539 2.82355 24.4411 2.82354Z" fill="white"/>
</svg>