<svg width="48" height="48" viewBox="0 0 48 48" fill="none" xmlns="http://www.w3.org/2000/svg">
<g clip-path="url(#clip0_1692_2993)">
<path d="M14.7581 28.8731V29.047L14.9212 29.1075C16.0377 29.5213 16.8516 30.5419 16.9506 31.7564H14.6167C14.5094 31.4204 14.1916 31.1794 13.8208 31.1794H13.392C12.9348 31.1794 12.5564 31.5461 12.5564 32.0064C12.5564 32.4654 12.9345 32.8333 13.392 32.8333H13.8208C15.5556 32.8333 16.9618 34.2265 16.9618 35.9307C16.9618 37.2528 16.1145 38.3876 14.9222 38.8296L14.7591 38.89V39.064V40.75H12.4537V39.064V38.89L12.2906 38.8296C11.1741 38.4158 10.3602 37.3944 10.2612 36.1807H12.5943C12.702 36.5163 13.0205 36.7576 13.391 36.7576H13.8198C14.2762 36.7576 14.6544 36.3907 14.6544 35.9307C14.6544 35.4715 14.2781 35.1027 13.8198 35.1027H13.391C11.657 35.1027 10.25 33.7104 10.25 32.0064C10.25 30.6843 11.0972 29.5494 12.2896 29.1075L12.4527 29.047V28.8731V27.1841H14.7581V28.8731ZM23.0057 16.7204L22.8868 17.0543H23.2412H28.3701V19.3227H19.5246V17.0356C20.3127 16.9164 20.9217 16.2426 20.9217 15.4255V15.2036V14.9536H20.6717H19.5246V12.6852H20.6717H20.9217V12.4352V11.1482C20.9217 9.00125 22.6916 7.25 24.8753 7.25C26.9735 7.25 28.6897 8.86777 28.8208 10.8982H26.5042C26.3821 10.1159 25.6964 9.51939 24.8763 9.51939C23.9708 9.51939 23.2291 10.2466 23.2291 11.1482V12.4352V12.6852H23.4791H25.2249V14.9536H23.4791H23.2291V15.2036V15.4255C23.2291 15.8796 23.1503 16.3148 23.0057 16.7204ZM38.6462 29.4664L36.8674 31.6461L36.5344 32.0542H37.0611H37.9765V34.3226H35.561H35.311V34.5726V35.5796V35.8296H35.561H37.9765V38.098H35.561H35.311V38.348V40.5557H33.0047V38.348V38.098H32.7547H30.4022V35.8296H32.7547H33.0047V35.5796V34.5726V34.3226H32.7547H30.4022V32.0542H31.2535H31.7804L31.4472 31.6461L29.6675 29.4664L31.4608 28.0408L33.9632 31.1062L34.1568 31.3435L34.3505 31.1062L36.8529 28.0408L38.6462 29.4664Z" fill="white" stroke="#89191B" stroke-width="0.5"/>
<path d="M35.6945 20.5043L35.5008 20.8337L35.8802 20.8792C42.5574 21.6803 47.75 27.3783 47.75 34.266C47.75 41.7009 41.6999 47.75 34.2637 47.75C30.2626 47.75 26.6639 45.9989 24.1907 43.2217L24.0037 43.0118L23.8171 43.222C21.2747 46.085 17.626 47.75 13.7363 47.75C6.30006 47.75 0.25 41.7009 0.25 34.266C0.25 27.3272 5.52023 21.5949 12.269 20.8625L12.6529 20.8209L12.4578 20.4877C11.2913 18.4958 10.6217 16.1793 10.6217 13.708C10.6217 6.28711 16.6598 0.25 24.082 0.25C31.5033 0.25 37.5423 6.28712 37.5413 13.708C37.5413 16.1851 36.8678 18.5085 35.6945 20.5043ZM22.5119 41.1889L22.6163 41.0567L22.533 40.9103C21.4166 38.9489 20.7774 36.6803 20.7774 34.267C20.7774 31.8436 21.4236 29.4944 22.6303 27.4417L22.8235 27.1129L22.445 27.0668C19.3751 26.6929 16.6208 25.2824 14.5436 23.1947L14.4778 23.1286L14.3848 23.1217C14.1547 23.1047 13.9115 23.09 13.7363 23.09C7.57226 23.09 2.55847 28.1029 2.55847 34.266C2.55847 40.4291 7.57225 45.442 13.7363 45.442C17.1798 45.442 20.3974 43.8666 22.5119 41.1889ZM25.8094 27.056L25.7116 27.0686L25.6487 27.1446C23.9923 29.1454 23.0859 31.6548 23.0859 34.267C23.0859 40.4301 28.0997 45.443 34.2637 45.443C40.4278 45.443 45.4415 40.4281 45.4415 34.266C45.4415 28.1039 40.4278 23.09 34.2637 23.09C34.1113 23.09 33.9587 23.0941 33.8076 23.1002L33.7093 23.1042L33.64 23.174C31.5814 25.2519 28.8527 26.6644 25.8094 27.056ZM35.2338 13.707C35.2338 7.55889 30.2311 2.557 24.082 2.557C17.932 2.557 12.9292 7.55888 12.9292 13.707C12.9292 19.8551 17.932 24.857 24.082 24.857C30.231 24.857 35.2338 19.8561 35.2338 13.707Z" fill="#FCFCFC" stroke="#89191B" stroke-width="0.5"/>
</g>
<defs>
<clipPath id="clip0_1692_2993">
<rect width="48" height="48" fill="white"/>
</clipPath>
</defs>
</svg>
