<svg width="48" height="48" viewBox="0 0 48 48" fill="none" xmlns="http://www.w3.org/2000/svg">
<path d="M5.3623 44.2226L6.43171 42.3826L7.64751 43.0893L6.5781 44.9292L5.3623 44.2226ZM14.2556 43.0879L15.4715 42.3813L16.5407 44.2213L15.3249 44.9279L14.2556 43.0879Z" fill="white"/>
<path d="M18.0517 43.4392H4.34541C3.75478 43.4392 3.27197 42.9563 3.27197 42.3657V33.661C3.27197 33.0704 3.75478 32.5876 4.34541 32.5876H18.0517C18.6423 32.5876 19.1251 33.0704 19.1251 33.661V42.3657C19.1251 42.961 18.6423 43.4392 18.0517 43.4392ZM4.67822 42.0329H17.7188V33.9985H4.67822V42.0329ZM23.4657 19.1673C23.2782 19.1673 23.086 19.1204 22.9126 19.0267C22.547 18.8251 22.3173 18.4407 22.3173 18.0235V12.1688C22.3173 11.7517 22.547 11.3673 22.9126 11.1657C23.2782 10.9642 23.7282 10.9782 24.0798 11.2032L28.6782 14.1282C29.011 14.3392 29.2079 14.7001 29.2079 15.0938C29.2079 15.4876 29.011 15.8485 28.6782 16.0595L24.0798 18.9845C23.897 19.1063 23.6813 19.1673 23.4657 19.1673Z" fill="white"/>
<path d="M34.3733 24.1877H13.9218C9.91865 24.1877 6.66553 20.9393 6.66553 16.9455V16.9127C6.66553 14.9815 7.41553 13.1674 8.7749 11.7987C10.139 10.4346 11.9483 9.67991 13.8796 9.67991C14.3812 9.67991 14.878 9.73147 15.3655 9.8346C15.8343 8.02991 16.8515 6.39866 18.2858 5.17991C19.9312 3.77835 22.0358 3.00491 24.2015 3.00491C26.0671 3.00022 27.8624 3.56272 29.3905 4.61741C30.703 5.52679 31.7483 6.75022 32.4327 8.17522C33.0749 8.01585 33.7405 7.93147 34.4108 7.93147C38.8733 7.93147 42.5062 11.569 42.5062 16.0455C42.5062 20.5362 38.8593 24.1877 34.3733 24.1877ZM13.8796 11.0862C10.6733 11.0862 8.06709 13.6971 8.06709 16.908V16.9408C8.06709 20.1612 10.6921 22.7768 13.9171 22.7768H34.3687C38.0812 22.7768 41.0999 19.758 41.0999 16.0455C41.0999 12.3471 38.0999 9.33772 34.4108 9.33772C33.6749 9.33772 32.953 9.45491 32.264 9.68929L31.6312 9.90491L31.3827 9.28147C30.2108 6.32366 27.3937 4.40647 24.2015 4.40647C20.6202 4.40647 17.5546 6.8346 16.7108 10.2518C17.8124 10.7205 18.7827 11.4565 19.5374 12.4033L18.4358 13.2799C17.7187 12.3799 16.7671 11.719 15.6796 11.3674C15.103 11.1799 14.4983 11.0862 13.8796 11.0862ZM34.3593 43.2237H22.0499V34.9737C22.0499 34.4346 22.4905 33.994 23.0296 33.994H33.3749C33.914 33.994 34.3546 34.4346 34.3546 34.9737V43.2237H34.3593ZM23.4562 41.8174H32.953V35.4002H23.4562V41.8174Z" fill="white"/>
<path d="M21.2061 41.8174H35.2029V43.2236H21.2061V41.8174ZM43.542 43.6736H39.4873C38.8357 43.6736 38.3061 43.1439 38.3061 42.4924L38.3107 35.1002C38.3107 34.4486 38.8404 33.9189 39.492 33.9189H43.5467C43.8607 33.9189 44.1607 34.0408 44.3811 34.2658C44.6061 34.4908 44.7279 34.7861 44.7279 35.1002L44.7232 42.4924C44.7232 43.1439 44.1936 43.6736 43.542 43.6736ZM39.7123 42.2674H43.317L43.3217 35.3252H39.717L39.7123 42.2674Z" fill="white"/>
<path d="M40.9593 40.4248H42.0749V41.8311H40.9593V40.4248ZM40.7249 33.6467L39.8343 32.9576L40.6968 31.8467L41.5874 32.5357L40.7249 33.6467ZM38.9483 32.2686L38.0577 31.5795L38.9202 30.4686L39.8108 31.1576L38.9483 32.2686ZM37.1671 30.8904L36.2765 30.2014L37.139 29.0904L38.0296 29.7795L37.1671 30.8904ZM35.3905 29.5123L34.4999 28.8232L35.3624 27.7123L36.253 28.4014L35.3905 29.5123ZM33.6093 28.1342L32.7187 27.4451L33.5812 26.3342L34.4718 27.0232L33.6093 28.1342ZM31.8327 26.7561L30.9421 26.067L31.8046 24.9561L32.6952 25.6451L31.8327 26.7561ZM27.4218 33.342L27.0233 32.292L28.3405 31.7951L28.739 32.8451L27.4218 33.342ZM26.6249 31.2373L26.2265 30.1873L27.5437 29.6904L27.9421 30.7404L26.6249 31.2373ZM25.828 29.1326L25.4296 28.0826L26.7468 27.5857L27.1452 28.6357L25.828 29.1326ZM25.0312 27.0279L24.6327 25.9779L25.9499 25.4811L26.3437 26.5311L25.0312 27.0279ZM11.6155 32.0201L10.7905 30.8811L11.6999 30.2201L12.5249 31.3592L11.6155 32.0201ZM13.439 30.6982L12.6093 29.5592L13.5187 28.8982L14.3437 30.0373L13.439 30.6982ZM15.2577 29.3764L14.4327 28.2373L15.3421 27.5764L16.1671 28.7154L15.2577 29.3764ZM17.0765 28.0545L16.2515 26.9154L17.1608 26.2545L17.9858 27.3936L17.0765 28.0545ZM18.8999 26.7326L18.0702 25.5936L18.9796 24.9326L19.8046 26.0717L18.8999 26.7326Z" fill="white"/>
</svg>
