<svg width="48" height="48" viewBox="0 0 48 48" fill="none" xmlns="http://www.w3.org/2000/svg">
<g clip-path="url(#clip0_1692_2967)">
<path d="M39.4499 14.025L37.1999 11.325L38.0999 11.1C38.2449 11.0637 38.3773 10.9887 38.4829 10.883C38.5886 10.7774 38.6636 10.645 38.6999 10.5C38.7267 10.3594 38.7126 10.214 38.6595 10.0812C38.6063 9.94826 38.5162 9.83335 38.3999 9.74999L35.3999 7.72499L36.2999 7.27499C36.4127 7.2016 36.5059 7.10173 36.5712 6.98407C36.6366 6.86642 36.6722 6.73456 36.6749 6.59999C36.6574 6.45025 36.5992 6.30816 36.5067 6.18916C36.4141 6.07016 36.2907 5.9788 36.1499 5.92499L32.7749 4.87499L33.4499 4.19999C33.5302 4.08016 33.585 3.94506 33.6108 3.80311C33.6366 3.66117 33.6329 3.51543 33.5999 3.37499C33.5424 3.24315 33.4482 3.13064 33.3285 3.05085C33.2088 2.97106 33.0687 2.92738 32.9249 2.92499H29.3249L29.7749 2.02499C29.85 1.91023 29.8835 1.77321 29.8698 1.63674C29.8562 1.50028 29.7962 1.37261 29.6999 1.27499C29.6346 1.14059 29.5216 1.03536 29.3829 0.979876C29.2442 0.924393 29.0898 0.922651 28.9499 0.974991L25.4999 1.87499L25.7249 0.899991C25.7517 0.759383 25.7376 0.61405 25.6845 0.481153C25.6313 0.348256 25.5412 0.233345 25.4249 0.149991C25.3062 0.0658578 25.1674 0.0146068 25.0225 0.00143528C24.8776 -0.0117363 24.7318 0.0136401 24.5999 0.0749912L21.5249 1.94999V1.04999C21.5288 0.894163 21.4786 0.741793 21.3829 0.618751C21.2872 0.49571 21.1519 0.409582 20.9999 0.374991C20.8549 0.333536 20.7014 0.332591 20.556 0.372258C20.4105 0.411925 20.2787 0.490688 20.1749 0.599991L17.7749 3.22499L17.4749 2.32499C17.4097 2.19194 17.315 2.07551 17.198 1.98454C17.081 1.89357 16.9449 1.83046 16.7999 1.79999C16.6561 1.80238 16.516 1.84606 16.3963 1.92585C16.2766 2.00564 16.1824 2.11815 16.1249 2.24999L14.5499 5.47499L13.9499 4.72499C13.8665 4.60863 13.7516 4.51855 13.6187 4.4654C13.4858 4.41224 13.3405 4.39822 13.1999 4.42499C13.0549 4.46128 12.9225 4.53626 12.8168 4.64194C12.7112 4.74762 12.6362 4.88001 12.5999 5.02499L12.0749 8.54999L11.3249 7.94999C11.1995 7.87758 11.0572 7.83946 10.9124 7.83946C10.7676 7.83946 10.6253 7.87758 10.4999 7.94999C10.362 8.01441 10.2499 8.12355 10.1818 8.2597C10.1137 8.39585 10.0937 8.55101 10.1249 8.69999L10.5749 12.225L9.67488 11.85C9.52993 11.8085 9.3764 11.8076 9.23095 11.8473C9.08551 11.8869 8.95371 11.9657 8.84988 12.075C8.74152 12.163 8.66726 12.2861 8.63988 12.423C8.6125 12.5599 8.63372 12.7021 8.69988 12.825L10.1249 16.125H9.14988C9.0038 16.1167 8.85898 16.1561 8.73723 16.2373C8.61549 16.3184 8.52342 16.437 8.47488 16.575C8.39393 16.7013 8.35736 16.851 8.37094 17.0003C8.38452 17.1497 8.44748 17.2904 8.54988 17.4L10.7999 20.1L9.89988 20.325C9.7549 20.3613 9.6225 20.4363 9.51683 20.5419C9.41115 20.6476 9.33616 20.78 9.29988 20.925C9.2731 21.0656 9.28712 21.2109 9.34028 21.3438C9.39344 21.4767 9.48352 21.5916 9.59988 21.675L12.5999 23.625L11.6999 24.075C11.5812 24.1602 11.485 24.273 11.4197 24.4037C11.3544 24.5343 11.3218 24.6789 11.3249 24.825C11.3553 24.97 11.4185 25.1062 11.5094 25.2231C11.6004 25.3401 11.7168 25.4348 11.8499 25.5L15.2249 26.55L14.5499 27.225C14.4695 27.3448 14.4148 27.4799 14.389 27.6219C14.3631 27.7638 14.3669 27.9096 14.3999 28.05C14.4641 28.1768 14.56 28.2848 14.6782 28.3637C14.7965 28.4425 14.9331 28.4895 15.0749 28.5H18.6749L18.2249 29.325C18.1671 29.4504 18.145 29.5894 18.1611 29.7265C18.1773 29.8637 18.231 29.9937 18.3163 30.1023C18.4016 30.2109 18.5152 30.2938 18.6447 30.3419C18.7741 30.39 18.9143 30.4015 19.0499 30.375H19.1999L20.8499 38.025C20.5085 38.1843 20.2206 38.4391 20.021 38.7585C19.8214 39.0779 19.7185 39.4484 19.7249 39.825V40.875H19.5749C19.1057 40.865 18.6392 40.9488 18.2029 41.1215C17.7665 41.2942 17.369 41.5522 17.0337 41.8805C16.6984 42.2089 16.432 42.6008 16.2502 43.0335C16.0684 43.4661 15.9748 43.9307 15.9749 44.4V46.5H14.0999C13.901 46.5 13.7102 46.579 13.5695 46.7197C13.4289 46.8603 13.3499 47.0511 13.3499 47.25C13.3499 47.4489 13.4289 47.6397 13.5695 47.7803C13.7102 47.921 13.901 48 14.0999 48H33.8999C34.0988 48 34.2896 47.921 34.4302 47.7803C34.5709 47.6397 34.6499 47.4489 34.6499 47.25C34.6499 47.0511 34.5709 46.8603 34.4302 46.7197C34.2896 46.579 34.0988 46.5 33.8999 46.5H32.0249V44.4C32.025 43.9307 31.9314 43.4661 31.7496 43.0335C31.5677 42.6008 31.3014 42.2089 30.9661 41.8805C30.6307 41.5522 30.2332 41.2942 29.7969 41.1215C29.3605 40.9488 28.8941 40.865 28.4249 40.875H28.2749V39.825C28.2813 39.4484 28.1784 39.0779 27.9788 38.7585C27.7791 38.4391 27.4912 38.1843 27.1499 38.025L29.0249 29.4L30.2249 28.125L30.5249 29.025C30.5824 29.1568 30.6766 29.2693 30.7963 29.3491C30.916 29.4289 31.0561 29.4726 31.1999 29.475C31.346 29.4833 31.4908 29.4439 31.6125 29.3627C31.7343 29.2815 31.8263 29.163 31.8749 29.025L33.4499 25.875L34.0499 26.625C34.136 26.7358 34.2545 26.817 34.3889 26.8574C34.5233 26.8977 34.667 26.8951 34.7999 26.85C34.9457 26.8316 35.0797 26.7604 35.1764 26.6498C35.2732 26.5392 35.326 26.3969 35.3249 26.25L35.9249 22.8L36.6749 23.325C36.7845 23.4274 36.9251 23.4904 37.0745 23.5039C37.2239 23.5175 37.3736 23.4809 37.4999 23.4C37.6378 23.3356 37.7499 23.2264 37.818 23.0903C37.886 22.9541 37.9061 22.799 37.8749 22.65L37.4249 19.125L38.3249 19.425C38.4612 19.4795 38.6105 19.4929 38.7543 19.4634C38.8981 19.4339 39.0301 19.3628 39.1339 19.259C39.2377 19.1552 39.3088 19.0232 39.3383 18.8794C39.3678 18.7356 39.3544 18.5863 39.2999 18.45L37.8749 15.225H38.8499C38.9885 15.2519 39.1322 15.2291 39.2557 15.1605C39.3792 15.0919 39.4745 14.9819 39.5249 14.85C39.6058 14.7237 39.6424 14.574 39.6288 14.4246C39.6152 14.2752 39.5523 14.1346 39.4499 14.025ZM30.5249 44.4V46.5H17.4749V44.4C17.4747 44.1276 17.5294 43.858 17.6359 43.6073C17.7423 43.3566 17.8982 43.13 18.0943 42.9409C18.2903 42.7519 18.5225 42.6043 18.7769 42.5071C19.0313 42.4098 19.3027 42.3649 19.5749 42.375H28.4249C28.697 42.3649 28.9685 42.4098 29.2229 42.5071C29.4773 42.6043 29.7094 42.7519 29.9055 42.9409C30.1016 43.13 30.2575 43.3566 30.3639 43.6073C30.4703 43.858 30.5251 44.1276 30.5249 44.4ZM22.4999 29.475L22.2749 30.375C22.2503 30.5267 22.265 30.6821 22.3175 30.8266C22.37 30.971 22.4586 31.0995 22.5749 31.2H23.3999L26.4749 29.325V30.3C26.5053 30.445 26.5685 30.5812 26.6594 30.6981C26.7504 30.8151 26.8668 30.9098 26.9999 30.975H27.1499L25.6499 37.8H22.3499L20.6249 30L22.4999 29.475ZM26.3249 39.3C26.6249 39.3 26.7749 39.525 26.7749 39.825V40.875H21.2249V39.825C21.2249 39.525 21.3749 39.3 21.6749 39.3H26.3249ZM36.8249 17.325C36.7066 17.2615 36.572 17.2347 36.4384 17.2481C36.3048 17.2614 36.1783 17.3143 36.0749 17.4C35.9844 17.4851 35.9165 17.5913 35.8772 17.7091C35.838 17.8269 35.8286 17.9526 35.8499 18.075L36.2249 21.075L35.8499 20.85C35.7436 20.7714 35.6212 20.7173 35.4916 20.6914C35.362 20.6654 35.2282 20.6684 35.0999 20.7C34.8896 20.8468 34.7319 21.057 34.6499 21.3L34.1999 24.3L33.8999 24C33.8369 23.8819 33.7363 23.7882 33.614 23.7338C33.4917 23.6794 33.3547 23.6675 33.2249 23.7C33.1017 23.7083 32.9825 23.7469 32.8779 23.8123C32.7732 23.8777 32.6863 23.9679 32.6249 24.075L31.3499 26.85L31.1999 26.4C31.0531 26.1897 30.8428 26.032 30.5999 25.95C30.4781 25.9106 30.3469 25.9112 30.2254 25.9516C30.104 25.9921 29.9987 26.0704 29.9249 26.175L27.8999 28.425V27.975C27.8916 27.8518 27.853 27.7327 27.7876 27.628C27.7222 27.5233 27.6319 27.4364 27.5249 27.375C27.4019 27.3325 27.2711 27.3172 27.1416 27.3302C27.0122 27.3431 26.887 27.384 26.7749 27.45L24.2249 29.025V28.575C24.2307 28.3307 24.1511 28.092 23.9999 27.9L23.7749 27.75H23.2499L20.3249 28.5L20.5499 28.125C20.624 28.014 20.6636 27.8835 20.6636 27.75C20.6636 27.6165 20.624 27.486 20.5499 27.375C20.4884 27.2679 20.4015 27.1777 20.2969 27.1123C20.1922 27.0469 20.073 27.0083 19.9499 27H16.8749L17.1749 26.7C17.2795 26.6262 17.3577 26.5209 17.3982 26.3994C17.4387 26.278 17.4393 26.1468 17.3999 26.025C17.3655 25.8994 17.299 25.785 17.2069 25.693C17.1148 25.6009 17.0004 25.5344 16.8749 25.5L13.9499 24.6L14.3999 24.375C14.5127 24.3016 14.6059 24.2017 14.6712 24.0841C14.7366 23.9664 14.7722 23.8346 14.7749 23.7C14.7666 23.5768 14.728 23.4577 14.6626 23.353C14.5972 23.2483 14.5069 23.1614 14.3999 23.1L11.9249 21.375H12.2999C12.4391 21.3527 12.5693 21.2917 12.6754 21.1988C12.7815 21.106 12.8593 20.9851 12.8999 20.85C12.9309 20.7337 12.9334 20.6117 12.9073 20.4942C12.8812 20.3767 12.8272 20.2672 12.7499 20.175L10.7999 17.85H11.2499C11.378 17.8559 11.5057 17.8318 11.6228 17.7798C11.74 17.7277 11.8434 17.649 11.9249 17.55C11.9909 17.4378 12.0317 17.3127 12.0447 17.1832C12.0576 17.0537 12.0423 16.923 11.9999 16.8L10.7999 14.025L11.1749 14.175C11.3018 14.2196 11.4385 14.2292 11.5704 14.2028C11.7024 14.1764 11.8248 14.115 11.9249 14.025C12.0215 13.9446 12.0938 13.8388 12.1335 13.7195C12.1733 13.6003 12.179 13.4723 12.1499 13.35L11.7749 10.35L12.1499 10.65C12.262 10.716 12.3872 10.7568 12.5166 10.7698C12.6461 10.7827 12.7769 10.7675 12.8999 10.725C13.0209 10.6733 13.1263 10.5906 13.2053 10.4853C13.2843 10.38 13.3341 10.2557 13.3499 10.125L13.7999 7.12499L14.0999 7.49999C14.1769 7.60399 14.2796 7.68628 14.3979 7.73885C14.5162 7.79142 14.646 7.81248 14.7749 7.79999C14.9999 7.79999 15.2249 7.57499 15.3749 7.34999L16.6499 4.49999L16.7999 4.87499C16.8573 4.99984 16.9404 5.11115 17.0438 5.20162C17.1472 5.2921 17.2685 5.3597 17.3999 5.39999C17.528 5.40588 17.6557 5.38183 17.7728 5.32976C17.89 5.27768 17.9934 5.19901 18.0749 5.09999L20.0999 2.84999V3.29999C20.0907 3.42684 20.1221 3.55331 20.1895 3.66115C20.2569 3.76899 20.3569 3.85263 20.4749 3.89999C20.5859 3.97416 20.7164 4.01374 20.8499 4.01374C20.9834 4.01374 21.1139 3.97416 21.2249 3.89999L23.7749 2.32499V2.69999C23.7535 2.83388 23.7626 2.97087 23.8015 3.10074C23.8405 3.23061 23.9083 3.35 23.9999 3.44999C24.1062 3.52854 24.2285 3.5827 24.3581 3.60863C24.4878 3.63455 24.6215 3.6316 24.7499 3.59999L27.6749 2.84999L27.4499 3.22499C27.3705 3.31955 27.327 3.43905 27.327 3.56249C27.327 3.68594 27.3705 3.80543 27.4499 3.89999C27.5113 4.00704 27.5982 4.09728 27.7029 4.16269C27.8075 4.22811 27.9267 4.26668 28.0499 4.27499H31.1249L30.8249 4.57499C30.7219 4.66715 30.6464 4.78595 30.6067 4.9183C30.567 5.05064 30.5647 5.19138 30.5999 5.32499C30.645 5.44481 30.7152 5.55362 30.8057 5.64415C30.8963 5.73469 31.0051 5.80486 31.1249 5.84999L33.9749 6.74999L33.5999 6.97499C33.488 7.03051 33.3937 7.11599 33.3275 7.22192C33.2613 7.32785 33.2257 7.45008 33.2249 7.57499C33.2276 7.70956 33.2632 7.84142 33.3285 7.95907C33.3939 8.07673 33.4871 8.1766 33.5999 8.24999L36.0749 9.89999L35.6999 10.05C35.5666 10.0573 35.4384 10.1039 35.3316 10.184C35.2248 10.2641 35.1442 10.3741 35.0999 10.5C35.0683 10.6283 35.0653 10.7621 35.0912 10.8917C35.1172 11.0213 35.1713 11.1437 35.2499 11.25L37.1999 13.575H36.7499C36.6166 13.5835 36.4869 13.6216 36.3701 13.6864C36.2534 13.7513 36.1525 13.8413 36.0749 13.95C36.0102 14.0487 35.9696 14.1612 35.9566 14.2785C35.9436 14.3958 35.9584 14.5145 35.9999 14.625L37.1999 17.475L36.8249 17.325Z" fill="white"/>
<path d="M13 11.9V20H14.76V17.3H17.4V15.5H14.76V12.8H17.4V11H13.88C13.6466 11 13.4228 11.0948 13.2577 11.2636C13.0927 11.4324 13 11.6613 13 11.9ZM35 12.8V11H31.48C31.2466 11 31.0228 11.0948 30.8577 11.2636C30.6927 11.4324 30.6 11.6613 30.6 11.9V19.1C30.6 19.3387 30.6927 19.5676 30.8577 19.7364C31.0228 19.9052 31.2466 20 31.48 20H35V18.2H32.36V16.4H35V14.6H32.36V12.8H35ZM20.92 11C20.2198 11 19.5483 11.2845 19.0532 11.7908C18.5581 12.2972 18.28 12.9839 18.28 13.7V20H20.04V18.2H21.8V20H23.56V13.7C23.56 12.9839 23.2819 12.2972 22.7868 11.7908C22.2917 11.2845 21.6202 11 20.92 11ZM20.04 16.4V13.7C20.04 13.4613 20.1327 13.2324 20.2977 13.0636C20.4628 12.8948 20.6866 12.8 20.92 12.8C21.1534 12.8 21.3772 12.8948 21.5423 13.0636C21.7073 13.2324 21.8 13.4613 21.8 13.7V16.4H20.04ZM27.96 11.9C27.9585 12.457 27.7885 13 27.4734 13.4544C27.1583 13.9087 26.7135 14.2523 26.2 14.438V11H24.44V20H26.2V16.562C26.7135 16.7477 27.1583 17.0913 27.4734 17.5456C27.7885 18 27.9585 18.5429 27.96 19.1V20H29.72V19.1C29.72 18.4014 29.561 17.7124 29.2555 17.0875C28.95 16.4627 28.5065 15.9192 27.96 15.5C28.5065 15.0808 28.95 14.5373 29.2555 13.9125C29.561 13.2876 29.72 12.5986 29.72 11.9V11H27.96V11.9Z" fill="white"/>
</g>
<defs>
<clipPath id="clip0_1692_2967">
<rect width="48" height="48" fill="white"/>
</clipPath>
</defs>
</svg>
