<svg width="282" height="210" viewBox="0 0 282 210" fill="none" xmlns="http://www.w3.org/2000/svg">
<path d="M268.939 209.061C269.525 209.646 270.475 209.646 271.061 209.061L280.607 199.515C281.192 198.929 281.192 197.979 280.607 197.393C280.021 196.808 279.071 196.808 278.485 197.393L270 205.879L261.515 197.393C260.929 196.808 259.979 196.808 259.393 197.393C258.808 197.979 258.808 198.929 259.393 199.515L268.939 209.061ZM0 3.5H250V0.5H0V3.5ZM268.5 22V208H271.5V22H268.5ZM250 3.5C260.217 3.5 268.5 11.7827 268.5 22H271.5C271.5 10.1259 261.874 0.5 250 0.5V3.5Z" fill="#89191B"/>
</svg>
