<svg width="530" height="749" viewBox="0 0 530 749" fill="none" xmlns="http://www.w3.org/2000/svg">
<path d="M529.061 735.939C529.646 736.525 529.646 737.475 529.061 738.061L519.515 747.607C518.929 748.192 517.979 748.192 517.393 747.607C516.808 747.021 516.808 746.071 517.393 745.485L525.879 737L517.393 728.515C516.808 727.929 516.808 726.979 517.393 726.393C517.979 725.808 518.929 725.808 519.515 726.393L529.061 735.939ZM528 738.5H22V735.5H528V738.5ZM0.5 717V0H3.5V717H0.5ZM22 738.5C10.1259 738.5 0.5 728.874 0.5 717H3.5C3.5 727.217 11.7827 735.5 22 735.5V738.5Z" fill="#89191B"/>
</svg>
