<svg width="538" height="741" viewBox="0 0 538 741" fill="none" xmlns="http://www.w3.org/2000/svg">
<path d="M527.061 0.93934C526.475 0.353553 525.525 0.353553 524.939 0.93934L515.393 10.4853C514.808 11.0711 514.808 12.0208 515.393 12.6066C515.979 13.1924 516.929 13.1924 517.515 12.6066L526 4.12132L534.485 12.6066C535.071 13.1924 536.021 13.1924 536.607 12.6066C537.192 12.0208 537.192 11.0711 536.607 10.4853L527.061 0.93934ZM0 740.5H506V737.5H0V740.5ZM527.5 719V2H524.5V719H527.5ZM506 740.5C517.874 740.5 527.5 730.874 527.5 719H524.5C524.5 729.217 516.217 737.5 506 737.5V740.5Z" fill="#89191B"/>
</svg>
