<svg width="31" height="32" viewBox="0 0 31 32" fill="none" xmlns="http://www.w3.org/2000/svg">
<g id="fi_6107827" clip-path="url(#clip0_1266_3595)">
<path id="Vector" d="M31 25.428C31.0003 25.8299 30.9415 26.2296 30.8256 26.6133L29.3441 31.5307C29.3033 31.6667 29.2213 31.7857 29.1102 31.8702C28.9991 31.9546 28.8647 32.0001 28.7267 32C28.6619 32 28.5975 31.9901 28.5355 31.9707C28.4545 31.9447 28.3793 31.9025 28.3141 31.8465C28.2489 31.7904 28.195 31.7217 28.1555 31.6442C28.1161 31.5667 28.0918 31.4819 28.0841 31.3947C28.0764 31.3075 28.0854 31.2196 28.1106 31.136L29.5921 26.2173C29.7004 25.8585 29.7336 25.48 29.6895 25.1069C29.6454 24.7338 29.5251 24.3747 29.3364 24.0532C29.1477 23.7317 28.895 23.4553 28.5951 23.2423C28.2951 23.0292 27.9547 22.8844 27.5965 22.8173L22.4001 21.844C22.2512 21.8162 22.1164 21.7353 22.0194 21.6154C21.9224 21.4955 21.8692 21.3442 21.8692 21.188V13.412C21.8595 13.1201 21.7403 12.8435 21.5368 12.6405C21.3333 12.4375 21.0614 12.3241 20.7784 12.3241C20.4954 12.3241 20.2235 12.4375 20.02 12.6405C19.8165 12.8435 19.6973 13.1201 19.6876 13.412V27.1613C19.6876 27.2931 19.6497 27.4219 19.5788 27.5315C19.5079 27.641 19.4072 27.7264 19.2893 27.7769C19.1714 27.8274 19.0417 27.8408 18.9165 27.8152C18.7913 27.7896 18.6762 27.7264 18.5858 27.6333L16.1781 25.1467C16.0703 25.0289 15.9407 24.9346 15.797 24.8694C15.6532 24.8042 15.4983 24.7694 15.3413 24.7671C15.1843 24.7648 15.0285 24.795 14.883 24.856C14.7376 24.9169 14.6054 25.0074 14.4944 25.122C14.3834 25.2365 14.2958 25.373 14.2367 25.5231C14.1777 25.6733 14.1484 25.8342 14.1506 25.9962C14.1528 26.1583 14.1865 26.3182 14.2497 26.4666C14.3129 26.6149 14.4042 26.7487 14.5183 26.86L18.3933 30.86C18.5146 30.985 18.5828 31.1546 18.5829 31.3315C18.583 31.5084 18.5151 31.6782 18.394 31.8033C18.2729 31.9285 18.1086 31.9989 17.9372 31.999C17.7658 31.9992 17.6014 31.929 17.4801 31.804L13.6051 27.804C13.3761 27.5676 13.1945 27.287 13.0706 26.9782C12.9466 26.6693 12.8828 26.3383 12.8828 26.004C12.8828 25.6697 12.9466 25.3387 13.0706 25.0299C13.1945 24.721 13.3761 24.4404 13.6051 24.204C13.8341 23.9676 14.106 23.7801 14.4052 23.6522C14.7044 23.5243 15.025 23.4584 15.3489 23.4584C15.6727 23.4584 15.9934 23.5243 16.2926 23.6522C16.5918 23.7801 16.8636 23.9676 17.0926 24.204L18.3972 25.5507V13.4173C18.4117 12.775 18.6691 12.164 19.1143 11.715C19.5595 11.266 20.1573 11.0146 20.7797 11.0146C21.4021 11.0146 21.9999 11.266 22.4451 11.715C22.8903 12.164 23.1477 12.775 23.1622 13.4173V20.6373L27.829 21.5107C28.718 21.6776 29.5222 22.161 30.1016 22.8767C30.6809 23.5925 30.9989 24.4953 31 25.428ZM17.9387 8.81067C17.8176 8.68569 17.6533 8.61548 17.4821 8.61548C17.3108 8.61548 17.1466 8.68569 17.0255 8.81067L10.9262 15.108L8.08455 12.1747C8.02497 12.111 7.95371 12.0602 7.87491 12.0253C7.79612 11.9903 7.71137 11.9719 7.62562 11.9712C7.53987 11.9704 7.45482 11.9873 7.37545 12.0208C7.29608 12.0543 7.22397 12.1038 7.16333 12.1664C7.1027 12.229 7.05474 12.3034 7.02227 12.3854C6.98979 12.4673 6.97345 12.5551 6.9742 12.6436C6.97494 12.7321 6.99276 12.8196 7.02661 12.9009C7.06046 12.9823 7.10966 13.0558 7.17134 13.1173L10.4754 16.5293C10.5965 16.6543 10.7608 16.7245 10.932 16.7245C11.1033 16.7245 11.2675 16.6543 11.3886 16.5293L17.9451 9.76C18.0056 9.69754 18.0535 9.62329 18.086 9.54157C18.1184 9.45984 18.1349 9.37227 18.1343 9.28394C18.1337 9.19562 18.1161 9.10829 18.0825 9.02705C18.0489 8.9458 18 8.87225 17.9387 8.81067ZM9.52347 23.6413C7.67551 23.1473 5.98427 22.1645 4.61661 20.7898C3.24895 19.4151 2.25215 17.6961 1.72455 15.8023C1.19696 13.9086 1.1568 11.9056 1.60805 9.99091C2.05929 8.07625 2.98635 6.31613 4.29774 4.88421C5.60912 3.45229 7.25953 2.39806 9.0861 1.82554C10.9127 1.25302 12.8523 1.18199 14.7136 1.61947C16.5749 2.05695 18.2935 2.98781 19.6999 4.32021C21.1063 5.65261 22.1518 7.3405 22.7333 9.21734C22.7856 9.38584 22.9005 9.52602 23.0529 9.60703C23.2053 9.68805 23.3826 9.70327 23.5458 9.64934C23.709 9.59541 23.8448 9.47676 23.9233 9.31947C24.0018 9.16219 24.0165 8.97917 23.9643 8.81067C23.3141 6.71322 22.1453 4.82701 20.5734 3.33813C19.0014 1.84925 17.0805 0.809155 15.0003 0.320457C12.9201 -0.168241 10.7524 -0.0886515 8.71109 0.551372C6.66976 1.1914 4.82536 2.36974 3.35985 3.97014C1.89434 5.57054 0.858358 7.53771 0.354127 9.67754C-0.150104 11.8174 -0.105165 14.0559 0.484509 16.1724C1.07418 18.2888 2.18822 20.21 3.7167 21.7463C5.24518 23.2827 7.13529 24.3812 9.20055 24.9333C9.25326 24.9476 9.30752 24.9547 9.36201 24.9547C9.51999 24.9558 9.67289 24.8971 9.79179 24.7898C9.91069 24.6824 9.98733 24.5337 10.0072 24.372C10.0271 24.2102 9.98886 24.0465 9.89972 23.9118C9.81057 23.7772 9.67671 23.681 9.52347 23.6413Z" fill="#333333"/>
<path id="Vector_2" d="M17.9387 8.81042C17.8176 8.68544 17.6534 8.61523 17.4821 8.61523C17.3109 8.61523 17.1466 8.68544 17.0255 8.81042L10.9263 15.1078L8.08462 12.1744C8.02504 12.1108 7.95378 12.06 7.87498 12.025C7.79619 11.9901 7.71144 11.9717 7.62569 11.9709C7.53993 11.9702 7.45489 11.987 7.37552 12.0205C7.29615 12.0541 7.22404 12.1036 7.1634 12.1662C7.10276 12.2288 7.05481 12.3032 7.02234 12.3851C6.98986 12.4671 6.97352 12.5548 6.97427 12.6434C6.97501 12.7319 6.99283 12.8194 7.02668 12.9007C7.06052 12.982 7.10972 13.0556 7.17141 13.1171L10.4755 16.5291C10.5966 16.6541 10.7608 16.7243 10.9321 16.7243C11.1033 16.7243 11.2676 16.6541 11.3887 16.5291L17.9452 9.75976C18.0057 9.6973 18.0536 9.62305 18.086 9.54132C18.1185 9.4596 18.1349 9.37202 18.1343 9.2837C18.1337 9.19537 18.1161 9.10805 18.0825 9.0268C18.049 8.94555 18.0001 8.872 17.9387 8.81042Z" fill="#89191B"/>
</g>
<defs>
<clipPath id="clip0_1266_3595">
<rect width="31" height="32" fill="white"/>
</clipPath>
</defs>
</svg>
