<?xml version="1.0" standalone="no"?>
<!DOCTYPE svg PUBLIC "-//W3C//DTD SVG 20010904//EN"
 "http://www.w3.org/TR/2001/REC-SVG-20010904/DTD/svg10.dtd">
<svg version="1.0" xmlns="http://www.w3.org/2000/svg"
 width="912.000000pt" height="912.000000pt" viewBox="0 0 912.000000 912.000000"
 preserveAspectRatio="xMidYMid meet">
<metadata>
Created by potrace 1.14, written by Peter Selinger 2001-2017
</metadata>
<g transform="translate(0.000000,912.000000) scale(0.100000,-0.100000)"
fill="#000000" stroke="none">
<path d="M3452 8304 c-77 -39 -131 -119 -134 -198 -3 -85 23 -142 101 -214 73
-68 316 -299 390 -370 101 -98 142 -123 208 -129 139 -14 249 76 259 211 8
104 -19 145 -202 315 -38 35 -135 127 -216 204 -194 184 -204 191 -298 195
-55 2 -84 -2 -108 -14z"/>
<path d="M747 8145 c-95 -24 -170 -118 -170 -213 1 -67 8 -97 35 -135 12 -17
247 -256 522 -529 363 -362 512 -503 544 -519 122 -57 274 9 318 137 16 48 12
130 -10 176 -11 22 -208 227 -503 520 -267 266 -495 493 -507 505 -57 58 -144
80 -229 58z"/>
<path d="M2310 7985 c-51 -19 -120 -83 -142 -132 -25 -57 -29 -127 -10 -188
14 -47 94 -129 1301 -1338 741 -743 1302 -1297 1323 -1308 56 -29 135 -34 216
-15 37 10 77 19 88 21 10 2 19 4 19 6 0 1 9 3 20 4 11 2 48 10 82 20 35 9 71
18 80 20 10 2 56 13 103 25 94 24 115 29 145 35 11 2 56 13 100 24 44 11 127
32 185 47 58 14 113 27 123 30 9 2 25 6 35 8 9 2 35 9 57 14 22 6 51 13 65 16
14 2 81 18 150 36 69 18 136 34 149 36 14 3 28 7 31 9 4 2 20 6 36 9 16 3 130
30 254 61 225 56 248 61 285 69 67 14 193 49 215 61 81 42 140 145 134 235 -9
158 -144 261 -309 237 -11 -2 -26 -6 -33 -11 -6 -4 -12 -5 -12 -2 0 3 -21 -1
-47 -9 -27 -8 -59 -16 -73 -19 -14 -2 -90 -21 -170 -40 -80 -20 -154 -38 -165
-40 -11 -2 -27 -7 -35 -10 -8 -3 -26 -8 -40 -10 -14 -3 -62 -14 -107 -25 -45
-11 -92 -22 -105 -25 -13 -2 -86 -20 -163 -40 -77 -19 -152 -37 -165 -40 -14
-2 -25 -5 -25 -6 0 -1 -8 -3 -17 -5 -27 -5 -191 -45 -208 -50 -3 -1 -23 -5
-45 -10 -56 -13 -55 -12 -57 -15 -3 -2 -12 -4 -58 -13 -14 -3 -101 -24 -195
-47 -93 -23 -177 -43 -185 -45 -8 -2 -44 -10 -79 -20 -34 -9 -69 -15 -77 -13
-8 2 -562 551 -1232 1221 -670 669 -1226 1217 -1235 1217 -9 0 -17 4 -17 8 0
10 -2 10 -90 16 -39 2 -79 -1 -100 -9z"/>
<path d="M362 7150 c-103 -34 -163 -115 -164 -219 -1 -103 -1 -102 352 -461
156 -158 181 -179 229 -195 188 -62 360 111 295 297 -16 45 -45 79 -199 237
-264 270 -317 321 -331 321 -7 0 -14 4 -16 9 -1 6 -25 13 -53 17 -27 3 -52 7
-55 9 -3 1 -29 -5 -58 -15z"/>
<path d="M4665 7138 c-61 -13 -97 -33 -138 -78 -73 -78 -88 -188 -39 -280 33
-63 566 -601 626 -632 48 -24 136 -33 196 -18 25 6 56 13 70 16 20 4 153 35
213 50 9 2 25 6 35 8 9 2 78 18 152 36 74 17 142 33 151 35 9 2 34 8 54 14 21
6 42 8 46 5 4 -2 10 0 13 5 3 5 27 12 53 16 201 30 306 178 248 349 -45 131
-179 193 -332 152 -29 -8 -53 -12 -53 -10 0 3 -9 0 -19 -6 -11 -5 -32 -12 -48
-14 -15 -2 -35 -6 -43 -8 -15 -5 -186 -45 -225 -52 -11 -2 -69 -16 -130 -31
-60 -15 -119 -28 -130 -30 -11 -1 -27 -6 -36 -9 -12 -5 -76 52 -243 219 -231
231 -268 260 -346 268 -19 2 -53 0 -75 -5z"/>
<path d="M2435 6489 c-78 -18 -142 -69 -171 -137 -21 -48 -20 -137 1 -187 12
-29 210 -231 724 -742 1004 -1000 992 -989 1031 -1009 46 -23 139 -27 191 -6
119 47 177 191 125 315 -9 23 -178 198 -483 502 -257 256 -639 636 -848 845
-231 230 -396 386 -421 399 -45 24 -102 31 -149 20z"/>
<path d="M1471 6058 c-142 -38 -222 -203 -166 -343 12 -30 251 -274 991 -1011
834 -831 974 -975 970 -995 -2 -13 -18 -80 -36 -149 -18 -69 -34 -136 -36
-150 -3 -14 -8 -34 -11 -45 -8 -23 -9 -28 -17 -72 -3 -18 -10 -42 -15 -55 -5
-13 -9 -26 -9 -31 0 -4 -8 -41 -17 -82 -9 -41 -17 -78 -17 -82 0 -5 -4 -15 -9
-24 -4 -9 -11 -31 -14 -50 -3 -19 -18 -81 -32 -138 -14 -57 -26 -109 -27 -115
-2 -6 -8 -29 -14 -51 -6 -22 -13 -51 -16 -65 -2 -14 -12 -54 -21 -90 -9 -36
-19 -76 -21 -90 -3 -14 -10 -43 -16 -65 -7 -22 -13 -47 -13 -55 -1 -8 -5 -25
-9 -37 -4 -12 -9 -31 -11 -42 -10 -46 -13 -58 -23 -96 -6 -22 -13 -51 -16 -65
-3 -14 -17 -72 -31 -130 -15 -58 -28 -112 -30 -120 -2 -8 -13 -53 -25 -100
-25 -96 -24 -89 -16 -153 9 -62 74 -167 105 -167 6 0 11 -4 11 -9 0 -5 10 -12
23 -16 12 -4 24 -8 27 -9 33 -13 99 -16 144 -6 76 16 157 91 179 167 14 46
113 447 122 490 2 10 13 56 25 103 12 47 23 90 24 95 13 55 42 175 52 220 3
11 6 25 8 30 8 27 65 265 71 295 2 8 4 16 5 18 3 2 3 2 15 57 4 22 9 45 11 50
2 6 5 19 8 30 2 11 27 115 55 230 45 184 60 244 76 305 5 21 46 192 50 210 2
8 9 40 17 70 14 53 16 112 5 157 -17 68 41 9 -1672 1712 -231 229 -433 426
-450 438 -52 35 -138 48 -204 31z"/>
<path d="M152 6043 c-47 -16 -115 -77 -127 -111 -3 -12 -10 -22 -15 -22 -5 0
-8 -39 -7 -87 2 -97 11 -117 92 -199 22 -23 123 -129 225 -235 102 -106 210
-218 240 -249 30 -31 138 -142 239 -248 222 -230 261 -253 383 -227 48 11 138
77 138 103 0 4 5 13 12 20 30 30 30 153 0 211 -12 23 -76 97 -141 164 -122
125 -163 167 -425 440 -319 332 -402 414 -436 430 -49 23 -127 27 -178 10z"/>
<path d="M8818 5199 c-7 -4 -27 -9 -45 -12 -17 -3 -35 -7 -40 -10 -4 -3 -24
-8 -43 -11 -19 -3 -71 -15 -115 -27 -44 -11 -91 -23 -105 -25 -14 -3 -43 -10
-65 -16 -22 -5 -47 -11 -55 -13 -8 -2 -35 -8 -60 -15 -25 -7 -52 -13 -60 -15
-8 -2 -33 -8 -55 -14 -22 -5 -55 -13 -74 -16 -19 -3 -37 -8 -41 -10 -3 -2 -17
-6 -31 -9 -13 -2 -60 -13 -104 -25 -64 -16 -363 -89 -437 -107 -10 -2 -27 -6
-38 -9 -11 -3 -28 -7 -38 -9 -10 -2 -47 -11 -83 -20 -35 -9 -73 -18 -84 -21
-11 -2 -38 -9 -60 -15 -43 -11 -370 -90 -395 -95 -8 -2 -107 -26 -220 -54
-113 -28 -216 -53 -230 -55 -14 -3 -50 -12 -80 -21 -30 -8 -71 -18 -90 -21
-19 -3 -38 -8 -43 -11 -4 -2 -20 -7 -35 -9 -15 -3 -72 -17 -127 -30 -55 -14
-107 -27 -115 -29 -8 -2 -44 -11 -80 -20 -36 -9 -76 -18 -90 -21 -14 -3 -68
-16 -120 -29 -52 -14 -171 -43 -265 -66 -93 -22 -178 -42 -187 -45 -10 -2 -26
-6 -35 -8 -10 -2 -45 -11 -78 -20 -33 -8 -73 -17 -90 -20 -16 -3 -54 -12 -82
-20 -29 -8 -53 -11 -53 -8 0 3 -5 1 -12 -6 -7 -7 -18 -12 -25 -12 -16 0 -69
-36 -96 -65 -24 -26 -65 -112 -71 -150 -2 -16 -5 -30 -6 -30 -1 0 -3 -7 -5
-15 -1 -8 -8 -35 -15 -60 -7 -25 -12 -45 -12 -45 1 0 -16 -69 -37 -150 -12
-44 -23 -89 -26 -100 -2 -11 -16 -65 -30 -120 -28 -104 -33 -125 -41 -162 -2
-12 -9 -35 -15 -50 -6 -16 -10 -29 -10 -30 1 -2 1 -4 0 -5 0 -2 -2 -10 -4 -18
-7 -34 -47 -194 -85 -340 -23 -85 -43 -166 -46 -180 -3 -13 -21 -85 -40 -158
-20 -73 -37 -141 -39 -150 -2 -9 -16 -62 -30 -117 -30 -120 -26 -101 -64 -255
-18 -69 -36 -138 -41 -155 -5 -16 -11 -41 -14 -55 -3 -14 -19 -79 -36 -145
-18 -66 -34 -129 -36 -140 -2 -11 -12 -49 -22 -85 -29 -103 -28 -166 2 -223
33 -61 51 -80 103 -107 47 -24 113 -32 158 -18 17 6 36 10 43 11 24 1 93 70
112 111 15 33 50 157 86 306 2 8 12 49 24 90 11 41 23 91 26 110 3 19 7 37 9
40 2 3 51 195 110 425 58 231 109 427 112 435 6 16 8 26 17 75 2 17 5 31 7 33
1 1 3 7 4 12 1 6 3 11 5 13 1 1 3 9 5 17 2 8 11 44 20 80 8 36 17 72 19 80 2
8 21 80 41 160 31 121 48 187 79 315 2 6 8 30 15 55 7 25 14 52 16 60 2 8 8
35 15 60 7 25 13 52 15 60 2 8 11 44 20 80 10 36 18 70 18 77 0 6 16 15 36 19
20 4 38 8 41 9 3 0 86 20 185 44 99 24 205 50 235 58 30 9 62 17 70 18 22 3
47 10 230 55 91 23 176 43 190 46 14 3 52 12 85 21 33 8 71 17 85 19 14 3 32
7 40 10 8 4 24 8 35 10 11 2 56 13 100 24 44 11 89 22 100 25 49 10 63 14 121
29 33 8 71 18 85 20 13 2 24 5 24 6 0 2 76 20 105 25 8 1 22 5 30 8 8 3 83 21
165 41 83 20 206 50 275 66 69 17 136 33 150 36 14 3 34 8 45 11 21 7 26 8 65
16 14 3 63 15 110 27 47 12 96 24 110 26 14 3 34 8 45 11 11 4 25 8 30 9 6 1
60 14 120 29 61 14 117 28 125 30 8 2 44 11 80 20 36 9 74 19 85 21 11 2 74
17 140 33 66 16 131 32 145 35 22 4 226 54 415 101 90 23 122 39 162 82 57 61
73 135 51 234 -12 54 -83 122 -148 144 -48 16 -118 18 -142 4z"/>
<path d="M1757 4443 c-3 -2 -14 -5 -25 -8 -36 -7 -111 -64 -136 -104 -48 -76
-55 -169 -20 -246 12 -26 118 -140 293 -317 152 -153 279 -285 284 -294 6 -10
1 -48 -13 -107 -12 -51 -24 -103 -27 -117 -8 -42 -11 -55 -13 -55 -1 0 -3 -11
-6 -24 -2 -13 -18 -78 -34 -145 -45 -185 -49 -224 -31 -278 53 -154 202 -221
348 -158 43 19 103 70 103 87 0 6 6 16 14 22 8 7 18 27 21 44 4 18 22 95 40
172 19 77 37 155 40 174 3 19 8 38 11 43 5 7 7 17 19 78 3 14 20 86 38 160 42
167 42 227 1 299 -40 69 -686 722 -745 752 -38 19 -150 35 -162 22z"/>
<path d="M7515 3733 c-121 -29 -229 -55 -240 -58 -11 -2 -40 -9 -65 -16 -25
-6 -52 -12 -60 -14 -8 -2 -71 -17 -140 -35 -69 -17 -136 -33 -149 -36 -14 -3
-86 -20 -160 -39 -75 -19 -148 -36 -163 -39 -15 -2 -31 -7 -36 -10 -5 -3 -22
-7 -38 -10 -16 -3 -94 -22 -174 -41 -79 -20 -153 -38 -165 -40 -11 -2 -20 -4
-20 -5 0 -2 -19 -7 -57 -15 -15 -3 -38 -9 -52 -15 -13 -5 -26 -6 -29 -3 -3 3
-12 1 -19 -3 -7 -5 -21 -10 -31 -11 -10 -2 -73 -17 -140 -34 -121 -30 -175
-55 -210 -94 -22 -24 -65 -115 -70 -147 -4 -27 -87 -376 -95 -398 -6 -18 -3
-7 -36 -145 -15 -60 -28 -117 -30 -125 -19 -75 -49 -198 -51 -210 -2 -8 -31
-127 -65 -265 -33 -137 -63 -261 -66 -275 -3 -14 -8 -34 -11 -45 -4 -11 -8
-24 -9 -30 -1 -5 -27 -114 -58 -241 -62 -254 -65 -299 -25 -370 92 -166 331
-176 434 -19 10 17 20 35 21 40 1 6 10 39 19 75 8 36 18 73 20 83 2 10 7 27
10 37 3 10 8 27 10 37 2 10 9 41 15 68 6 28 14 59 16 70 2 11 18 72 34 135 17
63 32 124 34 135 2 11 11 52 21 90 9 39 18 77 20 85 8 35 96 396 125 510 17
69 33 136 36 150 3 14 7 32 9 40 2 8 4 15 5 15 1 0 4 11 6 25 3 14 9 43 15 65
12 43 17 66 25 105 3 14 8 34 11 45 4 11 8 25 9 31 5 27 16 55 21 51 2 -3 19
-1 36 4 18 6 39 12 48 14 9 2 34 8 54 14 21 6 42 8 47 5 4 -3 8 0 8 7 0 7 3
10 6 7 3 -3 31 1 62 9 31 8 64 16 72 18 8 2 35 8 60 15 25 7 52 13 60 15 8 2
128 31 265 65 138 34 261 64 275 66 14 3 39 9 55 14 17 5 41 11 55 14 29 6 30
6 185 45 66 16 208 50 315 76 107 26 216 53 241 61 215 68 251 348 59 462 -33
19 -62 28 -115 36 -11 1 -119 -21 -240 -51z"/>
<path d="M7318 2655 c-2 -3 -20 -6 -38 -9 -19 -2 -98 -18 -175 -36 -77 -17
-156 -33 -175 -36 -19 -3 -38 -8 -41 -10 -3 -2 -21 -6 -40 -9 -144 -24 -319
-69 -351 -90 -45 -30 -89 -76 -82 -87 3 -4 1 -8 -4 -8 -11 0 -9 8 -61 -185
-23 -82 -48 -174 -57 -202 -9 -29 -17 -60 -19 -70 -2 -10 -4 -18 -5 -18 -2 0
-5 -14 -23 -95 -23 -104 -3 -181 64 -249 36 -36 113 -76 128 -66 5 3 12 1 15
-4 7 -10 65 -5 116 11 84 26 147 101 170 204 16 68 15 65 28 109 6 22 14 58
18 80 3 22 9 47 14 55 4 8 10 31 14 52 6 34 10 37 59 49 29 7 61 14 72 15 11
2 31 6 45 9 14 3 39 8 55 11 17 3 46 9 65 14 19 5 51 12 70 15 19 3 51 10 71
15 19 6 48 11 65 13 216 27 329 176 270 354 -24 73 -99 143 -169 160 -32 7
-95 12 -99 8z"/>
</g>
</svg>
