<svg xmlns="http://www.w3.org/2000/svg" width="27" height="27" viewBox="0 0 27 27" fill="none">
  <path d="M6.99472 24.0831C7.53685 24.3621 8.27498 25.0141 8.84793 24.7754C9.22332 24.6213 9.44301 23.748 9.67615 23.2873C11.4306 19.829 13.3391 15.8958 14.7276 12.5315C14.7276 12.3814 14.8067 12.2644 14.6881 12.0605C15.4658 10.7961 15.9921 9.40755 16.8416 8.00084C17.1103 7.55354 17.3838 6.93396 17.7607 6.75457L18.4562 6.46374C19.3413 6.23614 19.9893 6.24404 20.6058 6.83755C20.9187 7.14102 21.0625 7.64047 21.3644 7.94078C21.5699 8.14626 22.3499 8.65204 22.64 8.57301C22.8652 8.51216 23.0509 8.28535 23.209 7.99768L23.759 6.98138C23.9131 6.69213 24.0008 6.41396 23.9289 6.1911C23.8364 5.90659 22.9869 5.52726 22.7024 5.46878C22.2851 5.37947 21.7904 5.532 21.3652 5.43717C20.5299 5.24434 20.1695 4.70773 19.8771 3.84079C17.8169 2.6285 15.0422 1.84138 11.8115 2.85689C10.9343 3.13349 10.095 3.34212 9.51967 3.90243C9.4035 4.22803 9.63189 4.29283 9.87135 4.28967C9.68326 4.45958 9.38137 4.55837 9.55523 4.95904C11.527 4.05338 15.3559 3.74043 15.6167 5.59443C15.672 6.00696 15.3038 6.57438 15.0769 7.0446C14.3617 8.52559 13.4885 9.72682 12.8539 11.0671C12.6184 11.0814 12.5646 11.2094 12.439 11.2947C10.3803 14.2978 8.13035 18.0438 6.19574 21.4056C5.93732 21.8529 5.32643 22.5136 5.40309 22.9119C5.51689 23.5204 6.45416 23.8049 6.99472 24.0847V24.0831Z" fill="#F7F3E9"/>
</svg>