<svg xmlns="http://www.w3.org/2000/svg" width="27" height="28" viewBox="0 0 27 28" fill="none">
  <g clip-path="url(#clip0_2387_16620)">
    <path fill-rule="evenodd" clip-rule="evenodd" d="M7.54502 3.07124H19.3263H22.4267V11.0805H17.6728V7.41172C17.6728 7.2567 17.5695 7.10168 17.3628 7.10168C17.2078 7.10168 17.0527 7.2567 17.0527 7.41172V11.0805H13.0223V7.41172C13.0223 7.2567 12.8673 7.10168 12.7123 7.10168C12.5572 7.10168 12.4022 7.2567 12.4022 7.41172V11.0805H8.37178V7.41172C8.37178 7.2567 8.21676 7.10168 8.06174 7.10168C7.90673 7.10168 7.75171 7.2567 7.75171 7.41172V11.0805H4.44468V3.07124H7.54502ZM25.4997 20.9021C25.8757 21.1647 26.234 21.4149 26.6638 21.4149C26.8188 21.4149 26.9738 21.3116 26.9738 21.1049C26.9738 20.9499 26.8188 20.7949 26.6638 20.7949C26.3538 20.7949 26.0437 20.5365 25.682 20.2265C25.6311 20.1883 25.5795 20.1486 25.527 20.1082C25.1534 19.8209 24.74 19.503 24.2869 19.503C24.0802 19.503 23.8218 19.6064 23.6151 19.7097L25.1136 16.4544V16.351V11.3905C25.1136 11.1838 25.0103 11.0805 24.8036 11.0805H23.0467V2.76121C23.0467 2.60619 22.8917 2.45117 22.7367 2.45117H19.6364H19.0163H7.85505H7.23498H4.13464C3.92795 2.45117 3.82461 2.60619 3.82461 2.76121V11.0805H2.01608C1.86106 11.0805 1.70604 11.1838 1.70604 11.3905V16.5061C1.70604 16.5319 1.71896 16.5577 1.73188 16.5836C1.7448 16.6094 1.75771 16.6352 1.75771 16.6611L3.61792 20.6398C3.4629 20.7432 3.30789 20.7949 3.20454 20.7949C2.89451 20.7949 2.5328 20.5365 2.22277 20.2265C2.11856 20.157 2.01694 20.0823 1.91618 20.0083C1.56726 19.7519 1.22855 19.503 0.827612 19.503C0.672595 19.503 0.517578 19.6581 0.517578 19.8131C0.517578 20.0198 0.672595 20.1231 0.827612 20.1231C1.09827 20.1231 1.36892 20.3594 1.67395 20.6257C1.71834 20.6644 1.76344 20.7038 1.80939 20.7432C1.82226 20.7528 1.83517 20.7625 1.84814 20.7723C2.25177 21.0754 2.7039 21.4149 3.20454 21.4149C3.56625 21.4149 3.87628 21.2599 4.18632 21.0015H4.23799C4.34133 20.8982 4.44468 20.7949 4.54802 20.7432C4.90973 20.4332 5.27144 20.1231 5.5298 20.1231C5.78816 20.1231 6.14987 20.4332 6.51157 20.7432C6.52577 20.7538 6.54002 20.7645 6.55434 20.7753C6.95689 21.0776 7.40597 21.4149 7.85505 21.4149C8.35569 21.4149 8.80782 21.0754 9.21145 20.7723C9.22442 20.7625 9.23734 20.7528 9.25021 20.7432C9.29615 20.7038 9.34126 20.6644 9.38564 20.6257C9.69067 20.3594 9.96133 20.1231 10.232 20.1231C10.4903 20.1231 10.852 20.4332 11.2138 20.7432C11.228 20.7538 11.2422 20.7645 11.2565 20.7753C11.6591 21.0776 12.1082 21.4149 12.5572 21.4149C13.0579 21.4149 13.51 21.0754 13.9136 20.7723C13.9266 20.7625 13.9395 20.7528 13.9524 20.7432C14.2624 20.4332 14.6241 20.1231 14.9342 20.1231C15.1925 20.1231 15.5542 20.4332 15.9159 20.7432C15.9593 20.7757 16.0027 20.8088 16.0462 20.8421C16.4172 21.1252 16.7969 21.4149 17.2594 21.4149C17.6892 21.4149 18.0475 21.1647 18.4235 20.9021C18.4996 20.849 18.5763 20.7953 18.6546 20.7432C18.9646 20.4332 19.3263 20.1231 19.6364 20.1231C19.8947 20.1231 20.2564 20.4332 20.5665 20.7432C20.6447 20.7953 20.7215 20.849 20.7975 20.9021C21.1735 21.1647 21.5318 21.4149 21.9616 21.4149C22.3233 21.4149 22.685 21.2599 22.9951 21.0015C22.9951 20.9499 23.0467 20.9499 23.0467 20.9499C23.1073 20.8893 23.1678 20.8465 23.218 20.8111C23.2534 20.786 23.2837 20.7646 23.3051 20.7432C23.6668 20.4332 24.0285 20.1231 24.2869 20.1231C24.5969 20.1231 24.9586 20.4332 25.2686 20.7432C25.3469 20.7953 25.4237 20.849 25.4997 20.9021ZM4.18632 20.2265L4.13464 20.2781L2.32611 16.4544V11.7005H4.13464H22.7367H24.4936V16.2994L22.5817 20.5365C22.375 20.6915 22.1683 20.7949 21.9616 20.7949C21.7032 20.7949 21.3415 20.5365 20.9798 20.2265C20.9248 20.1852 20.8688 20.142 20.812 20.0983C20.4425 19.8136 20.0394 19.503 19.6364 19.503C19.1832 19.503 18.7699 19.8209 18.3962 20.1082C18.3438 20.1486 18.2921 20.1883 18.2412 20.2265C17.8795 20.5365 17.5695 20.7949 17.2594 20.7949C17.0011 20.7949 16.6394 20.5365 16.2776 20.2265C16.2226 20.1852 16.1666 20.142 16.1098 20.0983C15.7404 19.8136 15.3373 19.503 14.9342 19.503C14.4811 19.503 14.0677 19.8209 13.694 20.1082C13.6416 20.1486 13.5899 20.1883 13.539 20.2265C13.229 20.5365 12.8673 20.7949 12.5572 20.7949C12.2989 20.7949 11.9372 20.5365 11.5755 20.2265C11.5041 20.1729 11.4327 20.1164 11.3609 20.0593C11.0163 19.786 10.6595 19.503 10.232 19.503C9.83105 19.503 9.49233 19.7519 9.14342 20.0083C9.04265 20.0823 8.94104 20.157 8.83683 20.2265C8.52679 20.5365 8.16509 20.7949 7.85505 20.7949C7.59669 20.7949 7.23498 20.5365 6.92495 20.2265C6.82074 20.157 6.71913 20.0823 6.61836 20.0083C6.26945 19.7519 5.93073 19.503 5.5298 19.503C5.10227 19.503 4.74549 19.786 4.40092 20.0593C4.32903 20.1164 4.25767 20.1729 4.18632 20.2265ZM25.3847 23.366C25.8038 23.695 26.1904 23.9985 26.6638 23.9985C26.8188 23.9985 26.9738 23.8435 26.9738 23.6885C26.9738 23.5335 26.8188 23.3785 26.6638 23.3785C26.4244 23.3785 26.1851 23.1937 25.922 22.9906C25.8443 22.9306 25.7645 22.869 25.682 22.8101C25.2686 22.4484 24.8036 22.0867 24.2869 22.0867C23.8218 22.0867 23.3568 22.4484 22.9434 22.8101C22.8779 22.8569 22.8123 22.9054 22.7474 22.9534C22.454 23.1706 22.1732 23.3785 21.9616 23.3785C21.7501 23.3785 21.4692 23.1706 21.1758 22.9534C21.1109 22.9054 21.0454 22.8569 20.9798 22.8101C20.5665 22.4484 20.1014 22.0867 19.6364 22.0867C19.1196 22.0867 18.6546 22.4484 18.2412 22.8101C18.1587 22.869 18.0789 22.9306 18.0012 22.9906C17.7381 23.1937 17.4988 23.3785 17.2594 23.3785C17.0479 23.3785 16.767 23.1706 16.4736 22.9534C16.4087 22.9054 16.3432 22.8569 16.2776 22.8101C15.8643 22.4484 15.3992 22.0867 14.9342 22.0867C14.4174 22.0867 13.9524 22.4484 13.539 22.8101C13.5294 22.8181 13.5197 22.8262 13.5099 22.8343C13.2065 23.0874 12.8576 23.3785 12.5572 23.3785C12.3457 23.3785 12.0648 23.1706 11.7714 22.9534C11.7065 22.9054 11.641 22.8569 11.5755 22.8101C11.1621 22.4484 10.7487 22.0867 10.232 22.0867C9.75862 22.0867 9.37199 22.3902 8.95291 22.7192C8.91452 22.7494 8.87586 22.7797 8.83683 22.8101C8.82719 22.8181 8.81749 22.8262 8.80776 22.8343C8.50435 23.0874 8.15545 23.3785 7.85505 23.3785C7.60621 23.3785 7.26149 23.0909 6.95941 22.8388C6.94786 22.8292 6.93637 22.8196 6.92495 22.8101C6.88592 22.7797 6.84726 22.7494 6.80887 22.7192C6.38979 22.3902 6.00316 22.0867 5.5298 22.0867C5.01307 22.0867 4.59969 22.4484 4.18632 22.8101C4.12078 22.8569 4.05525 22.9054 3.99034 22.9534C3.69694 23.1706 3.4161 23.3785 3.20454 23.3785C2.90415 23.3785 2.55525 23.0874 2.25184 22.8343C2.2421 22.8262 2.23241 22.8181 2.22277 22.8101C2.18374 22.7797 2.14508 22.7494 2.10668 22.7192C1.68761 22.3902 1.30097 22.0867 0.827612 22.0867C0.672595 22.0867 0.517578 22.2417 0.517578 22.3967C0.517578 22.5517 0.672595 22.7067 0.827612 22.7067C1.06696 22.7067 1.30631 22.8915 1.56943 23.0946C1.64714 23.1546 1.72692 23.2162 1.80939 23.2751C2.22277 23.6368 2.68782 23.9985 3.20454 23.9985C3.66959 23.9985 4.13464 23.6368 4.54802 23.2751C4.61355 23.2283 4.67908 23.1798 4.744 23.1318C5.0374 22.9146 5.31824 22.7067 5.5298 22.7067C5.74135 22.7067 6.0222 22.9146 6.31559 23.1318C6.38051 23.1798 6.44604 23.2283 6.51157 23.2751C6.92495 23.6368 7.39 23.9985 7.85505 23.9985C8.37178 23.9985 8.83683 23.6368 9.25021 23.2751C9.33267 23.2162 9.41246 23.1546 9.49017 23.0946C9.75329 22.8915 9.99263 22.7067 10.232 22.7067C10.4435 22.7067 10.7244 22.9146 11.0178 23.1318C11.0827 23.1798 11.1482 23.2283 11.2138 23.2751C11.6271 23.6368 12.0922 23.9985 12.5572 23.9985C13.074 23.9985 13.539 23.6368 13.9524 23.2751C13.962 23.2671 13.9717 23.259 13.9815 23.2509C14.2849 22.9978 14.6338 22.7067 14.9342 22.7067C15.1457 22.7067 15.4266 22.9146 15.72 23.1318C15.7849 23.1798 15.8504 23.2283 15.9159 23.2751C16.3293 23.6368 16.7427 23.9985 17.2594 23.9985C17.7328 23.9985 18.1194 23.695 18.5385 23.366C18.5769 23.3358 18.6155 23.3055 18.6546 23.2751C18.6642 23.2671 18.6739 23.259 18.6836 23.2509C18.9871 22.9978 19.336 22.7067 19.6364 22.7067C19.8852 22.7067 20.2299 22.9944 20.532 23.2464C20.5435 23.256 20.555 23.2656 20.5665 23.2751C20.6055 23.3055 20.6441 23.3358 20.6825 23.366C21.1016 23.695 21.4882 23.9985 21.9616 23.9985C22.4783 23.9985 22.8917 23.6368 23.3051 23.2751C23.3706 23.2283 23.4361 23.1798 23.5011 23.1318C23.7945 22.9146 24.0753 22.7067 24.2869 22.7067C24.5873 22.7067 24.9362 22.9978 25.2396 23.2509C25.2493 23.259 25.259 23.2671 25.2686 23.2751C25.3077 23.3055 25.3463 23.3358 25.3847 23.366Z" fill="#F7F3E9"/>
    <path fill-rule="evenodd" clip-rule="evenodd" d="M19.327 3.07227H7.54565H4.44531V11.0815H7.75234V7.41274C7.75234 7.25773 7.90736 7.10271 8.06238 7.10271C8.2174 7.10271 8.37241 7.25773 8.37241 7.41274V11.0815H12.4029V7.41274C12.4029 7.25773 12.5579 7.10271 12.7129 7.10271C12.8679 7.10271 13.0229 7.25773 13.0229 7.41274V11.0815H17.0534V7.41274C17.0534 7.25773 17.2084 7.10271 17.3634 7.10271C17.5701 7.10271 17.6734 7.25773 17.6734 7.41274V11.0815H22.4273V3.07227H19.327Z" fill="#C76210"/>
    <path fill-rule="evenodd" clip-rule="evenodd" d="M22.7368 11.6992H4.1347H2.32617V16.4531L4.1347 20.2768L4.18638 20.2252C4.59976 19.9151 5.01313 19.5017 5.52986 19.5017C6.04658 19.5017 6.45996 19.9151 6.92501 20.2252C7.23505 20.5352 7.59675 20.7936 7.85511 20.7936C8.16515 20.7936 8.52686 20.5352 8.83689 20.2252C9.30194 19.9151 9.71532 19.5017 10.232 19.5017C10.7488 19.5017 11.1621 19.9151 11.5755 20.2252C11.9372 20.5352 12.2989 20.7936 12.5573 20.7936C12.8673 20.7936 13.229 20.5352 13.5391 20.2252C13.9525 19.9151 14.4175 19.5017 14.9342 19.5017C15.3993 19.5017 15.8643 19.9151 16.2777 20.2252C16.6394 20.5352 17.0011 20.7936 17.2595 20.7936C17.5695 20.7936 17.8796 20.5352 18.2413 20.2252C18.6546 19.9151 19.1197 19.5017 19.6364 19.5017C20.1015 19.5017 20.5665 19.9151 20.9799 20.2252C21.3416 20.5352 21.7033 20.7936 21.9617 20.7936C22.1684 20.7936 22.375 20.6902 22.5817 20.5352L24.4936 16.2981V11.6992H22.7368Z" fill="#F7F3E9"/>
  </g>
  <defs>
    <clipPath id="clip0_2387_16620">
      <rect width="26.4562" height="26.4562" fill="white" transform="translate(0.517578 0.6875)"/>
    </clipPath>
  </defs>
</svg>