<svg xmlns="http://www.w3.org/2000/svg" width="32" height="32" viewBox="0 0 32 32" fill="none">
  <path fill-rule="evenodd" clip-rule="evenodd" d="M24.598 22.9519H8.5645L9.47957 17.7644H23.683L24.598 22.9519ZM24.9632 25.0269H8.1993L7.75836 27.5273C7.74651 27.5944 7.72155 27.6585 7.68492 27.7159C7.6483 27.7734 7.60071 27.8231 7.54488 27.8622C7.48905 27.9012 7.42607 27.9289 7.35954 27.9436C7.29301 27.9584 7.22423 27.9598 7.15713 27.948C7.09003 27.9361 7.02592 27.9112 6.96846 27.8745C6.911 27.8379 6.86133 27.7903 6.82226 27.7345C6.7832 27.6787 6.75551 27.6157 6.74078 27.5492C6.72605 27.4826 6.72457 27.4138 6.73643 27.3467L9.83751 9.76112L9.88939 9.4644L10.8792 3.85152C10.891 3.78442 10.916 3.72032 10.9526 3.66287C10.9892 3.60541 11.0368 3.55572 11.0926 3.51665C11.1485 3.47758 11.2115 3.4499 11.278 3.43517C11.3445 3.42044 11.4133 3.41896 11.4804 3.43082C11.5475 3.44267 11.6116 3.46763 11.6691 3.50426C11.7265 3.54088 11.7762 3.58848 11.8153 3.64431C11.8543 3.70014 11.882 3.76312 11.8967 3.82965C11.9115 3.89617 11.913 3.96496 11.9011 4.03206L11.6749 5.3144H21.4876L21.2614 4.03102C21.2496 3.96391 21.2511 3.89513 21.2658 3.8286C21.2805 3.76207 21.3082 3.6991 21.3473 3.64327C21.3863 3.58744 21.436 3.53986 21.4935 3.50323C21.5509 3.4666 21.615 3.44164 21.6821 3.42979C21.7492 3.41793 21.818 3.41941 21.8845 3.43414C21.9511 3.44887 22.014 3.47656 22.0699 3.51562C22.1257 3.55469 22.1733 3.60436 22.2099 3.66182C22.2466 3.71928 22.2715 3.78339 22.2834 3.85049L23.2731 9.4644L23.325 9.76009L26.4271 27.3478C26.439 27.415 26.4375 27.4838 26.4227 27.5504C26.408 27.617 26.3803 27.68 26.3412 27.7359C26.302 27.7918 26.2523 27.8394 26.1948 27.8761C26.1373 27.9127 26.0731 27.9377 26.0059 27.9495C25.9387 27.9614 25.8699 27.9599 25.8033 27.9451C25.7367 27.9304 25.6737 27.9027 25.6178 27.8635C25.5619 27.8244 25.5143 27.7747 25.4776 27.7172C25.441 27.6597 25.416 27.5955 25.4042 27.5283L24.9632 25.0269ZM21.8538 7.3894H11.3087L10.9435 9.4644H22.219L21.8538 7.3894ZM22.5853 11.5394H10.5772L9.84582 15.6894H23.3167L22.5853 11.5394Z" fill="#F7F3E9" stroke="#F7F3E9" stroke-width="0.778125"/>
</svg>