<svg xmlns="http://www.w3.org/2000/svg" viewBox="0 0 130.1 73.41" style="">
                              <defs>
                                <style>
                                  .a304fd9f-94d7-4dae-a478-15bee07a4f8f,
                                  .b16c5f10-7f6d-4322-8488-2f8033a1bf58 {
                                    fill: none;
                                    stroke: #224a55;
                                    stroke-miterlimit: 10;
                                    stroke-width: 3px;
                                  }

                                  .b2599a2b-65cd-4538-aea0-ccc7f0df449a {
                                    fill: #4ee0a4;
                                  }

                                  .b16c5f10-7f6d-4322-8488-2f8033a1bf58 {
                                    stroke-linecap: round;
                                  }
                                </style>
                              </defs>
                              <g id="a0f28824-bed2-4126-b84f-aa808b5d81e7" data-name="Layer 2">
                                <g id="aa1c1174-7f9e-4005-98e7-5fc73f2d0c78" data-name="Layer 1">
                                  <path class="a304fd9f-94d7-4dae-a478-15bee07a4f8f wLlkFlsI_0" d="M96.43,39.37c-15,10.05-26.14-6.5-26.14-6.5-5.29-7.24-9.07.24-9.07.24-2.79,6.76-6.8,6.15-9.17,5a2.77,2.77,0,0,1-1.38-3.26l1.79-6.13a9.46,9.46,0,0,1,5.27-6l6.76-3c2.41-1.07,4.64-.82,7.62-.22l17.6,4.17Z">
                                  </path>
                                  <path class="a304fd9f-94d7-4dae-a478-15bee07a4f8f wLlkFlsI_1" d="M100.14,48.06,88.55,51.74,81.29,41.62s8.48,3.52,15.14-2.25Z"></path>
                                  <path class="b2599a2b-65cd-4538-aea0-ccc7f0df449a wLlkFlsI_2" d="M0,0L0,52.62L10.29,56.7L28.74,11.65L0,0Z"></path>
                                  <path class="a304fd9f-94d7-4dae-a478-15bee07a4f8f wLlkFlsI_3" d="M27.25,15.29L40.39,20.83L28.74,48.06L15.88,43.06"></path>
                                  <path class="b2599a2b-65cd-4538-aea0-ccc7f0df449a wLlkFlsI_4" d="M130.1,2.85L130.1,55.47L119.81,59.55L101.36,14.5L130.1,2.85Z"></path>
                                  <path class="a304fd9f-94d7-4dae-a478-15bee07a4f8f wLlkFlsI_5" d="M102.85,18.14L89.71,23.67L101.36,50.91L114.22,45.9"></path>
                                  <path class="b16c5f10-7f6d-4322-8488-2f8033a1bf58 wLlkFlsI_6" d="M80.43,41.56l10,12.53a3.54,3.54,0,0,1,.58,3.4h0a4.06,4.06,0,0,1-6.79,1.44L70.49,44.37">
                                  </path>
                                  <path class="b16c5f10-7f6d-4322-8488-2f8033a1bf58 wLlkFlsI_7" d="M64.42,51.22,76,63.3a6,6,0,0,0,10-2.22l.06-.2"></path>
                                  <path class="b16c5f10-7f6d-4322-8488-2f8033a1bf58 wLlkFlsI_8" d="M58.89,56.9l9.55,10.6a6.06,6.06,0,0,0,4.1,2.08c1.81.1,4.09-.59,6-3.73"></path>
                                  <path class="a304fd9f-94d7-4dae-a478-15bee07a4f8f wLlkFlsI_9" d="M40.39,20.83S50.91,20,59.48,21.92"></path>
                                  <path class="a304fd9f-94d7-4dae-a478-15bee07a4f8f wLlkFlsI_10" d="M30.78,43.29A236.87,236.87,0,0,1,58.35,66.51l4.48,4.29a3.9,3.9,0,0,0,6.57-2.08s0-.08,0-.13">
                                  </path>
                                  <path class="a304fd9f-94d7-4dae-a478-15bee07a4f8f wLlkFlsI_11" d="M38.36,49l-1.18,1.32a3,3,0,0,0,.34,4.36h0a3.36,3.36,0,0,0,4.65-.37L43.32,53">
                                  </path>
                                  <path class="a304fd9f-94d7-4dae-a478-15bee07a4f8f wLlkFlsI_12" d="M49.4,58.19,46.82,61a3.75,3.75,0,0,1-5.23.3h0A3.77,3.77,0,0,1,41.21,56l2.4-2.77">
                                  </path>
                                  <path class="a304fd9f-94d7-4dae-a478-15bee07a4f8f wLlkFlsI_13" d="M49.4,58.19,47.73,60a3.73,3.73,0,0,0,.21,5.25h0a3.73,3.73,0,0,0,5.26-.17L55,63.24">
                                  </path>
                                  <path class="a304fd9f-94d7-4dae-a478-15bee07a4f8f wLlkFlsI_14" d="M60.06,68.14l-.92.94a3.52,3.52,0,0,1-5,.09h0a3.52,3.52,0,0,1-.13-5l.66-.7">
                                  </path>
                                </g>
                              </g>
                              <style data-made-with="vivus-instant">
                                .wLlkFlsI_0 {
                                  stroke-dasharray: 123 125;
                                  stroke-dashoffset: 124;
                                  animation: wLlkFlsI_draw 2980ms linear 0ms forwards;
                                }

                                .wLlkFlsI_1 {
                                  stroke-dasharray: 51 53;
                                  stroke-dashoffset: 52;
                                  animation: wLlkFlsI_draw 2980ms linear 1ms forwards;
                                }

                                .wLlkFlsI_2 {
                                  stroke-dasharray: 144 146;
                                  stroke-dashoffset: 145;
                                  animation: wLlkFlsI_draw 2980ms linear 2ms forwards;
                                }

                                .wLlkFlsI_3 {
                                  stroke-dasharray: 58 60;
                                  stroke-dashoffset: 59;
                                  animation: wLlkFlsI_draw 2980ms linear 4ms forwards;
                                }

                                .wLlkFlsI_4 {
                                  stroke-dasharray: 144 146;
                                  stroke-dashoffset: 145;
                                  animation: wLlkFlsI_draw 2980ms linear 5ms forwards;
                                }

                                .wLlkFlsI_5 {
                                  stroke-dasharray: 58 60;
                                  stroke-dashoffset: 59;
                                  animation: wLlkFlsI_draw 2980ms linear 7ms forwards;
                                }

                                .wLlkFlsI_6 {
                                  stroke-dasharray: 48 50;
                                  stroke-dashoffset: 49;
                                  animation: wLlkFlsI_draw 2980ms linear 8ms forwards;
                                }

                                .wLlkFlsI_7 {
                                  stroke-dasharray: 30 32;
                                  stroke-dashoffset: 31;
                                  animation: wLlkFlsI_draw 2980ms linear 10ms forwards;
                                }

                                .wLlkFlsI_8 {
                                  stroke-dasharray: 27 29;
                                  stroke-dashoffset: 28;
                                  animation: wLlkFlsI_draw 2980ms linear 11ms forwards;
                                }

                                .wLlkFlsI_9 {
                                  stroke-dasharray: 20 22;
                                  stroke-dashoffset: 21;
                                  animation: wLlkFlsI_draw 2980ms linear 12ms forwards;
                                }

                                .wLlkFlsI_10 {
                                  stroke-dasharray: 51 53;
                                  stroke-dashoffset: 52;
                                  animation: wLlkFlsI_draw 2980ms linear 14ms forwards;
                                }

                                .wLlkFlsI_11 {
                                  stroke-dasharray: 14 16;
                                  stroke-dashoffset: 15;
                                  animation: wLlkFlsI_draw 2980ms linear 15ms forwards;
                                }

                                .wLlkFlsI_12 {
                                  stroke-dasharray: 20 22;
                                  stroke-dashoffset: 21;
                                  animation: wLlkFlsI_draw 2980ms linear 17ms forwards;
                                }

                                .wLlkFlsI_13 {
                                  stroke-dasharray: 17 19;
                                  stroke-dashoffset: 18;
                                  animation: wLlkFlsI_draw 2980ms linear 18ms forwards;
                                }

                                .wLlkFlsI_14 {
                                  stroke-dasharray: 14 16;
                                  stroke-dashoffset: 15;
                                  animation: wLlkFlsI_draw 2980ms linear 20ms forwards;
                                }

                                @keyframes wLlkFlsI_draw {
                                  100% {
                                    stroke-dashoffset: 0;
                                  }
                                }

                                @keyframes wLlkFlsI_fade {
                                  0% {
                                    stroke-opacity: 1;
                                  }

                                  94.44444444444444% {
                                    stroke-opacity: 1;
                                  }

                                  100% {
                                    stroke-opacity: 0;
                                  }
                                }
                              </style>
                            </svg>