<svg width="17" height="23" viewBox="0 0 17 23" fill="none" xmlns="http://www.w3.org/2000/svg">
<path id="Vector" d="M0.642946 13.6444C0.795624 13.858 0.976936 14.0565 1.18341 14.2361L10.5691 22.0707C10.9188 22.3652 11.3354 22.5991 11.7947 22.7586C12.254 22.9181 12.7469 23.0002 13.2447 23C13.7425 22.9998 14.2353 22.9174 14.6944 22.7576C15.1536 22.5977 15.57 22.3636 15.9193 22.0688C16.2687 21.7741 16.5441 21.4245 16.7296 21.0405C16.915 20.6565 17.0068 20.2457 16.9996 19.832C16.9924 19.4182 16.8864 19.0098 16.6876 18.6304C16.4889 18.251 16.2014 17.9082 15.842 17.622L7.93267 10.9598L9.96272 3.85938C10.077 3.45863 10.0951 3.04309 10.0162 2.63651C9.93727 2.22992 9.76276 1.84024 9.50264 1.48971C9.24252 1.13918 8.9019 0.834675 8.50021 0.593573C8.09852 0.35247 7.64363 0.179493 7.16152 0.0845222C6.6794 -0.0104504 6.17951 -0.0255547 5.69037 0.0400639C5.20123 0.105682 4.73244 0.250744 4.31074 0.466963C3.88905 0.68318 3.52272 0.966318 3.23266 1.30022C2.94261 1.63412 2.73452 2.01224 2.62027 2.41299L0.102478 11.179C-0.0182152 11.595 -0.0324726 12.0275 0.060627 12.4484C0.153728 12.8694 0.352114 13.2693 0.642946 13.6225" fill="#F0F6F5"/>
</svg>
