<svg xmlns="http://www.w3.org/2000/svg" viewBox="0 0 114.29 94.3"><defs><style>.fe6575d0-55c5-40c9-b4ef-d9c19aa641e6{fill:#4fe0a3;}.b088c130-e32e-4609-8b27-a5978722cdc1{fill:#244a54;}</style></defs><g id="a659b311-65b4-4539-a216-fd4e21c109bb" data-name="Layer 2"><g id="fc7dae62-d9bc-46fb-9b42-29a4d559cb75" data-name="Layer 1"><path class="fe6575d0-55c5-40c9-b4ef-d9c19aa641e6" d="M8.61,24.92,3.22,19.43a2.94,2.94,0,0,1,4.19-4.12l5.39,5.48a3,3,0,0,1,0,4.16h0a3,3,0,0,1-4.16,0"/><path class="b088c130-e32e-4609-8b27-a5978722cdc1" d="M48.66,10.86l-6.14-5.8A2.94,2.94,0,1,1,46.59.82l6.14,5.79a2.94,2.94,0,0,1-4.07,4.25"/><path class="b088c130-e32e-4609-8b27-a5978722cdc1" d="M40.89,84.82,47.6,57.31a3.84,3.84,0,0,0,.09-.75,3.2,3.2,0,0,0-.93-2.35l-25.16-25a3.18,3.18,0,1,0-4.49,4.5L41,57.46,34.72,83.31a3.18,3.18,0,1,0,6.17,1.51"/><path class="fe6575d0-55c5-40c9-b4ef-d9c19aa641e6" d="M50.94,90.79h0a2.94,2.94,0,0,1-2.12-3.58l8.56-33.47a3.16,3.16,0,0,1,2.29-2.27l51-12.42a2.93,2.93,0,0,1,3.55,2.16h0A2.94,2.94,0,0,1,112,44.76l-49.37,12L54.51,88.67a2.94,2.94,0,0,1-3.57,2.12"/><path class="fe6575d0-55c5-40c9-b4ef-d9c19aa641e6" d="M49.59,48.36,29,27.88a2.94,2.94,0,1,1,4.15-4.17l20.6,20.48a2.94,2.94,0,0,1-4.15,4.17"/><path class="b088c130-e32e-4609-8b27-a5978722cdc1" d="M20.16,19.1,8,7a2.94,2.94,0,0,1,4.14-4.17L24.31,14.93a2.94,2.94,0,1,1-4.15,4.17"/><path class="b088c130-e32e-4609-8b27-a5978722cdc1" d="M11.91,44.89.82,33.39a2.94,2.94,0,1,1,4.24-4.07l11.09,11.5a2.94,2.94,0,1,1-4.24,4.07"/><path class="fe6575d0-55c5-40c9-b4ef-d9c19aa641e6" d="M80.4,74.38a3.83,3.83,0,0,0-.34.67l-1.75,6.42a3.18,3.18,0,0,0,6,2.11l1.18-4.81,7.25-1.52A3.18,3.18,0,1,0,91.44,71l-9,1.89a3.2,3.2,0,0,0-2.06,1.46"/><path class="fe6575d0-55c5-40c9-b4ef-d9c19aa641e6" d="M65.63,27.55a3.19,3.19,0,0,0,.75-.08L77.31,24.9a3.17,3.17,0,0,0-1.5-6.17l-9.28,2.16-5.24-5.24a3.17,3.17,0,0,0-4.49,4.49l6.48,6.49a3.15,3.15,0,0,0,2.35.92"/><path class="fe6575d0-55c5-40c9-b4ef-d9c19aa641e6" d="M33.27,58a3.23,3.23,0,0,0-.46-.59l-7.92-8A3.18,3.18,0,1,0,20.42,54l6.71,6.76L25.42,68a3.18,3.18,0,1,0,6.18,1.46l2.12-8.92A3.17,3.17,0,0,0,33.27,58"/><path class="b088c130-e32e-4609-8b27-a5978722cdc1" d="M61.5,41.7a3.11,3.11,0,0,0,.74-.08L89.75,34.9a3.17,3.17,0,0,0,2.34-3.83h0a3.19,3.19,0,0,0-3.84-2.34L62.4,35,32.29,4.93A3.17,3.17,0,0,0,27.8,9.42L59.15,40.77a3.13,3.13,0,0,0,2.35.93"/><path class="b088c130-e32e-4609-8b27-a5978722cdc1" d="M96.32,56.91l-25,6.1a3.16,3.16,0,0,0-1.34.71l-.17.16-.15.17A3.17,3.17,0,0,0,69,65.39l-6.09,25A3.18,3.18,0,0,0,69,91.88l5.65-23.15,23.14-5.65a3.17,3.17,0,1,0-1.5-6.17"/></g></g></svg>