<svg xmlns="http://www.w3.org/2000/svg" width="48" height="48" viewBox="0 0 48 48" fill="none">
  <path opacity="0.3" d="M24 0C10.7368 0 0 10.7368 0 24C0 37.2632 10.7368 48 24 48C37.2632 48 48 37.2632 48 24C48 10.7368 37.2632 0 24 0ZM24 45.4737C12.1263 45.4737 2.52632 35.8737 2.52632 24C2.52632 12.1263 12.1263 2.52632 24 2.52632C35.8737 2.52632 45.4737 12.1263 45.4737 24C45.4737 35.8737 35.8737 45.4737 24 45.4737ZM25.7684 24L33.7263 16.0421C34.2316 15.5368 34.2316 14.7789 33.7263 14.2737C33.2211 13.7684 32.4632 13.7684 31.9579 14.2737L24 22.2316L16.0421 14.2737C15.5368 13.7684 14.7789 13.7684 14.2737 14.2737C13.7684 14.7789 13.7684 15.5368 14.2737 16.0421L22.2316 24L14.2737 31.9579C13.7684 32.4632 13.7684 33.2211 14.2737 33.7263C14.7789 34.2316 15.5368 34.2316 16.0421 33.7263L24 25.7684L31.9579 33.7263C32.4632 34.2316 33.2211 34.2316 33.7263 33.7263C34.2316 33.2211 34.2316 32.4632 33.7263 31.9579L25.7684 24Z" fill="#244A54"/>
</svg>