<svg xmlns="http://www.w3.org/2000/svg" width="24" height="24" viewBox="0 0 24 24" fill="none">
  <path d="M0 11.9988C0 12.0025 0.00199185 12.0055 0.00210704 12.0091C0.00629231 18.5103 5.27766 24.0002 12.0009 24.0002C18.5993 24.0002 24 18.6238 24 12.0012C24 5.34336 18.5644 -0.000244141 11.9991 -0.000244141C5.21066 -0.000244141 0.00935446 5.53978 0.00222221 11.9879C0.00210702 11.9917 0 11.9949 0 11.9988ZM3.73541 4.69509C4.66135 5.29838 5.6405 5.79587 6.66194 6.17971C6.22551 7.76405 5.96531 9.57542 5.92817 11.5189H0.974046C1.08695 8.90803 2.11108 6.53069 3.73541 4.69509ZM9.18145 1.32938C8.27337 2.24826 7.50422 3.6014 6.94205 5.26265C6.06216 4.92772 5.21303 4.50796 4.40884 3.99861C5.80628 2.67149 7.46235 1.77784 9.18145 1.32938ZM19.5913 3.99691C18.7876 4.50632 17.939 4.9259 17.0598 5.26098C16.5004 3.60861 15.7362 2.26103 14.8341 1.34271C16.6674 1.83246 18.2419 2.71632 19.5913 3.99691ZM23.0278 11.5189H18.0742C18.037 9.57478 17.7767 7.76294 17.3399 6.17822C18.3609 5.79422 19.3395 5.29663 20.2649 4.69336C21.8902 6.52922 22.9149 8.90721 23.0278 11.5189ZM20.2671 19.3066C19.3406 18.7041 18.3614 18.2071 17.3402 17.8235C17.7771 16.2377 18.0374 14.4244 18.0742 12.4788H23.028C22.9161 15.0911 21.8921 17.47 20.2671 19.3066ZM14.8402 22.6536C15.7397 21.7353 16.5018 20.3898 17.0599 18.7409C17.9396 19.0755 18.7889 19.4945 19.5937 20.0031C18.3118 21.2231 16.7323 22.147 14.8402 22.6536ZM4.41106 20.0059C5.21502 19.4964 6.06363 19.0768 6.9427 18.7417C7.5034 20.398 8.26998 21.7479 9.17483 22.6663C7.41309 22.2036 5.79334 21.3169 4.41106 20.0059ZM12.479 22.9883V17.8281C13.7288 17.8695 14.9544 18.0684 16.1319 18.4248C15.2819 20.9319 13.9613 22.676 12.479 22.9883ZM12.479 16.8694V12.4788H17.1144C17.0765 14.2908 16.8242 16.0047 16.4128 17.5051C15.1452 17.1213 13.8247 16.9112 12.479 16.8694ZM12.479 11.5189V7.1334C13.8252 7.09157 15.1456 6.8812 16.4128 6.497C16.8239 7.99622 17.0762 9.70845 17.1144 11.5189H12.479ZM12.479 6.17468V1.01402C13.9613 1.32633 15.2819 3.07045 16.1319 5.57756C14.9549 5.93428 13.7293 6.13322 12.479 6.17468ZM11.5191 1.01467V6.17467C10.2702 6.13328 9.04582 5.9348 7.86982 5.57882C8.719 3.07314 10.0381 1.32918 11.5191 1.01467ZM11.5191 7.1334V11.5189H6.88798C6.92618 9.70891 7.17834 7.99706 7.58917 6.49811C8.85511 6.88152 10.1742 7.0916 11.5191 7.1334ZM11.5191 12.4788V16.8694C10.1747 16.9113 8.8557 17.1216 7.58952 17.5056C7.17811 16.0051 6.92583 14.291 6.88798 12.4788H11.5191ZM11.5191 17.8281V22.9877C10.0384 22.6732 8.71947 20.9299 7.87034 18.4251C9.0464 18.0685 10.2706 17.8696 11.5191 17.8281ZM5.92811 12.4788C5.96496 14.4248 6.22533 16.2384 6.66247 17.8244C5.64167 18.2084 4.663 18.7061 3.7374 19.3095C2.11085 17.4725 1.08577 15.0924 0.973868 12.4788H5.92811Z" fill="#244A54"/>
</svg>