<svg xmlns="http://www.w3.org/2000/svg" width="24" height="25" viewBox="0 0 24 25" fill="none">
  <path d="M0 12.4788C0 12.4825 0.00199185 12.4854 0.00210704 12.4891C0.00629231 18.9903 5.27766 24.4802 12.0009 24.4802C18.5993 24.4802 24 19.1037 24 12.4811C24 5.82334 18.5644 0.479736 11.9991 0.479736C5.21066 0.479736 0.00935446 6.01976 0.00222221 12.4678C0.00210702 12.4717 0 12.4749 0 12.4788ZM3.73541 5.17507C4.66135 5.77836 5.6405 6.27585 6.66194 6.65969C6.22551 8.24403 5.96531 10.0554 5.92817 11.9988H0.974046C1.08695 9.38801 2.11108 7.01067 3.73541 5.17507ZM9.18145 1.80936C8.27337 2.72824 7.50422 4.08139 6.94205 5.74263C6.06216 5.4077 5.21303 4.98794 4.40884 4.47859C5.80628 3.15147 7.46235 2.25782 9.18145 1.80936ZM19.5913 4.47689C18.7876 4.9863 17.939 5.40588 17.0598 5.74096C16.5004 4.08859 15.7362 2.74101 14.8341 1.82269C16.6674 2.31244 18.2419 3.1963 19.5913 4.47689ZM23.0278 11.9988H18.0742C18.037 10.0548 17.7767 8.24292 17.3399 6.6582C18.3609 6.27421 19.3395 5.77661 20.2649 5.17334C21.8902 7.0092 22.9149 9.38719 23.0278 11.9988ZM20.2671 19.7865C19.3406 19.1841 18.3614 18.687 17.3402 18.3035C17.7771 16.7177 18.0374 14.9044 18.0742 12.9588H23.028C22.9161 15.5711 21.8921 17.9499 20.2671 19.7865ZM14.8402 23.1335C15.7397 22.2152 16.5018 20.8698 17.0599 19.2209C17.9396 19.5555 18.7889 19.9744 19.5937 20.4831C18.3118 21.7031 16.7323 22.627 14.8402 23.1335ZM4.41106 20.4859C5.21502 19.9764 6.06363 19.5568 6.9427 19.2217C7.5034 20.878 8.26998 22.2279 9.17483 23.1463C7.41309 22.6836 5.79334 21.7969 4.41106 20.4859ZM12.479 23.4683V18.3081C13.7288 18.3495 14.9544 18.5483 16.1319 18.9047C15.2819 21.4119 13.9613 23.156 12.479 23.4683ZM12.479 17.3493V12.9588H17.1144C17.0765 14.7708 16.8242 16.4847 16.4128 17.9851C15.1452 17.6013 13.8247 17.3912 12.479 17.3493ZM12.479 11.9988V7.61338C13.8252 7.57155 15.1456 7.36119 16.4128 6.97698C16.8239 8.4762 17.0762 10.1884 17.1144 11.9988H12.479ZM12.479 6.65466V1.494C13.9613 1.80631 15.2819 3.55043 16.1319 6.05754C14.9549 6.41426 13.7293 6.6132 12.479 6.65466ZM11.5191 1.49465V6.65465C10.2702 6.61326 9.04582 6.41479 7.86982 6.0588C8.719 3.55312 10.0381 1.80916 11.5191 1.49465ZM11.5191 7.61338V11.9988H6.88798C6.92618 10.1889 7.17834 8.47704 7.58917 6.97809C8.85511 7.3615 10.1742 7.57158 11.5191 7.61338ZM11.5191 12.9588V17.3494C10.1747 17.3913 8.8557 17.6016 7.58952 17.9856C7.17811 16.485 6.92583 14.771 6.88798 12.9588H11.5191ZM11.5191 18.3081V23.4676C10.0384 23.1532 8.71947 21.4099 7.87034 18.905C9.0464 18.5485 10.2706 18.3496 11.5191 18.3081ZM5.92811 12.9588C5.96496 14.9047 6.22533 16.7183 6.66247 18.3044C5.64167 18.6884 4.663 19.1861 3.7374 19.7895C2.11085 17.9525 1.08577 15.5724 0.973868 12.9588H5.92811Z" fill="white"/>
</svg>