<svg width="120" height="120" viewBox="0 0 120 120" fill="none" xmlns="http://www.w3.org/2000/svg">
<g id="logo 1">
<g id="Group">
<path id="Vector" d="M45.9514 69.2193H49.6977C50.2831 69.2193 50.7221 69.073 51.0148 68.8096C51.3075 68.5169 51.4538 67.9901 51.4538 67.2291V66.5852C51.4538 65.7657 51.3075 65.1803 51.0148 64.7706C50.7221 64.3901 50.2245 64.1852 49.4928 64.1852H48.9367L50.2245 62.634C50.3709 62.4876 50.3709 62.3706 50.2831 62.2828L49.1416 61.2291C48.9953 61.0827 48.8197 61.0827 48.6733 61.2876L46.6245 63.834C46.5367 63.9218 46.4782 64.0388 46.3904 64.1267C46.3026 64.2145 46.2733 64.3315 46.2733 64.4779V65.5901C46.2733 65.8828 46.4197 65.9998 46.6831 65.9998H48.4977C48.8489 65.9998 49.0831 66.0584 49.2002 66.1462C49.3172 66.234 49.3758 66.4681 49.3758 66.8193C49.3758 67.0828 49.3465 67.2584 49.2587 67.3462C49.1709 67.434 48.9953 67.4925 48.7026 67.4925H45.9514C45.7465 67.4925 45.6587 67.5803 45.6587 67.7852V68.9559C45.6587 69.1315 45.7465 69.2193 45.9514 69.2193Z" fill="white"/>
<path id="Vector_2" d="M102.937 69.1024C102.644 68.1951 102.234 67.4341 101.649 66.7902C101.063 66.1463 100.332 65.6488 99.4244 65.2976C98.5171 64.9463 97.4635 64.7707 96.2342 64.7707C95.0049 64.7707 93.922 65.0049 93.0147 65.4439C92.1074 65.8829 91.3171 66.4683 90.5854 67.1415C90.4976 67.2293 90.4683 67.2878 90.5269 67.3756C90.5561 67.4634 90.5854 67.5219 90.6439 67.6098L92.6049 70.2439C92.722 70.3317 92.8683 70.3317 93.0147 70.2146C93.3952 69.8927 93.8049 69.6293 94.2439 69.3658C94.683 69.1317 95.2098 69.0146 95.7952 69.0146C96.2635 69.0146 96.6439 69.1024 96.9659 69.2488C97.2878 69.3951 97.5513 69.6293 97.7269 69.8927C97.9317 70.1561 98.0488 70.478 98.1366 70.8C98.2244 71.1512 98.2537 71.4732 98.2537 71.8537C98.2537 72.5854 98.1074 73.0829 97.8147 73.3756C97.522 73.6683 96.9366 73.7854 96.0878 73.7854H88.6244C87.9805 73.7854 87.5122 73.639 87.1903 73.3756C86.8683 73.1122 86.6927 72.761 86.6342 72.3512V58.039C86.6342 57.8341 86.5464 57.7463 86.3415 57.7463H82.0098C81.8049 57.7463 81.7171 57.8341 81.7171 58.039V72.2049C81.7171 72.7902 81.6 73.2293 81.3952 73.4341C81.161 73.6683 80.8098 73.7854 80.3415 73.7854H79.6976C79.6683 73.7854 79.6391 73.7854 79.6098 73.7854C79.5805 73.7854 79.5805 73.7854 79.5513 73.7854H75.5415C75.483 73.7854 75.4537 73.7854 75.3952 73.7854C75.3659 73.7854 75.3074 73.7854 75.2488 73.7854H71.2391C71.1805 73.7854 71.1513 73.7854 71.0927 73.7854C71.0342 73.7854 71.0049 73.7854 70.9464 73.7854H66.9366C66.8781 73.7854 66.8488 73.7854 66.7903 73.7854C66.7317 73.7854 66.7025 73.7854 66.6439 73.7854H62.6342C62.6049 73.7854 62.5756 73.7854 62.5756 73.7854C62.5464 73.7854 62.5171 73.7854 62.5171 73.7854H61.6683C61.0537 73.7854 60.5561 73.639 60.2049 73.3756C59.8537 73.1122 59.6781 72.761 59.6781 72.3512V58.0683C59.6781 57.8634 59.5903 57.7756 59.3854 57.7756H56.9854C56.8098 57.7756 56.6049 57.7756 56.3415 57.7463C56.0781 57.7463 55.8439 57.7463 55.6098 57.7463C55.3756 57.7463 55.1708 57.7756 54.9952 57.8341C54.8195 57.8927 54.7317 57.9512 54.7317 58.0683V71.7658C54.7317 72.5268 54.6439 73.0537 54.4391 73.3463C54.2342 73.639 53.883 73.7854 53.2976 73.7854H43.961C43.3756 73.7854 42.9366 73.6976 42.6439 73.4927C42.3513 73.3171 42.2049 72.878 42.2049 72.2049V67.4927C42.2049 67.2878 42.1171 67.2 41.9122 67.2H37.5805C37.3756 67.2 37.2878 67.2878 37.2878 67.4927V74.2537C37.2878 75.5415 37.5513 76.5073 38.0781 77.0927C38.6049 77.7073 39.4537 78 40.683 78H55.1122C55.6976 78 56.1952 78 56.6342 77.9707C57.0732 77.9415 57.4537 77.8829 57.7756 77.7659C58.0976 77.6488 58.3903 77.5024 58.6244 77.3268C58.8586 77.1512 59.0342 76.8878 59.2098 76.5366C59.6196 77.1512 60.0878 77.561 60.6147 77.7366C61.1415 77.9122 61.7561 78.0293 62.4293 78.0293C62.4586 78.0293 62.4878 78.0293 62.5171 78.0293C62.5464 78.0293 62.5464 78.0293 62.5756 78.0293H66.5854C66.6439 78.0293 66.6732 78.0293 66.7317 78.0293C66.7903 78.0293 66.8196 78.0293 66.8781 78.0293H70.8878C70.9464 78.0293 70.9756 78.0293 71.0342 78.0293C71.0927 78.0293 71.122 78.0293 71.1805 78.0293H75.1903C75.2488 78.0293 75.2781 78.0293 75.3366 78.0293C75.3952 78.0293 75.4244 78.0293 75.483 78.0293H79.4927C79.522 78.0293 79.5513 78.0293 79.5805 78.0293C79.6098 78.0293 79.6098 78.0293 79.6391 78.0293H82.4488C83.4732 78.0293 84.2635 77.9415 84.8195 77.7366C85.3756 77.561 85.8147 77.1512 86.1366 76.5366C86.5171 77.1512 86.9854 77.561 87.5122 77.7366C88.0391 77.9122 88.6537 78.0293 89.3854 78.0293H97.9903C98.8098 78.0293 99.5415 77.9707 100.185 77.7951C100.829 77.6488 101.385 77.3561 101.824 76.9171C102.263 76.478 102.644 75.8927 102.878 75.1024C103.112 74.3122 103.259 73.3171 103.259 72.0878C103.346 71.0049 103.2 70.0098 102.937 69.1024Z" fill="white"/>
<path id="Vector_3" d="M94.039 62.2535H98.4293C98.6341 62.2535 98.7219 62.1657 98.7219 61.9608V58.6535C98.7219 58.4486 98.6341 58.3608 98.4293 58.3608H94.039C93.8341 58.3608 93.7463 58.4486 93.7463 58.6535V61.9608C93.7756 62.1365 93.8634 62.2535 94.039 62.2535Z" fill="white"/>
<path id="Vector_4" d="M72.4391 99.6292H69.0732C68.8683 99.6292 68.7805 99.717 68.7805 99.9218V103.229C68.7805 103.434 68.8683 103.522 69.0732 103.522H72.4391C72.6439 103.522 72.7317 103.434 72.7317 103.229V99.9218C72.7317 99.717 72.6439 99.6292 72.4391 99.6292Z" fill="white"/>
<path id="Vector_5" d="M77.2098 99.6292H73.844C73.6391 99.6292 73.5513 99.717 73.5513 99.9218V103.229C73.5513 103.434 73.6391 103.522 73.844 103.522H77.2098C77.4147 103.522 77.5025 103.434 77.5025 103.229V99.9218C77.5025 99.717 77.3854 99.6292 77.2098 99.6292Z" fill="white"/>
<path id="Vector_6" d="M60.4099 92.1365C60.3221 92.3999 60.1757 92.6047 59.9709 92.7511C59.766 92.8974 59.444 93.0145 59.0636 93.0438C58.6831 93.1023 58.1562 93.1023 57.5416 93.1023H52.3904V89.473C53.0928 89.1804 53.8538 88.9169 54.6733 88.6828C55.4928 88.4487 56.3416 88.3316 57.2197 88.3316C57.8636 88.3316 58.4197 88.3901 58.8587 88.5072C59.2977 88.6243 59.6197 88.7999 59.8831 89.0048C60.1465 89.2096 60.2928 89.5023 60.4099 89.8535C60.4977 90.1755 60.5562 90.5852 60.5562 91.0243C60.5562 91.4633 60.4684 91.8438 60.4099 92.1365ZM76.3611 93.5999V84.8779C76.3611 84.673 76.2733 84.5852 76.0684 84.5852H71.7075C71.5026 84.5852 71.4148 84.673 71.4148 84.8779V91.5218C71.4148 92.1072 71.2977 92.5462 71.0928 92.7511C70.8587 92.9852 70.5075 93.1023 70.0392 93.1023H67.5806C66.9953 93.1023 66.4977 92.956 66.1465 92.6633C65.7953 92.3706 65.5904 91.9316 65.5904 91.3462C65.5904 89.9706 65.4148 88.8291 65.0636 87.8926C64.7123 86.956 64.2148 86.2243 63.5709 85.6682C62.927 85.1121 62.166 84.7023 61.2587 84.4682C60.3514 84.234 59.3855 84.1169 58.3026 84.1169C57.2197 84.1169 56.166 84.234 55.1709 84.4682C54.1757 84.7023 53.2684 84.995 52.4197 85.3755L52.3904 84.5267C52.3904 84.3218 52.3026 84.234 52.0977 84.234H47.766C47.5611 84.234 47.4733 84.3218 47.4733 84.5267V96.4096C47.4733 98.5462 46.5953 99.6291 44.8392 99.6291C44.4879 99.6291 44.1367 99.5706 43.8148 99.4243C43.4928 99.2779 43.2001 99.1023 42.9367 98.8389C42.6733 98.5755 42.4684 98.2243 42.3221 97.7852C42.1757 97.3462 42.0879 96.8194 42.0879 96.1755C42.0879 95.3267 42.1757 94.5657 42.3806 93.9511C42.5855 93.3072 42.7904 92.7218 43.0538 92.1657C43.0831 92.0779 43.1123 92.0194 43.0831 91.9316C43.0538 91.8438 42.9953 91.7852 42.8782 91.756L39.0148 90.673C38.7806 90.6145 38.6343 90.6438 38.5465 90.7901C38.0782 91.6682 37.6977 92.6048 37.4928 93.6584C37.2587 94.6828 37.1416 95.6487 37.1416 96.556C37.1416 97.9316 37.3465 99.073 37.7855 100.039C38.1953 100.975 38.7806 101.736 39.4831 102.322C40.1855 102.907 41.005 103.317 41.9416 103.58C42.8782 103.844 43.8148 103.961 44.8099 103.961C45.805 103.961 46.7123 103.844 47.5904 103.61C48.4977 103.375 49.2879 102.995 49.9611 102.439C50.6343 101.883 51.2196 101.21 51.6294 100.332C52.0392 99.4535 52.3026 98.3999 52.3611 97.1121C52.8294 97.2584 53.444 97.3169 54.1465 97.3169H59.5026C60.8782 97.3169 61.9904 97.1706 62.8099 96.9072C63.6587 96.6438 64.3026 96.1462 64.7416 95.4145C65.1806 96.1755 65.6782 96.7023 66.2343 96.9365C66.7904 97.1706 67.5221 97.2877 68.3416 97.3169C68.3416 97.3169 68.3416 97.3169 68.3709 97.3169H72.9953C74.1953 97.3169 75.0733 97.0243 75.6001 96.4096C76.0977 95.8243 76.3611 94.8877 76.3611 93.5999Z" fill="white"/>
<path id="Vector_7" d="M101.21 86.1658C100.624 85.5218 99.8927 85.0243 98.9854 84.6731C98.0781 84.3218 97.0244 84.1462 95.7951 84.1462C94.5659 84.1462 93.4829 84.3804 92.5756 84.8194C91.6683 85.2584 90.8781 85.8438 90.1464 86.517C90.0586 86.6048 90.0293 86.6633 90.0878 86.7511C90.1171 86.8389 90.1464 86.8975 90.2342 86.9853L92.1951 89.6194C92.3122 89.7072 92.4585 89.7072 92.6049 89.5901C92.9854 89.2682 93.3951 89.0048 93.8342 88.7414C94.2732 88.5072 94.8 88.3901 95.3854 88.3901C95.8537 88.3901 96.2342 88.4779 96.5561 88.6243C96.8781 88.7706 97.1415 89.0048 97.3171 89.2682C97.522 89.5316 97.639 89.8536 97.7268 90.1755C97.8146 90.5267 97.8439 90.8487 97.8439 91.2292C97.8439 91.9609 97.6976 92.4584 97.4049 92.7511C97.1122 93.0438 96.5268 93.1609 95.6781 93.1609H88.2146C87.5707 93.1609 87.0732 93.0145 86.7512 92.7511C86.4 92.4877 86.2244 92.1365 86.2244 91.7267V84.8779C86.2244 84.6731 86.1366 84.5853 85.9317 84.5853H81.6C81.3951 84.5853 81.3073 84.6731 81.3073 84.8779V96.0877C81.3073 97.1414 81.161 97.9316 80.9268 98.4584C80.6634 98.9853 80.0781 99.278 79.1415 99.278H78.5561C78.3512 99.278 78.2634 99.3658 78.2634 99.5706V103.2C78.2634 103.405 78.3512 103.493 78.5561 103.493H80.1366C82.2732 103.493 83.8244 102.936 84.761 101.854C85.7268 100.771 86.1951 99.0438 86.1951 96.6731V96.2926C86.5171 96.7023 86.8976 96.9657 87.3659 97.1121C87.8049 97.2584 88.361 97.3462 89.0049 97.3462H97.6098C98.4293 97.3462 99.161 97.2877 99.8049 97.1121C100.449 96.9657 101.005 96.6731 101.444 96.234C101.883 95.795 102.263 95.2097 102.498 94.4194C102.732 93.6292 102.878 92.634 102.878 91.4048C102.878 90.3218 102.732 89.356 102.468 88.4487C102.205 87.5414 101.795 86.8097 101.21 86.1658Z" fill="white"/>
<path id="Vector_8" d="M109.171 42.117H94.6538V29.9121C94.6538 23.1804 92.1075 16.8292 87.4831 12.0877C82.8587 7.31701 76.7124 4.68286 70.2148 4.68286C63.7173 4.68286 57.5417 7.31701 52.9465 12.0585C48.3221 16.8292 45.8051 23.1512 45.8051 29.8829V35.0341C45.8051 36.6146 47.0343 37.9024 48.5856 37.9024C50.1368 37.9024 51.366 36.6146 51.366 35.0341V29.8829C51.366 19.1414 59.8246 10.3902 70.2441 10.3902C80.6636 10.3902 89.1221 19.1414 89.1221 29.8829V42.0877H50.2246C48.7026 42.0877 47.4441 43.3755 47.4441 44.956C47.4441 46.5365 48.6734 47.8243 50.2246 47.8243H108.644V109.551H31.7563V71.9707C31.7563 70.3902 30.527 69.1024 28.9758 69.1024C27.4246 69.1024 26.1953 70.3902 26.1953 71.9707V110.107C26.1953 112.976 28.449 115.288 31.2295 115.288H109.171C111.951 115.288 114.205 112.946 114.205 110.107V47.2975C114.205 44.4292 111.951 42.117 109.171 42.117Z" fill="white"/>
<path id="Vector_9" d="M73.7853 22.1853C73.0829 20.6049 71.8829 19.7268 70.1561 19.7561C68.4878 19.7853 67.2292 20.5756 66.5853 22.1561C65.9414 23.7658 66.1463 25.2585 67.2878 26.5756C67.6097 26.9268 67.7268 27.2488 67.639 27.7171C67.2292 30.0292 66.8488 32.3414 66.4683 34.6536C66.3219 35.5024 66.7024 35.9707 67.5219 35.9707C68.4 36 69.278 35.9707 70.1561 35.9707H71.3561C71.7658 35.9707 72.1463 35.9707 72.5561 35.9707C73.7853 35.9707 74.1073 35.5902 73.8731 34.3317C73.4927 32.1366 73.1122 29.9122 72.7317 27.7171C72.6439 27.2488 72.7317 26.9268 73.0536 26.5756C74.2244 25.3171 74.4878 23.7951 73.7853 22.1853Z" fill="white"/>
<path id="Vector_10" d="M34.6537 64.8584C34.2147 64.8584 33.7757 64.6828 33.483 64.3315L28.1562 58.595H10.4781C7.90251 58.595 5.82446 56.4291 5.82446 53.795V43.3754C5.82446 40.712 7.90251 38.5754 10.4781 38.5754H38.6928C41.2684 38.5754 43.3464 40.7413 43.3464 43.3754V53.795C43.3464 56.4584 41.2684 58.595 38.6928 58.595H36.2928V63.1608C36.2928 63.8632 35.883 64.4779 35.2684 64.7413C35.0635 64.8291 34.8586 64.8584 34.6537 64.8584ZM10.4781 41.9706C9.71715 41.9706 9.07324 42.6145 9.07324 43.4047V53.8242C9.07324 54.6145 9.68788 55.2584 10.4781 55.2584H28.8879C29.3269 55.2584 29.7659 55.434 30.0586 55.7852L33.044 59.0047V56.9559C33.044 56.0193 33.7757 55.2584 34.683 55.2584H38.722C39.483 55.2584 40.1269 54.6145 40.1269 53.8242V43.4047C40.1269 42.6145 39.5123 41.9706 38.722 41.9706H10.4781Z" fill="white"/>
<path id="Vector_11" d="M37.639 47.2683C37.4634 46.7122 36.9073 46.4195 36.3805 46.5951L34.6829 47.1512V45.3073C34.6829 44.722 34.2439 44.2537 33.6878 44.2537C33.1317 44.2537 32.6927 44.722 32.6927 45.3073V47.1512L30.9951 46.5951C30.4683 46.4195 29.8829 46.7122 29.7366 47.2683C29.561 47.8244 29.8537 48.4098 30.3805 48.5854L32.0781 49.1415L31.0244 50.6342C30.7025 51.1024 30.7903 51.7463 31.2586 52.0976C31.4342 52.2439 31.639 52.3024 31.8439 52.3024C32.1659 52.3024 32.4586 52.1561 32.6634 51.8634L33.7171 50.3707L34.7707 51.8634C34.9756 52.1561 35.2683 52.3024 35.5903 52.3024C35.7951 52.3024 36 52.2439 36.1756 52.0976C36.6146 51.7756 36.7317 51.1024 36.4098 50.6342L35.3561 49.1415L37.0537 48.5854C37.522 48.3805 37.8147 47.7951 37.639 47.2683Z" fill="white"/>
<path id="Vector_12" d="M28.566 47.2683C28.3904 46.7122 27.8343 46.4195 27.3075 46.5951L25.6099 47.1512V45.3073C25.6099 44.722 25.1709 44.2537 24.6148 44.2537C24.0587 44.2537 23.6197 44.722 23.6197 45.3073V47.1512L21.9221 46.5951C21.3953 46.4195 20.8099 46.7122 20.6636 47.2683C20.488 47.8244 20.7807 48.4098 21.3075 48.5854L23.0051 49.1415L21.9514 50.6342C21.6295 51.1024 21.7173 51.7463 22.1856 52.0976C22.3612 52.2439 22.566 52.3024 22.7709 52.3024C23.0929 52.3024 23.3856 52.1561 23.5904 51.8634L24.6441 50.3707L25.6977 51.8634C25.9026 52.1561 26.1953 52.3024 26.5173 52.3024C26.7221 52.3024 26.927 52.2439 27.1026 52.0976C27.5417 51.7756 27.6587 51.1024 27.3368 50.6342L26.2831 49.1415L27.9807 48.5854C28.449 48.3805 28.7417 47.7951 28.566 47.2683Z" fill="white"/>
<path id="Vector_13" d="M19.4928 47.2683C19.3172 46.7122 18.7611 46.4195 18.2343 46.5951L16.5367 47.1512V45.3073C16.5367 44.722 16.0977 44.2537 15.5416 44.2537C14.9855 44.2537 14.5465 44.722 14.5465 45.3073V47.1512L12.8489 46.5951C12.3221 46.4195 11.7367 46.7122 11.5904 47.2683C11.4148 47.8244 11.7074 48.4098 12.2343 48.5854L13.9318 49.1415L12.8782 50.6342C12.5562 51.1024 12.644 51.7463 13.1123 52.0976C13.2879 52.2439 13.4928 52.3024 13.6977 52.3024C14.0196 52.3024 14.3123 52.1561 14.5172 51.8634L15.5708 50.3707L16.6245 51.8634C16.8294 52.1561 17.1221 52.3024 17.444 52.3024C17.6489 52.3024 17.8538 52.2439 18.0294 52.0976C18.4684 51.7756 18.5855 51.1024 18.2635 50.6342L17.2099 49.1415L18.9074 48.5854C19.3757 48.3805 19.6684 47.7951 19.4928 47.2683Z" fill="white"/>
</g>
</g>
</svg>
