<svg xmlns="http://www.w3.org/2000/svg" width="48" height="48" viewBox="0 0 48 48" fill="none">
  <path d="M44.2624 18.9501L44.2684 18.9547L44.2746 18.9589C44.4159 19.0547 44.536 19.1783 44.6276 19.3223C44.7192 19.4663 44.7804 19.6274 44.8074 19.7959C44.8344 19.9644 44.8265 20.1367 44.7844 20.302C44.7423 20.4674 44.6668 20.6224 44.5625 20.7575C44.4582 20.8925 44.3274 21.0048 44.178 21.0874C44.0287 21.17 43.864 21.2211 43.6942 21.2376C43.5244 21.2542 43.3529 21.2357 43.1905 21.1835C43.028 21.1313 42.878 21.0463 42.7496 20.9339L42.7437 20.9287L42.7374 20.9239L40.6524 19.3189L40.2499 19.0091V19.517V37.937C40.2499 39.8598 39.4861 41.7039 38.1264 43.0635C36.7668 44.4232 34.9227 45.187 32.9999 45.187H14.9999C13.0771 45.187 11.233 44.4232 9.87339 43.0635C8.51375 41.7039 7.74991 39.8598 7.74991 37.937V19.517V19.0091L7.34742 19.3189L5.26242 20.9239L5.26164 20.9245C5.04369 21.0936 4.77591 21.1859 4.50004 21.187C4.3093 21.1865 4.12122 21.1423 3.95019 21.0578C3.77901 20.9733 3.62946 20.8508 3.51302 20.6995C3.31145 20.4374 3.22195 20.1061 3.26412 19.7781C3.30627 19.4503 3.47654 19.1525 3.73767 18.9499C3.7378 18.9498 3.73794 18.9497 3.73808 18.9496L19.5774 6.75509C20.8451 5.77918 22.4001 5.25 23.9999 5.25C25.5998 5.25 27.1547 5.77918 28.4224 6.75508L44.2624 18.9501ZM28.7499 42.687V42.437V36.437C28.7499 35.1772 28.2495 33.969 27.3587 33.0782C26.4679 32.1874 25.2597 31.687 23.9999 31.687C22.7401 31.687 21.532 32.1874 20.6412 33.0782C19.7504 33.969 19.2499 35.1772 19.2499 36.437V42.437V42.687H19.4999H28.4999H28.7499ZM31.2499 42.437V42.687H31.4999H32.9999C34.2597 42.687 35.4679 42.1865 36.3587 41.2957C37.2495 40.4049 37.7499 39.1968 37.7499 37.937V17.207V17.0838L37.6522 17.0088L26.8974 8.74389C26.0668 8.1045 25.0481 7.7578 23.9999 7.7578C22.9517 7.7578 21.933 8.1045 21.1024 8.74389L10.3476 17.0088L10.2499 17.0838V17.207V37.937C10.2499 39.1968 10.7504 40.4049 11.6412 41.2957C12.532 42.1865 13.7401 42.687 14.9999 42.687H16.4999H16.7499V42.437V36.437C16.7499 34.5142 17.5138 32.6701 18.8734 31.3105C20.233 29.9508 22.0771 29.187 23.9999 29.187C25.9227 29.187 27.7668 29.9508 29.1264 31.3105C30.4861 32.6701 31.2499 34.5142 31.2499 36.437V42.437Z" fill="white" stroke="#1F303C" stroke-width="0.5"/>
  <path d="M29 43H19V36.1429C19 34.7789 19.5268 33.4708 20.4645 32.5063C21.4021 31.5418 22.6739 31 24 31C25.3261 31 26.5979 31.5418 27.5355 32.5063C28.4732 33.4708 29 34.7789 29 36.1429V43Z" fill="#4FE0A3"/>
</svg>