<svg xmlns="http://www.w3.org/2000/svg" width="32" height="32" viewBox="0 0 32 32" fill="none">
  <path d="M23.1203 7.27996C22.8039 7.27996 22.4945 7.3738 22.2314 7.54961C21.9683 7.72542 21.7632 7.9753 21.6421 8.26767C21.521 8.56003 21.4893 8.88173 21.5511 9.1921C21.6128 9.50247 21.7652 9.78757 21.989 10.0113C22.2127 10.2351 22.4978 10.3875 22.8082 10.4492C23.1185 10.511 23.4403 10.4793 23.7326 10.3582C24.025 10.2371 24.2749 10.032 24.4507 9.76887C24.6265 9.50575 24.7203 9.19641 24.7203 8.87996C24.7203 8.45561 24.5518 8.04865 24.2517 7.74859C23.9516 7.44853 23.5447 7.27996 23.1203 7.27996ZM29.2537 10.5066C29.2277 9.40036 29.0205 8.30583 28.6403 7.26663C28.3013 6.37747 27.7736 5.57233 27.0937 4.90663C26.4334 4.22319 25.6264 3.69886 24.7337 3.37329C23.6972 2.98151 22.6015 2.76957 21.4937 2.74663C20.0803 2.66663 19.627 2.66663 16.0003 2.66663C12.3737 2.66663 11.9203 2.66663 10.507 2.74663C9.3992 2.76957 8.30345 2.98151 7.26699 3.37329C6.37589 3.70216 5.56957 4.22604 4.90699 4.90663C4.22356 5.56686 3.69923 6.37388 3.37366 7.26663C2.98187 8.30308 2.76994 9.39883 2.74699 10.5066C2.66699 11.92 2.66699 12.3733 2.66699 16C2.66699 19.6266 2.66699 20.08 2.74699 21.4933C2.76994 22.6011 2.98187 23.6968 3.37366 24.7333C3.69923 25.626 4.22356 26.4331 4.90699 27.0933C5.56957 27.7739 6.37589 28.2978 7.26699 28.6266C8.30345 29.0184 9.3992 29.2303 10.507 29.2533C11.9203 29.3333 12.3737 29.3333 16.0003 29.3333C19.627 29.3333 20.0803 29.3333 21.4937 29.2533C22.6015 29.2303 23.6972 29.0184 24.7337 28.6266C25.6264 28.3011 26.4334 27.7767 27.0937 27.0933C27.7766 26.4301 28.3048 25.6242 28.6403 24.7333C29.0205 23.6941 29.2277 22.5996 29.2537 21.4933C29.2537 20.08 29.3337 19.6266 29.3337 16C29.3337 12.3733 29.3337 11.92 29.2537 10.5066ZM26.8537 21.3333C26.8439 22.1797 26.6907 23.0182 26.4003 23.8133C26.1874 24.3936 25.8455 24.9179 25.4003 25.3466C24.9679 25.7873 24.4446 26.1285 23.867 26.3466C23.0719 26.637 22.2334 26.7903 21.387 26.8C20.0537 26.8666 19.5603 26.88 16.0537 26.88C12.547 26.88 12.0537 26.88 10.7203 26.8C9.84151 26.8164 8.96645 26.6811 8.13366 26.4C7.58137 26.1707 7.08213 25.8303 6.66699 25.4C6.22444 24.9716 5.88678 24.4469 5.68033 23.8666C5.3548 23.0602 5.17425 22.2025 5.14699 21.3333C5.14699 20 5.06699 19.5066 5.06699 16C5.06699 12.4933 5.06699 12 5.14699 10.6666C5.15297 9.80137 5.31093 8.94389 5.61366 8.13329C5.84839 7.57051 6.20868 7.06884 6.66699 6.66663C7.07208 6.20818 7.57271 5.84409 8.13366 5.59996C8.94639 5.30668 9.80299 5.1534 10.667 5.14663C12.0003 5.14663 12.4937 5.06663 16.0003 5.06663C19.507 5.06663 20.0003 5.06663 21.3337 5.14663C22.18 5.15633 23.0186 5.30962 23.8137 5.59996C24.4196 5.82483 24.9634 6.19042 25.4003 6.66663C25.8373 7.0762 26.1787 7.57694 26.4003 8.13329C26.6967 8.9452 26.85 9.80233 26.8537 10.6666C26.9203 12 26.9337 12.4933 26.9337 16C26.9337 19.5066 26.9203 20 26.8537 21.3333ZM16.0003 9.15996C14.6481 9.16259 13.3269 9.56599 12.2039 10.3192C11.0808 11.0724 10.2062 12.1416 9.6905 13.3916C9.17484 14.6417 9.04129 16.0166 9.30672 17.3425C9.57214 18.6685 10.2246 19.886 11.1818 20.8413C12.1389 21.7965 13.3577 22.4466 14.6841 22.7095C16.0106 22.9723 17.3852 22.8361 18.6343 22.318C19.8834 21.7999 20.9508 20.9232 21.7018 19.7987C22.4528 18.6741 22.8537 17.3522 22.8537 16C22.8554 15.1001 22.6793 14.2088 22.3353 13.3772C21.9914 12.5457 21.4864 11.7904 20.8495 11.1547C20.2126 10.519 19.4563 10.0155 18.6241 9.6732C17.7919 9.33087 16.9002 9.15644 16.0003 9.15996ZM16.0003 20.44C15.1222 20.44 14.2637 20.1796 13.5336 19.6917C12.8034 19.2038 12.2344 18.5104 11.8983 17.6991C11.5622 16.8878 11.4743 15.995 11.6456 15.1338C11.817 14.2725 12.2398 13.4813 12.8608 12.8604C13.4817 12.2395 14.2728 11.8166 15.1341 11.6453C15.9954 11.474 16.8881 11.5619 17.6994 11.8979C18.5107 12.234 19.2042 12.8031 19.692 13.5332C20.1799 14.2634 20.4403 15.1218 20.4403 16C20.4403 16.583 20.3255 17.1604 20.1024 17.6991C19.8792 18.2378 19.5522 18.7272 19.1399 19.1395C18.7276 19.5518 18.2381 19.8789 17.6994 20.102C17.1608 20.3251 16.5834 20.44 16.0003 20.44Z" fill="#4FE0A3"/>
</svg>