<svg xmlns="http://www.w3.org/2000/svg" width="103" height="102" viewBox="0 0 103 102" fill="none">
  <path d="M100.109 50.97C100.109 78.0153 78.1834 99.94 51.1371 99.94C24.0909 99.94 2.16571 78.0153 2.16571 50.97C2.16571 23.9247 24.0909 2 51.1371 2C78.1834 2 100.109 23.9247 100.109 50.97Z" stroke="white" stroke-width="4"/>
  <path d="M69.4596 55.0397L41.2307 73.7249C40.6505 74.1104 39.9772 74.3306 39.2823 74.3622C38.5875 74.3937 37.8972 74.2354 37.2847 73.904C36.6723 73.5726 36.1607 73.0806 35.8043 72.4803C35.4479 71.8799 35.2601 71.1937 35.2608 70.4946V33.1212C35.2608 30.0402 38.6695 28.1965 41.2307 29.8878L69.4596 48.5792C69.9918 48.9314 70.4287 49.411 70.7309 49.9748C71.0332 50.5386 71.1915 51.169 71.1915 51.8095C71.1915 52.4499 71.0332 53.0804 70.7309 53.6442C70.4287 54.208 69.9918 54.6875 69.4596 55.0397Z" fill="white"/>
</svg>