<svg xmlns="http://www.w3.org/2000/svg" width="32" height="32" viewBox="0 0 32 32" fill="none">
  <path d="M29.3337 7.73337C28.3314 8.16816 27.2716 8.45559 26.187 8.5867C27.3312 7.90313 28.1887 6.82775 28.6003 5.56004C27.5251 6.20012 26.348 6.6511 25.1203 6.89337C24.2997 6.00346 23.2069 5.4111 22.0134 5.20917C20.8199 5.00724 19.593 5.20718 18.5254 5.77762C17.4577 6.34806 16.6096 7.25674 16.114 8.36115C15.6184 9.46556 15.5034 10.7032 15.787 11.88C13.6129 11.7701 11.4862 11.204 9.5452 10.2185C7.60415 9.23306 5.89212 7.85029 4.52033 6.16004C4.03918 7.00026 3.78635 7.9518 3.78699 8.92004C3.78529 9.81921 4.00595 10.7049 4.42933 11.4981C4.85272 12.2914 5.46568 12.9676 6.21366 13.4667C5.3443 13.443 4.49351 13.2098 3.73366 12.7867V12.8534C3.74017 14.1132 4.18165 15.3322 4.98341 16.304C5.78517 17.2758 6.898 17.9409 8.13366 18.1867C7.658 18.3315 7.16416 18.4078 6.66699 18.4134C6.32285 18.4093 5.97956 18.3781 5.64033 18.32C5.99221 19.4038 6.67316 20.3509 7.58843 21.0296C8.50369 21.7083 9.60776 22.0848 10.747 22.1067C8.82326 23.6204 6.44817 24.4465 4.00033 24.4534C3.55464 24.4548 3.10931 24.4281 2.66699 24.3734C5.16623 25.987 8.07874 26.8437 11.0537 26.84C13.1066 26.8614 15.1432 26.4734 17.0445 25.6988C18.9458 24.9242 20.6737 23.7785 22.1273 22.3287C23.5808 20.8788 24.7309 19.1539 25.5104 17.2546C26.2899 15.3553 26.683 13.3197 26.667 11.2667C26.667 11.04 26.667 10.8 26.667 10.56C27.7133 9.77978 28.6156 8.82327 29.3337 7.73337Z" fill="#4FE0A3"/>
</svg>