<svg width="39" height="39" viewBox="0 0 39 39" fill="none" xmlns="http://www.w3.org/2000/svg">
<g clip-path="url(#clip0_12_3)">
<path d="M20.4841 18.5443L29.1255 30.9046H25.579L18.5275 20.8186V20.8179L17.4922 19.3373L9.25481 7.55444H12.8013L19.4488 17.0637L20.4841 18.5443Z" fill="#234A55"/>
<path d="M34.2508 0H4.1492C1.85772 0 0 1.85772 0 4.1492V34.2508C0 36.5423 1.85772 38.4 4.1492 38.4H34.2508C36.5423 38.4 38.4 36.5423 38.4 34.2508V4.1492C38.4 1.85772 36.5423 0 34.2508 0ZM24.4928 32.564L17.357 22.1787L8.42296 32.564H6.11396L16.3317 20.6872L6.11396 5.81633H13.9072L20.6643 15.6504L29.1242 5.81633H31.4332L21.6899 17.1423H21.6893L32.286 32.564H24.4928Z" fill="#234A55"/>
</g>
<defs>
<clipPath id="clip0_12_3">
<rect width="38.4" height="38.4" fill="white"/>
</clipPath>
</defs>
</svg>
