<svg xmlns="http://www.w3.org/2000/svg" width="119" height="125" viewBox="0 0 119 125" fill="none">
<path d="M11.1967 6.99068L19.8262 2.20871C23.7541 0.0298346 28.3406 -0.64518 32.7296 0.309672C37.1187 1.26452 41.0102 3.78398 43.6779 7.39772L52.1933 18.9331C54.4877 22.0405 55.7516 25.7883 55.8076 29.6506C55.8636 33.5129 54.709 37.2958 52.5057 40.4685L44.4958 52.0046C44.3969 52.1474 44.3249 52.3071 44.2835 52.4757C43.6977 54.8504 46.5368 60.2384 53.4149 67.8197C61.1713 76.3635 66.3626 79.2794 68.2525 78.2467L80.554 71.3586C83.9235 69.4747 87.798 68.6922 91.6345 69.121C95.471 69.5498 99.0772 71.1684 101.948 73.7498L112.563 83.2869C115.896 86.2814 118.028 90.3841 118.564 94.8324C119.1 99.2808 118.002 103.772 115.476 107.473L109.892 115.641C107.951 118.485 105.351 120.816 102.314 122.437C99.2763 124.057 95.8919 124.919 92.4494 124.948C72.0067 125.117 51.068 113.165 29.5578 89.4698C8.03843 65.759 -1.84202 43.7355 0.328197 23.3914C0.691387 19.9855 1.86907 16.717 3.76174 13.8622C5.65441 11.0074 8.20089 8.65128 11.1967 6.99068ZM15.3415 14.454C13.5439 15.4501 12.0125 16.8643 10.8767 18.577C9.74083 20.2898 9.03396 22.2508 8.81576 24.2943C6.94416 41.8252 15.8361 61.6523 35.8782 83.7326C55.9056 105.799 74.7636 116.559 92.3748 116.411C94.4413 116.393 96.4729 115.876 98.2961 114.903C100.119 113.929 101.68 112.529 102.844 110.822L108.424 102.66C109.785 100.668 110.376 98.2494 110.088 95.8539C109.8 93.4584 108.653 91.2489 106.858 89.6359L96.2419 80.0932C94.6965 78.7035 92.7552 77.8321 90.6898 77.6011C88.6244 77.37 86.5385 77.7909 84.7243 78.8048L72.3918 85.7112C65.5552 89.4699 57.361 84.8699 47.0932 73.5513C38.3972 63.9767 34.4917 56.543 35.9975 50.4345C36.2889 49.2533 36.7922 48.1368 37.4838 47.1368L45.4937 35.6006C46.6807 33.8921 47.3028 31.8548 47.2728 29.7747C47.2428 27.6946 46.5622 25.6761 45.3264 24.0026L36.8122 12.4728C35.3757 10.5264 33.2798 9.16942 30.9159 8.65526C28.5521 8.14109 26.0819 8.50492 23.9667 9.67879L15.3372 14.4608L15.3415 14.454Z" fill="white"/>
</svg>