<svg width="126" height="118" viewBox="0 0 126 118" fill="none" xmlns="http://www.w3.org/2000/svg">
<path id="Vector" d="M29.3333 35.9412H89.6667M29.3333 62.2941H76.3333M103 3C108.304 3 113.391 5.08235 117.142 8.78895C120.893 12.4956 123 17.5228 123 22.7647V75.4706C123 80.7125 120.893 85.7397 117.142 89.4464C113.391 93.153 108.304 95.2353 103 95.2353H69.6667L36.3333 115V95.2353H23C17.6957 95.2353 12.6086 93.153 8.85786 89.4464C5.10714 85.7397 3 80.7125 3 75.4706V22.7647C3 17.5228 5.10714 12.4956 8.85786 8.78895C12.6086 5.08235 17.6957 3 23 3H103Z" stroke="white" stroke-width="5" stroke-linecap="round" stroke-linejoin="round"/>
</svg>
